<svg width="105" height="116" viewBox="0 0 105 116" fill="none" xmlns="http://www.w3.org/2000/svg">
<path d="M31.3334 18C28.496 17.9992 25.7095 18.7529 23.2594 20.1839C20.8094 21.6149 18.7839 23.6716 17.3906 26.1433C15.9974 28.6151 15.2865 31.4128 15.3308 34.2498C15.3751 37.0868 16.173 39.861 17.6427 42.288C13.9923 42.9934 10.7013 44.9476 8.33473 47.8152C5.96821 50.6827 4.67383 54.2847 4.67383 58.0027C4.67383 61.7207 5.96821 65.3227 8.33473 68.1902C10.7013 71.0578 13.9923 73.012 17.6427 73.7173M31.3334 18C31.3334 14.4638 32.7381 11.0724 35.2386 8.57193C37.7391 6.07144 41.1305 4.66669 44.6667 4.66669C48.2029 4.66669 51.5943 6.07144 54.0948 8.57193C56.5953 11.0724 58.0001 14.4638 58.0001 18V98C58.0001 101.536 56.5953 104.928 54.0948 107.428C51.5943 109.929 48.2029 111.333 44.6667 111.333C41.1305 111.333 37.7391 109.929 35.2386 107.428C32.7381 104.928 31.3334 101.536 31.3334 98C28.4968 98.0003 25.7112 97.2464 23.2619 95.8157C20.8126 94.385 18.7877 92.3289 17.3946 89.858C16.0015 87.3871 15.2903 84.5903 15.3339 81.7541C15.3775 78.9179 16.1743 76.1442 17.6427 73.7173M31.3334 18C31.3334 22.3627 33.4294 26.2347 36.6667 28.6667M17.6427 73.7173C19.5567 70.5487 22.5103 68.1417 26.0001 66.9067M96.6667 19.3334L84.6667 31.3334H74.0001M96.6667 96.6667L84.6667 84.6667H74.0001M96.6667 58H74.0001M92.6667 19.3334C92.6667 20.3942 93.0881 21.4116 93.8383 22.1618C94.5884 22.9119 95.6059 23.3334 96.6667 23.3334C97.7276 23.3334 98.745 22.9119 99.4952 22.1618C100.245 21.4116 100.667 20.3942 100.667 19.3334C100.667 18.2725 100.245 17.2551 99.4952 16.5049C98.745 15.7548 97.7276 15.3334 96.6667 15.3334C95.6059 15.3334 94.5884 15.7548 93.8383 16.5049C93.0881 17.2551 92.6667 18.2725 92.6667 19.3334ZM92.6667 96.6667C92.6667 95.6058 93.0881 94.5884 93.8383 93.8383C94.5884 93.0881 95.6059 92.6667 96.6667 92.6667C97.7276 92.6667 98.745 93.0881 99.4952 93.8383C100.245 94.5884 100.667 95.6058 100.667 96.6667C100.667 97.7275 100.245 98.745 99.4952 99.4951C98.745 100.245 97.7276 100.667 96.6667 100.667C95.6059 100.667 94.5884 100.245 93.8383 99.4951C93.0881 98.745 92.6667 97.7275 92.6667 96.6667ZM92.6667 58C92.6667 59.0609 93.0881 60.0783 93.8383 60.8284C94.5884 61.5786 95.6059 62 96.6667 62C97.7276 62 98.745 61.5786 99.4952 60.8284C100.245 60.0783 100.667 59.0609 100.667 58C100.667 56.9392 100.245 55.9217 99.4952 55.1716C98.745 54.4214 97.7276 54 96.6667 54C95.6059 54 94.5884 54.4214 93.8383 55.1716C93.0881 55.9217 92.6667 56.9392 92.6667 58Z" stroke="#0652E9" stroke-width="8" stroke-linecap="round" stroke-linejoin="round"/>
</svg>
