<svg xmlns="http://www.w3.org/2000/svg" xmlns:xlink="http://www.w3.org/1999/xlink" width="3000" zoomAndPan="magnify" viewBox="0 0 2250 2250.000011" height="3000" preserveAspectRatio="xMidYMid meet" version="1.0"><defs><g/></defs><path fill="#0652e9" d="M 490.214844 766.957031 C 490.683594 766.574219 491.140625 766.171875 491.597656 765.785156 L 491.941406 765.488281 L 492.304688 765.164062 L 493.03125 764.519531 C 493.566406 764.046875 493.867188 763.746094 494.238281 763.394531 L 494.90625 762.761719 L 495.515625 762.15625 C 496.332031 761.351562 497.113281 760.535156 497.890625 759.71875 C 499.429688 758.078125 500.914062 756.433594 502.308594 754.765625 C 503.695312 753.09375 505.03125 751.421875 506.289062 749.746094 C 507.5625 748.082031 508.773438 746.410156 509.917969 744.742188 C 512.230469 741.410156 514.339844 738.125 516.308594 734.898438 C 518.289062 731.683594 520.109375 728.523438 521.871094 725.464844 C 525.375 719.339844 528.566406 713.578125 531.6875 708.265625 C 534.8125 702.960938 537.851562 698.078125 540.953125 693.710938 C 547.105469 684.9375 553.503906 678.132812 559.566406 673.179688 C 561.078125 671.9375 562.546875 670.792969 563.984375 669.773438 C 564.691406 669.25 565.398438 668.769531 566.078125 668.285156 C 566.761719 667.8125 567.4375 667.378906 568.085938 666.949219 C 569.398438 666.117188 570.632812 665.359375 571.785156 664.679688 C 572.355469 664.328125 572.914062 664.035156 573.445312 663.730469 C 573.972656 663.429688 574.480469 663.15625 574.964844 662.898438 C 575.929688 662.371094 576.785156 661.914062 577.539062 661.546875 C 578.285156 661.167969 578.921875 660.835938 579.445312 660.59375 C 580.480469 660.085938 581.015625 659.824219 581.015625 659.824219 C 581.015625 659.824219 580.417969 659.847656 579.265625 659.898438 C 578.691406 659.925781 577.976562 659.96875 577.121094 660.050781 C 576.261719 660.125 575.273438 660.234375 574.15625 660.375 C 569.703125 660.980469 563.070312 662.203125 555.046875 665.578125 C 551.046875 667.257812 546.734375 669.496094 542.277344 672.347656 C 537.816406 675.203125 533.289062 678.742188 528.785156 682.824219 C 524.304688 686.921875 519.855469 691.574219 515.53125 696.613281 C 513.351562 699.125 511.21875 701.746094 509.0625 704.402344 C 506.929688 707.074219 504.78125 709.792969 502.636719 712.539062 C 494.046875 723.503906 485.269531 734.957031 474.648438 743.402344 L 474.226562 743.726562 L 474.015625 743.890625 L 473.773438 744.070312 C 473.449219 744.308594 473.132812 744.558594 472.800781 744.792969 C 472.148438 745.261719 471.484375 745.71875 470.816406 746.164062 C 469.472656 747.046875 468.09375 747.871094 466.695312 748.636719 C 463.890625 750.164062 460.945312 751.386719 457.9375 752.332031 C 456.429688 752.796875 454.902344 753.179688 453.359375 753.480469 C 451.820312 753.785156 450.265625 754.011719 448.707031 754.136719 C 445.585938 754.390625 442.445312 754.296875 439.355469 753.835938 C 436.265625 753.351562 433.226562 752.53125 430.324219 751.316406 C 428.878906 750.703125 427.472656 749.992188 426.089844 749.21875 C 424.722656 748.433594 423.394531 747.554688 422.125 746.589844 C 420.863281 745.609375 419.636719 744.570312 418.476562 743.441406 C 417.90625 742.867188 417.332031 742.292969 416.796875 741.679688 L 416.589844 741.449219 C 416.605469 741.472656 416.410156 741.242188 416.597656 741.472656 L 416.460938 741.304688 L 415.921875 740.648438 C 415.695312 740.351562 415.5625 740.199219 415.300781 739.84375 C 413.417969 737.335938 411.863281 734.527344 410.707031 731.476562 C 408.382812 725.390625 407.707031 718.332031 408.765625 711.507812 C 409.800781 704.679688 412.65625 698.15625 416.820312 693.1875 C 421 688.207031 426.429688 684.890625 432.722656 683.5 C 437.121094 682.515625 441.980469 682.53125 446.984375 683.371094 C 447.121094 684.347656 447.3125 685.324219 447.5625 686.300781 C 451.191406 700.355469 465.527344 708.804688 479.578125 705.175781 C 493.632812 701.546875 502.082031 687.214844 498.453125 673.160156 C 494.824219 659.105469 480.492188 650.65625 466.4375 654.285156 C 462.863281 655.207031 459.652344 656.824219 456.910156 658.953125 C 455.820312 658.652344 454.726562 658.359375 453.609375 658.105469 C 450.90625 657.464844 448.125 656.972656 445.273438 656.664062 C 439.578125 656.03125 433.59375 656.113281 427.621094 657.195312 C 421.644531 658.261719 415.710938 660.355469 410.320312 663.414062 C 404.910156 666.453125 400.070312 670.429688 396.007812 674.960938 C 391.945312 679.5 388.640625 684.582031 386.128906 689.953125 C 383.605469 695.320312 381.832031 700.957031 380.789062 706.707031 C 378.695312 718.191406 379.539062 730.207031 383.507812 741.386719 C 385.496094 746.96875 388.277344 752.316406 391.792969 757.136719 C 392.195312 757.703125 392.769531 758.441406 393.238281 759.046875 L 393.773438 759.710938 L 394.535156 760.640625 C 395.457031 761.765625 396.429688 762.847656 397.425781 763.910156 C 399.425781 766.019531 401.5625 768.003906 403.828125 769.820312 C 412.886719 777.125 423.886719 781.765625 435.011719 783.34375 C 437.792969 783.738281 440.582031 783.960938 443.355469 784.019531 C 446.128906 784.066406 448.882812 783.925781 451.597656 783.640625 C 457.035156 783.082031 462.296875 781.832031 467.261719 780.082031 C 472.234375 778.347656 476.890625 776.0625 481.183594 773.4375 C 483.335938 772.128906 485.394531 770.722656 487.347656 769.230469 C 488.324219 768.484375 489.28125 767.730469 490.214844 766.957031 " fill-opacity="1" fill-rule="nonzero"/><path fill="#00adef" d="M 682.75 704.675781 C 680.765625 699.09375 677.980469 693.746094 674.460938 688.925781 C 674.0625 688.359375 673.488281 687.621094 673.019531 687.019531 L 672.484375 686.351562 L 671.71875 685.421875 C 670.800781 684.296875 669.824219 683.214844 668.832031 682.152344 C 666.832031 680.042969 664.695312 678.058594 662.425781 676.242188 C 653.371094 668.9375 642.371094 664.296875 631.242188 662.722656 C 628.460938 662.324219 625.671875 662.101562 622.902344 662.042969 C 620.128906 661.996094 617.375 662.136719 614.660156 662.421875 C 609.222656 662.980469 603.960938 664.230469 598.996094 665.976562 C 594.023438 667.710938 589.363281 670 585.074219 672.625 C 582.921875 673.933594 580.867188 675.34375 578.90625 676.832031 C 577.933594 677.578125 576.976562 678.332031 576.042969 679.105469 C 575.570312 679.488281 575.117188 679.890625 574.65625 680.277344 L 574.316406 680.574219 L 573.949219 680.894531 L 573.226562 681.542969 C 572.695312 682.015625 572.390625 682.316406 572.019531 682.667969 L 571.351562 683.300781 L 570.742188 683.90625 C 569.925781 684.710938 569.144531 685.527344 568.363281 686.34375 C 566.828125 687.984375 565.339844 689.628906 563.949219 691.296875 C 562.5625 692.96875 561.226562 694.644531 559.964844 696.316406 C 558.691406 697.984375 557.484375 699.652344 556.339844 701.320312 C 554.027344 704.652344 551.917969 707.9375 549.949219 711.164062 C 547.96875 714.382812 546.144531 717.539062 544.386719 720.601562 C 540.882812 726.722656 537.691406 732.484375 534.570312 737.796875 C 531.441406 743.101562 528.40625 747.984375 525.300781 752.355469 C 519.152344 761.128906 512.753906 767.929688 506.691406 772.882812 C 505.179688 774.125 503.707031 775.273438 502.273438 776.289062 C 501.566406 776.8125 500.855469 777.292969 500.179688 777.777344 C 499.496094 778.25 498.816406 778.679688 498.171875 779.117188 C 496.859375 779.941406 495.621094 780.699219 494.472656 781.382812 C 493.902344 781.734375 493.339844 782.027344 492.8125 782.332031 C 492.285156 782.632812 491.777344 782.90625 491.289062 783.160156 C 490.328125 783.691406 489.46875 784.144531 488.71875 784.515625 C 487.972656 784.894531 487.335938 785.226562 486.8125 785.472656 C 485.777344 785.976562 485.242188 786.238281 485.242188 786.238281 C 485.242188 786.238281 485.839844 786.210938 486.992188 786.164062 C 487.566406 786.136719 488.28125 786.09375 489.136719 786.007812 C 489.992188 785.941406 490.980469 785.824219 492.101562 785.6875 C 496.550781 785.082031 503.1875 783.855469 511.207031 780.484375 C 515.210938 778.808594 519.523438 776.566406 523.980469 773.714844 C 528.4375 770.859375 532.96875 767.320312 537.46875 763.238281 C 541.953125 759.136719 546.402344 754.488281 550.726562 749.449219 C 552.902344 746.941406 555.035156 744.316406 557.191406 741.660156 C 559.324219 738.988281 561.472656 736.273438 563.621094 733.523438 C 572.207031 722.558594 580.988281 711.105469 591.609375 702.664062 L 592.242188 702.171875 L 592.484375 701.992188 C 592.808594 701.753906 593.128906 701.503906 593.453125 701.273438 C 594.105469 700.800781 594.773438 700.34375 595.441406 699.898438 C 596.785156 699.015625 598.160156 698.195312 599.5625 697.425781 C 602.371094 695.898438 605.3125 694.675781 608.320312 693.730469 C 609.824219 693.265625 611.359375 692.882812 612.898438 692.582031 C 614.4375 692.277344 615.988281 692.050781 617.550781 691.925781 C 620.667969 691.671875 623.8125 691.765625 626.902344 692.222656 C 629.988281 692.707031 633.03125 693.535156 635.929688 694.746094 C 637.378906 695.359375 638.785156 696.066406 640.164062 696.839844 C 641.535156 697.628906 642.859375 698.507812 644.132812 699.472656 C 645.394531 700.453125 646.621094 701.488281 647.78125 702.621094 C 648.351562 703.195312 648.925781 703.773438 649.460938 704.386719 L 649.667969 704.613281 C 649.648438 704.589844 649.847656 704.824219 649.660156 704.589844 L 649.792969 704.757812 L 650.335938 705.414062 C 650.5625 705.710938 650.695312 705.863281 650.957031 706.222656 C 652.835938 708.730469 654.394531 711.535156 655.550781 714.585938 C 657.878906 720.675781 658.550781 727.730469 657.488281 734.554688 C 656.453125 741.382812 653.601562 747.90625 649.4375 752.875 C 645.257812 757.855469 639.828125 761.175781 633.535156 762.5625 C 629.136719 763.546875 624.277344 763.527344 619.269531 762.691406 C 619.132812 761.714844 618.945312 760.738281 618.691406 759.761719 C 615.0625 745.710938 600.730469 737.257812 586.679688 740.886719 C 572.625 744.515625 564.171875 758.851562 567.804688 772.902344 C 571.433594 786.953125 585.765625 795.40625 599.816406 791.777344 C 603.390625 790.855469 606.605469 789.238281 609.347656 787.105469 C 610.433594 787.414062 611.53125 787.699219 612.648438 787.960938 C 615.347656 788.59375 618.132812 789.089844 620.984375 789.398438 C 626.675781 790.03125 632.664062 789.949219 638.636719 788.867188 C 644.613281 787.804688 650.546875 785.707031 655.9375 782.652344 C 661.347656 779.613281 666.1875 775.632812 670.25 771.101562 C 674.3125 766.5625 677.617188 761.476562 680.132812 756.109375 C 682.652344 750.746094 684.425781 745.105469 685.464844 739.355469 C 687.5625 727.871094 686.714844 715.855469 682.75 704.675781 " fill-opacity="1" fill-rule="nonzero"/><g fill="#001140" fill-opacity="1"><g transform="translate(711.924054, 716.362946)"><g><path d="M 28.5625 -42.546875 L 28.5625 0 L 16.265625 0 L 16.265625 -42.546875 L 1.6875 -42.546875 L 1.6875 -51.953125 L 43.75 -51.953125 L 42.46875 -42.546875 Z M 28.5625 -42.546875 "/></g></g></g><g fill="#001140" fill-opacity="1"><g transform="translate(760.652349, 716.362946)"><g><path d="M 19.265625 -43.1875 L 19.265625 -30.703125 L 37.265625 -30.703125 L 37.265625 -22.078125 L 19.265625 -22.078125 L 19.265625 -8.8125 L 40.96875 -8.8125 L 40.96875 0 L 6.96875 0 L 6.96875 -51.953125 L 40.9375 -51.953125 L 39.703125 -43.1875 Z M 19.265625 -43.1875 "/></g></g></g><g fill="#001140" fill-opacity="1"><g transform="translate(809.380645, 716.362946)"><g><path d="M 26.84375 -53.265625 C 30.5625 -53.265625 33.726562 -52.769531 36.34375 -51.78125 C 38.957031 -50.789062 41.347656 -49.398438 43.515625 -47.609375 L 37.484375 -40.328125 C 36.054688 -41.503906 34.476562 -42.4375 32.75 -43.125 C 31.03125 -43.8125 29.160156 -44.15625 27.140625 -44.15625 C 24.960938 -44.15625 22.972656 -43.535156 21.171875 -42.296875 C 19.378906 -41.066406 17.941406 -39.117188 16.859375 -36.453125 C 15.785156 -33.796875 15.25 -30.34375 15.25 -26.09375 C 15.25 -21.914062 15.769531 -18.507812 16.8125 -15.875 C 17.851562 -13.238281 19.285156 -11.300781 21.109375 -10.0625 C 22.929688 -8.820312 25.015625 -8.203125 27.359375 -8.203125 C 29.960938 -8.203125 32.125 -8.691406 33.84375 -9.671875 C 35.570312 -10.648438 37.160156 -11.710938 38.609375 -12.859375 L 44.1875 -5.734375 C 42.238281 -3.804688 39.835938 -2.15625 36.984375 -0.78125 C 34.140625 0.59375 30.707031 1.28125 26.6875 1.28125 C 21.988281 1.28125 17.820312 0.238281 14.1875 -1.84375 C 10.550781 -3.9375 7.703125 -7.015625 5.640625 -11.078125 C 3.578125 -15.140625 2.546875 -20.144531 2.546875 -26.09375 C 2.546875 -31.882812 3.613281 -36.804688 5.75 -40.859375 C 7.882812 -44.910156 10.789062 -47.988281 14.46875 -50.09375 C 18.144531 -52.207031 22.269531 -53.265625 26.84375 -53.265625 Z M 26.84375 -53.265625 "/></g></g></g><g fill="#001140" fill-opacity="1"><g transform="translate(858.10894, 716.362946)"><g><path d="M 28.78125 0 L 28.78125 -21.890625 L 16.1875 -21.890625 L 16.1875 0 L 3.890625 0 L 3.890625 -51.953125 L 16.1875 -51.953125 L 16.1875 -32.015625 L 28.78125 -32.015625 L 28.78125 -51.953125 L 41.078125 -51.953125 L 41.078125 0 Z M 28.78125 0 "/></g></g></g><g fill="#001140" fill-opacity="1"><g transform="translate(906.837235, 716.362946)"><g><path d="M 42.578125 -15.1875 C 42.578125 -11.957031 41.734375 -9.101562 40.046875 -6.625 C 38.359375 -4.15625 35.941406 -2.21875 32.796875 -0.8125 C 29.648438 0.582031 25.863281 1.28125 21.4375 1.28125 C 16.539062 1.28125 12.4375 0.5625 9.125 -0.875 C 5.8125 -2.3125 3.070312 -4.09375 0.90625 -6.21875 L 7.125 -13.125 C 9.050781 -11.445312 11.175781 -10.148438 13.5 -9.234375 C 15.820312 -8.328125 18.367188 -7.875 21.140625 -7.875 C 22.867188 -7.875 24.378906 -8.125 25.671875 -8.625 C 26.972656 -9.125 27.984375 -9.847656 28.703125 -10.796875 C 29.429688 -11.742188 29.796875 -12.894531 29.796875 -14.25 C 29.796875 -15.519531 29.507812 -16.59375 28.9375 -17.46875 C 28.363281 -18.34375 27.394531 -19.128906 26.03125 -19.828125 C 24.664062 -20.523438 22.773438 -21.238281 20.359375 -21.96875 C 16.304688 -23.21875 13.046875 -24.59375 10.578125 -26.09375 C 8.117188 -27.59375 6.332031 -29.328125 5.21875 -31.296875 C 4.113281 -33.273438 3.5625 -35.578125 3.5625 -38.203125 C 3.5625 -41.367188 4.441406 -44.078125 6.203125 -46.328125 C 7.960938 -48.578125 10.328125 -50.296875 13.296875 -51.484375 C 16.273438 -52.671875 19.550781 -53.265625 23.125 -53.265625 C 27.144531 -53.265625 30.691406 -52.679688 33.765625 -51.515625 C 36.847656 -50.359375 39.507812 -48.707031 41.75 -46.5625 L 35.953125 -39.890625 C 34.203125 -41.359375 32.3125 -42.445312 30.28125 -43.15625 C 28.257812 -43.875 26.203125 -44.234375 24.109375 -44.234375 C 22.554688 -44.234375 21.191406 -44.035156 20.015625 -43.640625 C 18.835938 -43.253906 17.925781 -42.6875 17.28125 -41.9375 C 16.632812 -41.195312 16.3125 -40.265625 16.3125 -39.140625 C 16.3125 -38.035156 16.625 -37.109375 17.25 -36.359375 C 17.875 -35.609375 18.957031 -34.898438 20.5 -34.234375 C 22.050781 -33.578125 24.203125 -32.8125 26.953125 -31.9375 C 30.222656 -30.9375 33.023438 -29.742188 35.359375 -28.359375 C 37.703125 -26.972656 39.488281 -25.226562 40.71875 -23.125 C 41.957031 -21.03125 42.578125 -18.382812 42.578125 -15.1875 Z M 42.578125 -15.1875 "/></g></g></g><g fill="#001140" fill-opacity="1"><g transform="translate(955.565531, 716.362946)"><g><path d="M 19.265625 -43.1875 L 19.265625 -30.703125 L 37.265625 -30.703125 L 37.265625 -22.078125 L 19.265625 -22.078125 L 19.265625 -8.8125 L 40.96875 -8.8125 L 40.96875 0 L 6.96875 0 L 6.96875 -51.953125 L 40.9375 -51.953125 L 39.703125 -43.1875 Z M 19.265625 -43.1875 "/></g></g></g><g fill="#001140" fill-opacity="1"><g transform="translate(1004.293826, 716.362946)"><g><path d="M 19.265625 -43.1875 L 19.265625 -30.703125 L 37.265625 -30.703125 L 37.265625 -22.078125 L 19.265625 -22.078125 L 19.265625 -8.8125 L 40.96875 -8.8125 L 40.96875 0 L 6.96875 0 L 6.96875 -51.953125 L 40.9375 -51.953125 L 39.703125 -43.1875 Z M 19.265625 -43.1875 "/></g></g></g><g fill="#001140" fill-opacity="1"><g transform="translate(1053.022122, 716.362946)"><g><path d="M 30.328125 -26.234375 C 30.328125 -29.734375 30.03125 -32.582031 29.4375 -34.78125 C 28.851562 -36.976562 28.039062 -38.675781 27 -39.875 C 25.96875 -41.082031 24.75 -41.910156 23.34375 -42.359375 C 21.945312 -42.804688 20.4375 -43.03125 18.8125 -43.03125 L 16.1875 -43.03125 L 16.1875 -8.890625 L 18.8125 -8.890625 C 20.507812 -8.890625 22.066406 -9.15625 23.484375 -9.6875 C 24.898438 -10.226562 26.117188 -11.140625 27.140625 -12.421875 C 28.160156 -13.710938 28.945312 -15.484375 29.5 -17.734375 C 30.050781 -19.984375 30.328125 -22.816406 30.328125 -26.234375 Z M 43.0625 -26.234375 C 43.0625 -20.960938 42.367188 -16.613281 40.984375 -13.1875 C 39.597656 -9.769531 37.71875 -7.101562 35.34375 -5.1875 C 32.96875 -3.28125 30.273438 -1.9375 27.265625 -1.15625 C 24.253906 -0.382812 21.140625 0 17.921875 0 L 3.890625 0 L 3.890625 -51.953125 L 17.015625 -51.953125 C 20.335938 -51.953125 23.554688 -51.609375 26.671875 -50.921875 C 29.785156 -50.234375 32.570312 -48.96875 35.03125 -47.125 C 37.488281 -45.289062 39.441406 -42.691406 40.890625 -39.328125 C 42.335938 -35.972656 43.0625 -31.609375 43.0625 -26.234375 Z M 43.0625 -26.234375 "/></g></g></g><g fill="#001140" fill-opacity="1"><g transform="translate(1129.603387, 716.362946)"><g><path d="M 6.96875 0 L 6.96875 -51.953125 L 19.265625 -51.953125 L 19.265625 -9.703125 L 41.796875 -9.703125 L 40.515625 0 Z M 6.96875 0 "/></g></g></g><g fill="#001140" fill-opacity="1"><g transform="translate(1178.331682, 716.362946)"><g><path d="M 29.984375 -11.203125 L 14.765625 -11.203125 L 12.03125 0 L -0.828125 0 L 15.0625 -51.953125 L 29.984375 -51.953125 L 45.875 0 L 32.71875 0 Z M 16.71875 -20.125 L 27.96875 -20.125 L 22.34375 -43.109375 Z M 16.71875 -20.125 "/></g></g></g><g fill="#001140" fill-opacity="1"><g transform="translate(1227.059978, 716.362946)"><g><path d="M 26.171875 0 L 12.484375 -41.796875 C 12.660156 -40.671875 12.851562 -39.3125 13.0625 -37.71875 C 13.269531 -36.132812 13.472656 -34.375 13.671875 -32.4375 C 13.878906 -30.5 14.046875 -28.441406 14.171875 -26.265625 C 14.296875 -24.097656 14.359375 -21.878906 14.359375 -19.609375 L 14.359375 0 L 3.890625 0 L 3.890625 -51.953125 L 19.234375 -51.953125 L 32.5 -10.390625 C 32.226562 -11.960938 31.945312 -13.835938 31.65625 -16.015625 C 31.363281 -18.203125 31.117188 -20.644531 30.921875 -23.34375 C 30.722656 -26.050781 30.625 -28.953125 30.625 -32.046875 L 30.625 -51.953125 L 41.078125 -51.953125 L 41.078125 0 Z M 26.171875 0 "/></g></g></g><g fill="#001140" fill-opacity="1"><g transform="translate(1275.788273, 716.362946)"><g><path d="M 16.71875 0 L 4.421875 0 L 4.421875 -51.953125 L 16.71875 -51.953125 Z M 17.09375 -27.734375 L 31.296875 -51.953125 L 44.1875 -51.953125 L 29.5 -28.640625 L 45.625 0 L 31.375 0 Z M 17.09375 -27.734375 "/></g></g></g><g fill="#001140" fill-opacity="1"><g transform="translate(1324.516569, 716.362946)"><g><path d="M 29.984375 -11.203125 L 14.765625 -11.203125 L 12.03125 0 L -0.828125 0 L 15.0625 -51.953125 L 29.984375 -51.953125 L 45.875 0 L 32.71875 0 Z M 16.71875 -20.125 L 27.96875 -20.125 L 22.34375 -43.109375 Z M 16.71875 -20.125 "/></g></g></g><g fill="#001140" fill-opacity="1"><g transform="translate(1406.118089, 716.362946)"><g><path d="M 19.53125 -26.234375 C 19.53125 -22.109375 19.96875 -18.378906 20.84375 -15.046875 C 21.71875 -11.710938 23.191406 -8.414062 25.265625 -5.15625 C 27.335938 -1.894531 30.175781 1.679688 33.78125 5.578125 L 26.875 11.8125 C 22.925781 8.40625 19.5 4.816406 16.59375 1.046875 C 13.695312 -2.722656 11.460938 -6.84375 9.890625 -11.3125 C 8.316406 -15.789062 7.53125 -20.765625 7.53125 -26.234375 C 7.53125 -31.710938 8.316406 -36.6875 9.890625 -41.15625 C 11.460938 -45.632812 13.695312 -49.757812 16.59375 -53.53125 C 19.5 -57.300781 22.925781 -60.882812 26.875 -64.28125 L 33.78125 -58.0625 C 31.25 -55.3125 29.082031 -52.679688 27.28125 -50.171875 C 25.488281 -47.660156 24.015625 -45.15625 22.859375 -42.65625 C 21.710938 -40.15625 20.867188 -37.566406 20.328125 -34.890625 C 19.796875 -32.222656 19.53125 -29.335938 19.53125 -26.234375 Z M 19.53125 -26.234375 "/></g></g></g><g fill="#001140" fill-opacity="1"><g transform="translate(1454.846385, 716.362946)"><g><path d="M 30.546875 -35.015625 C 30.546875 -36.859375 30.203125 -38.382812 29.515625 -39.59375 C 28.828125 -40.8125 27.789062 -41.710938 26.40625 -42.296875 C 25.019531 -42.890625 23.273438 -43.1875 21.171875 -43.1875 L 16.984375 -43.1875 L 16.984375 -26.203125 L 21.8125 -26.203125 C 23.632812 -26.203125 25.195312 -26.515625 26.5 -27.140625 C 27.800781 -27.765625 28.800781 -28.722656 29.5 -30.015625 C 30.195312 -31.316406 30.546875 -32.984375 30.546875 -35.015625 Z M 43.21875 -35.046875 C 43.21875 -31.023438 42.351562 -27.703125 40.625 -25.078125 C 38.90625 -22.453125 36.492188 -20.492188 33.390625 -19.203125 C 30.296875 -17.921875 26.703125 -17.28125 22.609375 -17.28125 L 16.984375 -17.28125 L 16.984375 0 L 4.6875 0 L 4.6875 -51.953125 L 21.03125 -51.953125 C 28.070312 -51.953125 33.53125 -50.550781 37.40625 -47.75 C 41.28125 -44.957031 43.21875 -40.722656 43.21875 -35.046875 Z M 43.21875 -35.046875 "/></g></g></g><g fill="#001140" fill-opacity="1"><g transform="translate(1503.57468, 716.362946)"><g><path d="M 22.71875 -9.59375 L 32.5 -51.953125 L 45.09375 -51.953125 L 30.09375 0 L 14.875 0 L -0.03125 -51.953125 L 13 -51.953125 Z M 22.71875 -9.59375 "/></g></g></g><g fill="#001140" fill-opacity="1"><g transform="translate(1552.302976, 716.362946)"><g><path d="M 28.5625 -42.546875 L 28.5625 0 L 16.265625 0 L 16.265625 -42.546875 L 1.6875 -42.546875 L 1.6875 -51.953125 L 43.75 -51.953125 L 42.46875 -42.546875 Z M 28.5625 -42.546875 "/></g></g></g><g fill="#001140" fill-opacity="1"><g transform="translate(1601.031271, 716.362946)"><g><path d="M 25.453125 -26.234375 C 25.453125 -29.335938 25.179688 -32.222656 24.640625 -34.890625 C 24.109375 -37.566406 23.265625 -40.15625 22.109375 -42.65625 C 20.960938 -45.15625 19.488281 -47.660156 17.6875 -50.171875 C 15.894531 -52.679688 13.734375 -55.3125 11.203125 -58.0625 L 18.109375 -64.28125 C 22.054688 -60.882812 25.476562 -57.300781 28.375 -53.53125 C 31.269531 -49.757812 33.503906 -45.632812 35.078125 -41.15625 C 36.660156 -36.6875 37.453125 -31.710938 37.453125 -26.234375 C 37.453125 -20.765625 36.660156 -15.789062 35.078125 -11.3125 C 33.503906 -6.84375 31.269531 -2.722656 28.375 1.046875 C 25.476562 4.816406 22.054688 8.40625 18.109375 11.8125 L 11.203125 5.578125 C 14.804688 1.679688 17.644531 -1.894531 19.71875 -5.15625 C 21.789062 -8.414062 23.265625 -11.710938 24.140625 -15.046875 C 25.015625 -18.378906 25.453125 -22.109375 25.453125 -26.234375 Z M 25.453125 -26.234375 "/></g></g></g><g fill="#001140" fill-opacity="1"><g transform="translate(1649.759567, 716.362946)"><g><path d="M 6.96875 0 L 6.96875 -51.953125 L 19.265625 -51.953125 L 19.265625 -9.703125 L 41.796875 -9.703125 L 40.515625 0 Z M 6.96875 0 "/></g></g></g><g fill="#001140" fill-opacity="1"><g transform="translate(1698.487862, 716.362946)"><g><path d="M 28.5625 -42.546875 L 28.5625 0 L 16.265625 0 L 16.265625 -42.546875 L 1.6875 -42.546875 L 1.6875 -51.953125 L 43.75 -51.953125 L 42.46875 -42.546875 Z M 28.5625 -42.546875 "/></g></g></g><g fill="#001140" fill-opacity="1"><g transform="translate(1747.216157, 716.362946)"><g><path d="M 30.328125 -26.234375 C 30.328125 -29.734375 30.03125 -32.582031 29.4375 -34.78125 C 28.851562 -36.976562 28.039062 -38.675781 27 -39.875 C 25.96875 -41.082031 24.75 -41.910156 23.34375 -42.359375 C 21.945312 -42.804688 20.4375 -43.03125 18.8125 -43.03125 L 16.1875 -43.03125 L 16.1875 -8.890625 L 18.8125 -8.890625 C 20.507812 -8.890625 22.066406 -9.15625 23.484375 -9.6875 C 24.898438 -10.226562 26.117188 -11.140625 27.140625 -12.421875 C 28.160156 -13.710938 28.945312 -15.484375 29.5 -17.734375 C 30.050781 -19.984375 30.328125 -22.816406 30.328125 -26.234375 Z M 43.0625 -26.234375 C 43.0625 -20.960938 42.367188 -16.613281 40.984375 -13.1875 C 39.597656 -9.769531 37.71875 -7.101562 35.34375 -5.1875 C 32.96875 -3.28125 30.273438 -1.9375 27.265625 -1.15625 C 24.253906 -0.382812 21.140625 0 17.921875 0 L 3.890625 0 L 3.890625 -51.953125 L 17.015625 -51.953125 C 20.335938 -51.953125 23.554688 -51.609375 26.671875 -50.921875 C 29.785156 -50.234375 32.570312 -48.96875 35.03125 -47.125 C 37.488281 -45.289062 39.441406 -42.691406 40.890625 -39.328125 C 42.335938 -35.972656 43.0625 -31.609375 43.0625 -26.234375 Z M 43.0625 -26.234375 "/></g></g></g><g fill="#001140" fill-opacity="1"><g transform="translate(1795.944453, 716.362946)"><g><path d="M 14.125 -7.078125 C 14.125 -8.609375 14.5 -10.003906 15.25 -11.265625 C 16 -12.523438 17.007812 -13.535156 18.28125 -14.296875 C 19.5625 -15.054688 20.960938 -15.4375 22.484375 -15.4375 C 24.035156 -15.4375 25.441406 -15.054688 26.703125 -14.296875 C 27.960938 -13.535156 28.96875 -12.523438 29.71875 -11.265625 C 30.46875 -10.003906 30.84375 -8.609375 30.84375 -7.078125 C 30.84375 -5.578125 30.46875 -4.191406 29.71875 -2.921875 C 28.96875 -1.648438 27.960938 -0.632812 26.703125 0.125 C 25.441406 0.894531 24.035156 1.28125 22.484375 1.28125 C 20.960938 1.28125 19.5625 0.894531 18.28125 0.125 C 17.007812 -0.632812 16 -1.648438 15.25 -2.921875 C 14.5 -4.191406 14.125 -5.578125 14.125 -7.078125 Z M 14.125 -7.078125 "/></g></g></g><g fill="#5ce1e6" fill-opacity="1"><g transform="translate(720.615504, 793.714501)"><g><path d="M 23.96875 0 L 9.25 -36.734375 C 9.269531 -36.265625 9.316406 -35.488281 9.390625 -34.40625 C 9.460938 -33.332031 9.539062 -32.050781 9.625 -30.5625 C 9.71875 -29.070312 9.796875 -27.5 9.859375 -25.84375 C 9.921875 -24.1875 9.953125 -22.550781 9.953125 -20.9375 L 9.953125 0 L 5.0625 0 L 5.0625 -41.765625 L 12.1875 -41.765625 L 27.15625 -4.890625 C 27.132812 -5.472656 27.0625 -6.546875 26.9375 -8.109375 C 26.8125 -9.679688 26.695312 -11.578125 26.59375 -13.796875 C 26.5 -16.023438 26.453125 -18.382812 26.453125 -20.875 L 26.453125 -41.765625 L 31.34375 -41.765625 L 31.34375 0 Z M 23.96875 0 "/></g></g></g><g fill="#5ce1e6" fill-opacity="1"><g transform="translate(767.094837, 793.714501)"><g><path d="M 11.1875 -31.9375 L 11.1875 -9.3125 C 11.1875 -7.207031 11.617188 -5.691406 12.484375 -4.765625 C 13.359375 -3.835938 14.71875 -3.375 16.5625 -3.375 C 18.320312 -3.375 19.984375 -3.875 21.546875 -4.875 C 23.117188 -5.875 24.335938 -7.0625 25.203125 -8.4375 L 25.203125 -31.9375 L 30.3125 -31.9375 L 30.3125 0 L 25.96875 0 L 25.546875 -4.3125 C 24.285156 -2.6875 22.734375 -1.441406 20.890625 -0.578125 C 19.054688 0.273438 17.195312 0.703125 15.3125 0.703125 C 12.21875 0.703125 9.90625 -0.117188 8.375 -1.765625 C 6.851562 -3.421875 6.09375 -5.734375 6.09375 -8.703125 L 6.09375 -31.9375 Z M 11.1875 -31.9375 "/></g></g></g><g fill="#5ce1e6" fill-opacity="1"><g transform="translate(813.57417, 793.714501)"><g><path d="M 6.40625 0 L 6.40625 -3.90625 L 11.375 -3.90625 L 11.375 -28.03125 L 6.40625 -28.03125 L 6.40625 -31.9375 L 15.265625 -31.9375 L 16.203125 -24.390625 C 17.429688 -27.015625 18.925781 -29.046875 20.6875 -30.484375 C 22.445312 -31.921875 24.773438 -32.640625 27.671875 -32.640625 C 28.554688 -32.640625 29.347656 -32.570312 30.046875 -32.4375 C 30.742188 -32.3125 31.457031 -32.144531 32.1875 -31.9375 L 30.703125 -27.390625 C 30.035156 -27.578125 29.425781 -27.710938 28.875 -27.796875 C 28.332031 -27.890625 27.707031 -27.9375 27 -27.9375 C 24.550781 -27.9375 22.445312 -27.066406 20.6875 -25.328125 C 18.925781 -23.585938 17.519531 -20.957031 16.46875 -17.4375 L 16.46875 -3.90625 L 22.96875 -3.90625 L 22.96875 0 Z M 27.265625 -21.140625 L 27.265625 -28.09375 L 27.78125 -31.9375 L 32.1875 -31.9375 L 31.453125 -21.140625 Z M 27.265625 -21.140625 "/></g></g></g><g fill="#5ce1e6" fill-opacity="1"><g transform="translate(860.053504, 793.714501)"><g><path d="M 31.453125 -1.609375 C 30.359375 -0.878906 29.035156 -0.3125 27.484375 0.09375 C 25.929688 0.5 24.40625 0.703125 22.90625 0.703125 C 19.46875 0.703125 16.816406 -0.195312 14.953125 -2 C 13.097656 -3.800781 12.171875 -6.117188 12.171875 -8.953125 L 12.171875 -28 L 4.828125 -28 L 4.828125 -31.9375 L 12.171875 -31.9375 L 12.171875 -39.1875 L 17.265625 -39.796875 L 17.265625 -31.9375 L 28.296875 -31.9375 L 27.703125 -28 L 17.265625 -28 L 17.265625 -9.015625 C 17.265625 -7.234375 17.734375 -5.875 18.671875 -4.9375 C 19.609375 -4.007812 21.171875 -3.546875 23.359375 -3.546875 C 24.554688 -3.546875 25.660156 -3.6875 26.671875 -3.96875 C 27.679688 -4.257812 28.617188 -4.625 29.484375 -5.0625 Z M 31.453125 -1.609375 "/></g></g></g><g fill="#5ce1e6" fill-opacity="1"><g transform="translate(906.532834, 793.714501)"><g><path d="M 11.1875 -31.9375 L 11.1875 -9.3125 C 11.1875 -7.207031 11.617188 -5.691406 12.484375 -4.765625 C 13.359375 -3.835938 14.71875 -3.375 16.5625 -3.375 C 18.320312 -3.375 19.984375 -3.875 21.546875 -4.875 C 23.117188 -5.875 24.335938 -7.0625 25.203125 -8.4375 L 25.203125 -31.9375 L 30.3125 -31.9375 L 30.3125 0 L 25.96875 0 L 25.546875 -4.3125 C 24.285156 -2.6875 22.734375 -1.441406 20.890625 -0.578125 C 19.054688 0.273438 17.195312 0.703125 15.3125 0.703125 C 12.21875 0.703125 9.90625 -0.117188 8.375 -1.765625 C 6.851562 -3.421875 6.09375 -5.734375 6.09375 -8.703125 L 6.09375 -31.9375 Z M 11.1875 -31.9375 "/></g></g></g><g fill="#5ce1e6" fill-opacity="1"><g transform="translate(953.012163, 793.714501)"><g><path d="M 6.40625 0 L 6.40625 -3.90625 L 11.375 -3.90625 L 11.375 -28.03125 L 6.40625 -28.03125 L 6.40625 -31.9375 L 15.265625 -31.9375 L 16.203125 -24.390625 C 17.429688 -27.015625 18.925781 -29.046875 20.6875 -30.484375 C 22.445312 -31.921875 24.773438 -32.640625 27.671875 -32.640625 C 28.554688 -32.640625 29.347656 -32.570312 30.046875 -32.4375 C 30.742188 -32.3125 31.457031 -32.144531 32.1875 -31.9375 L 30.703125 -27.390625 C 30.035156 -27.578125 29.425781 -27.710938 28.875 -27.796875 C 28.332031 -27.890625 27.707031 -27.9375 27 -27.9375 C 24.550781 -27.9375 22.445312 -27.066406 20.6875 -25.328125 C 18.925781 -23.585938 17.519531 -20.957031 16.46875 -17.4375 L 16.46875 -3.90625 L 22.96875 -3.90625 L 22.96875 0 Z M 27.265625 -21.140625 L 27.265625 -28.09375 L 27.78125 -31.9375 L 32.1875 -31.9375 L 31.453125 -21.140625 Z M 27.265625 -21.140625 "/></g></g></g><g fill="#5ce1e6" fill-opacity="1"><g transform="translate(999.491504, 793.714501)"><g><path d="M 22.265625 -31.9375 L 22.265625 -4.03125 L 31.28125 -4.03125 L 31.28125 0 L 7.3125 0 L 7.3125 -4.03125 L 17.171875 -4.03125 L 17.171875 -27.90625 L 7.609375 -27.90625 L 7.609375 -31.9375 Z M 18.203125 -46.90625 C 19.335938 -46.90625 20.242188 -46.5625 20.921875 -45.875 C 21.597656 -45.1875 21.9375 -44.34375 21.9375 -43.34375 C 21.9375 -42.3125 21.597656 -41.445312 20.921875 -40.75 C 20.242188 -40.050781 19.335938 -39.703125 18.203125 -39.703125 C 17.128906 -39.703125 16.25 -40.050781 15.5625 -40.75 C 14.875 -41.445312 14.53125 -42.3125 14.53125 -43.34375 C 14.53125 -44.34375 14.875 -45.1875 15.5625 -45.875 C 16.25 -46.5625 17.128906 -46.90625 18.203125 -46.90625 Z M 18.203125 -46.90625 "/></g></g></g><g fill="#5ce1e6" fill-opacity="1"><g transform="translate(1045.970845, 793.714501)"><g><path d="M 6.09375 0 L 6.09375 -31.9375 L 10.4375 -31.9375 L 10.828125 -27.515625 C 12.117188 -29.148438 13.738281 -30.40625 15.6875 -31.28125 C 17.644531 -32.164062 19.546875 -32.609375 21.390625 -32.609375 C 24.523438 -32.609375 26.800781 -31.78125 28.21875 -30.125 C 29.644531 -28.46875 30.359375 -26.160156 30.359375 -23.203125 L 30.359375 0 L 25.265625 0 L 25.265625 -19.453125 C 25.265625 -21.628906 25.144531 -23.390625 24.90625 -24.734375 C 24.664062 -26.078125 24.160156 -27.054688 23.390625 -27.671875 C 22.617188 -28.296875 21.425781 -28.609375 19.8125 -28.609375 C 18.550781 -28.609375 17.367188 -28.332031 16.265625 -27.78125 C 15.171875 -27.238281 14.191406 -26.554688 13.328125 -25.734375 C 12.472656 -24.921875 11.757812 -24.097656 11.1875 -23.265625 L 11.1875 0 Z M 6.09375 0 "/></g></g></g><g fill="#5ce1e6" fill-opacity="1"><g transform="translate(1092.450186, 793.714501)"><g><path d="M 32.0625 -35.34375 L 33.640625 -30.546875 C 32.285156 -30.117188 30.835938 -29.851562 29.296875 -29.75 C 27.765625 -29.65625 26.097656 -29.609375 24.296875 -29.609375 C 26.140625 -28.753906 27.523438 -27.65625 28.453125 -26.3125 C 29.378906 -24.96875 29.84375 -23.382812 29.84375 -21.5625 C 29.84375 -19.457031 29.367188 -17.585938 28.421875 -15.953125 C 27.472656 -14.316406 26.101562 -13.03125 24.3125 -12.09375 C 22.519531 -11.164062 20.363281 -10.703125 17.84375 -10.703125 C 16.769531 -10.703125 15.875 -10.753906 15.15625 -10.859375 C 14.4375 -10.960938 13.742188 -11.113281 13.078125 -11.3125 C 12.585938 -10.988281 12.1875 -10.539062 11.875 -9.96875 C 11.5625 -9.40625 11.40625 -8.820312 11.40625 -8.21875 C 11.40625 -7.445312 11.707031 -6.804688 12.3125 -6.296875 C 12.914062 -5.796875 14.039062 -5.546875 15.6875 -5.546875 L 21.453125 -5.546875 C 23.585938 -5.546875 25.507812 -5.160156 27.21875 -4.390625 C 28.9375 -3.628906 30.285156 -2.597656 31.265625 -1.296875 C 32.242188 -0.00390625 32.734375 1.46875 32.734375 3.125 C 32.734375 6.257812 31.398438 8.664062 28.734375 10.34375 C 26.078125 12.019531 22.320312 12.859375 17.46875 12.859375 C 14.070312 12.859375 11.390625 12.507812 9.421875 11.8125 C 7.460938 11.113281 6.0625 10.050781 5.21875 8.625 C 4.382812 7.195312 3.96875 5.40625 3.96875 3.25 L 8.578125 3.25 C 8.578125 4.476562 8.820312 5.492188 9.3125 6.296875 C 9.800781 7.109375 10.679688 7.710938 11.953125 8.109375 C 13.222656 8.503906 15.050781 8.703125 17.4375 8.703125 C 19.789062 8.703125 21.707031 8.503906 23.1875 8.109375 C 24.675781 7.710938 25.78125 7.125 26.5 6.34375 C 27.21875 5.570312 27.578125 4.609375 27.578125 3.453125 C 27.578125 1.941406 26.890625 0.800781 25.515625 0.03125 C 24.140625 -0.738281 22.421875 -1.125 20.359375 -1.125 L 14.65625 -1.125 C 11.90625 -1.125 9.875 -1.726562 8.5625 -2.9375 C 7.257812 -4.15625 6.609375 -5.550781 6.609375 -7.125 C 6.609375 -8.15625 6.90625 -9.15625 7.5 -10.125 C 8.101562 -11.101562 8.976562 -11.960938 10.125 -12.703125 C 8.289062 -13.679688 6.9375 -14.882812 6.0625 -16.3125 C 5.195312 -17.75 4.765625 -19.488281 4.765625 -21.53125 C 4.765625 -23.695312 5.300781 -25.613281 6.375 -27.28125 C 7.445312 -28.957031 8.941406 -30.269531 10.859375 -31.21875 C 12.773438 -32.164062 14.988281 -32.640625 17.5 -32.640625 C 20.1875 -32.660156 22.367188 -32.773438 24.046875 -32.984375 C 25.734375 -33.203125 27.175781 -33.507812 28.375 -33.90625 C 29.582031 -34.3125 30.8125 -34.789062 32.0625 -35.34375 Z M 17.5 -28.90625 C 14.9375 -28.90625 13.039062 -28.210938 11.8125 -26.828125 C 10.59375 -25.441406 9.984375 -23.675781 9.984375 -21.53125 C 9.984375 -19.375 10.609375 -17.597656 11.859375 -16.203125 C 13.109375 -14.804688 15.03125 -14.109375 17.625 -14.109375 C 19.882812 -14.109375 21.609375 -14.765625 22.796875 -16.078125 C 23.984375 -17.390625 24.578125 -19.21875 24.578125 -21.5625 C 24.578125 -23.96875 23.984375 -25.789062 22.796875 -27.03125 C 21.609375 -28.28125 19.84375 -28.90625 17.5 -28.90625 Z M 17.5 -28.90625 "/></g></g></g><g fill="#5ce1e6" fill-opacity="1"><g transform="translate(1138.929527, 793.714501)"><g/></g></g><g fill="#5ce1e6" fill-opacity="1"><g transform="translate(1185.408868, 793.714501)"><g><path d="M 27.90625 -21.078125 C 27.90625 -24.722656 27.519531 -27.632812 26.75 -29.8125 C 25.988281 -32 24.976562 -33.640625 23.71875 -34.734375 C 22.46875 -35.828125 21.097656 -36.554688 19.609375 -36.921875 C 18.117188 -37.285156 16.660156 -37.46875 15.234375 -37.46875 L 10.3125 -37.46875 L 10.3125 -4.21875 L 15.296875 -4.21875 C 16.785156 -4.21875 18.273438 -4.453125 19.765625 -4.921875 C 21.253906 -5.398438 22.613281 -6.25 23.84375 -7.46875 C 25.070312 -8.695312 26.054688 -10.40625 26.796875 -12.59375 C 27.535156 -14.789062 27.90625 -17.617188 27.90625 -21.078125 Z M 33.515625 -21.078125 C 33.515625 -16.710938 32.945312 -13.148438 31.8125 -10.390625 C 30.6875 -7.628906 29.191406 -5.492188 27.328125 -3.984375 C 25.472656 -2.484375 23.4375 -1.441406 21.21875 -0.859375 C 19 -0.285156 16.8125 0 14.65625 0 L 5.0625 0 L 5.0625 -41.765625 L 13.984375 -41.765625 C 16.429688 -41.765625 18.8125 -41.492188 21.125 -40.953125 C 23.445312 -40.410156 25.539062 -39.40625 27.40625 -37.9375 C 29.28125 -36.46875 30.765625 -34.378906 31.859375 -31.671875 C 32.960938 -28.960938 33.515625 -25.429688 33.515625 -21.078125 Z M 33.515625 -21.078125 "/></g></g></g><g fill="#5ce1e6" fill-opacity="1"><g transform="translate(1231.888208, 793.714501)"><g><path d="M 22.265625 -31.9375 L 22.265625 -4.03125 L 31.28125 -4.03125 L 31.28125 0 L 7.3125 0 L 7.3125 -4.03125 L 17.171875 -4.03125 L 17.171875 -27.90625 L 7.609375 -27.90625 L 7.609375 -31.9375 Z M 18.203125 -46.90625 C 19.335938 -46.90625 20.242188 -46.5625 20.921875 -45.875 C 21.597656 -45.1875 21.9375 -44.34375 21.9375 -43.34375 C 21.9375 -42.3125 21.597656 -41.445312 20.921875 -40.75 C 20.242188 -40.050781 19.335938 -39.703125 18.203125 -39.703125 C 17.128906 -39.703125 16.25 -40.050781 15.5625 -40.75 C 14.875 -41.445312 14.53125 -42.3125 14.53125 -43.34375 C 14.53125 -44.34375 14.875 -45.1875 15.5625 -45.875 C 16.25 -46.5625 17.128906 -46.90625 18.203125 -46.90625 Z M 18.203125 -46.90625 "/></g></g></g><g fill="#5ce1e6" fill-opacity="1"><g transform="translate(1278.367549, 793.714501)"><g><path d="M 32.0625 -35.34375 L 33.640625 -30.546875 C 32.285156 -30.117188 30.835938 -29.851562 29.296875 -29.75 C 27.765625 -29.65625 26.097656 -29.609375 24.296875 -29.609375 C 26.140625 -28.753906 27.523438 -27.65625 28.453125 -26.3125 C 29.378906 -24.96875 29.84375 -23.382812 29.84375 -21.5625 C 29.84375 -19.457031 29.367188 -17.585938 28.421875 -15.953125 C 27.472656 -14.316406 26.101562 -13.03125 24.3125 -12.09375 C 22.519531 -11.164062 20.363281 -10.703125 17.84375 -10.703125 C 16.769531 -10.703125 15.875 -10.753906 15.15625 -10.859375 C 14.4375 -10.960938 13.742188 -11.113281 13.078125 -11.3125 C 12.585938 -10.988281 12.1875 -10.539062 11.875 -9.96875 C 11.5625 -9.40625 11.40625 -8.820312 11.40625 -8.21875 C 11.40625 -7.445312 11.707031 -6.804688 12.3125 -6.296875 C 12.914062 -5.796875 14.039062 -5.546875 15.6875 -5.546875 L 21.453125 -5.546875 C 23.585938 -5.546875 25.507812 -5.160156 27.21875 -4.390625 C 28.9375 -3.628906 30.285156 -2.597656 31.265625 -1.296875 C 32.242188 -0.00390625 32.734375 1.46875 32.734375 3.125 C 32.734375 6.257812 31.398438 8.664062 28.734375 10.34375 C 26.078125 12.019531 22.320312 12.859375 17.46875 12.859375 C 14.070312 12.859375 11.390625 12.507812 9.421875 11.8125 C 7.460938 11.113281 6.0625 10.050781 5.21875 8.625 C 4.382812 7.195312 3.96875 5.40625 3.96875 3.25 L 8.578125 3.25 C 8.578125 4.476562 8.820312 5.492188 9.3125 6.296875 C 9.800781 7.109375 10.679688 7.710938 11.953125 8.109375 C 13.222656 8.503906 15.050781 8.703125 17.4375 8.703125 C 19.789062 8.703125 21.707031 8.503906 23.1875 8.109375 C 24.675781 7.710938 25.78125 7.125 26.5 6.34375 C 27.21875 5.570312 27.578125 4.609375 27.578125 3.453125 C 27.578125 1.941406 26.890625 0.800781 25.515625 0.03125 C 24.140625 -0.738281 22.421875 -1.125 20.359375 -1.125 L 14.65625 -1.125 C 11.90625 -1.125 9.875 -1.726562 8.5625 -2.9375 C 7.257812 -4.15625 6.609375 -5.550781 6.609375 -7.125 C 6.609375 -8.15625 6.90625 -9.15625 7.5 -10.125 C 8.101562 -11.101562 8.976562 -11.960938 10.125 -12.703125 C 8.289062 -13.679688 6.9375 -14.882812 6.0625 -16.3125 C 5.195312 -17.75 4.765625 -19.488281 4.765625 -21.53125 C 4.765625 -23.695312 5.300781 -25.613281 6.375 -27.28125 C 7.445312 -28.957031 8.941406 -30.269531 10.859375 -31.21875 C 12.773438 -32.164062 14.988281 -32.640625 17.5 -32.640625 C 20.1875 -32.660156 22.367188 -32.773438 24.046875 -32.984375 C 25.734375 -33.203125 27.175781 -33.507812 28.375 -33.90625 C 29.582031 -34.3125 30.8125 -34.789062 32.0625 -35.34375 Z M 17.5 -28.90625 C 14.9375 -28.90625 13.039062 -28.210938 11.8125 -26.828125 C 10.59375 -25.441406 9.984375 -23.675781 9.984375 -21.53125 C 9.984375 -19.375 10.609375 -17.597656 11.859375 -16.203125 C 13.109375 -14.804688 15.03125 -14.109375 17.625 -14.109375 C 19.882812 -14.109375 21.609375 -14.765625 22.796875 -16.078125 C 23.984375 -17.390625 24.578125 -19.21875 24.578125 -21.5625 C 24.578125 -23.96875 23.984375 -25.789062 22.796875 -27.03125 C 21.609375 -28.28125 19.84375 -28.90625 17.5 -28.90625 Z M 17.5 -28.90625 "/></g></g></g><g fill="#5ce1e6" fill-opacity="1"><g transform="translate(1324.84689, 793.714501)"><g><path d="M 22.265625 -31.9375 L 22.265625 -4.03125 L 31.28125 -4.03125 L 31.28125 0 L 7.3125 0 L 7.3125 -4.03125 L 17.171875 -4.03125 L 17.171875 -27.90625 L 7.609375 -27.90625 L 7.609375 -31.9375 Z M 18.203125 -46.90625 C 19.335938 -46.90625 20.242188 -46.5625 20.921875 -45.875 C 21.597656 -45.1875 21.9375 -44.34375 21.9375 -43.34375 C 21.9375 -42.3125 21.597656 -41.445312 20.921875 -40.75 C 20.242188 -40.050781 19.335938 -39.703125 18.203125 -39.703125 C 17.128906 -39.703125 16.25 -40.050781 15.5625 -40.75 C 14.875 -41.445312 14.53125 -42.3125 14.53125 -43.34375 C 14.53125 -44.34375 14.875 -45.1875 15.5625 -45.875 C 16.25 -46.5625 17.128906 -46.90625 18.203125 -46.90625 Z M 18.203125 -46.90625 "/></g></g></g><g fill="#5ce1e6" fill-opacity="1"><g transform="translate(1371.326231, 793.714501)"><g><path d="M 31.453125 -1.609375 C 30.359375 -0.878906 29.035156 -0.3125 27.484375 0.09375 C 25.929688 0.5 24.40625 0.703125 22.90625 0.703125 C 19.46875 0.703125 16.816406 -0.195312 14.953125 -2 C 13.097656 -3.800781 12.171875 -6.117188 12.171875 -8.953125 L 12.171875 -28 L 4.828125 -28 L 4.828125 -31.9375 L 12.171875 -31.9375 L 12.171875 -39.1875 L 17.265625 -39.796875 L 17.265625 -31.9375 L 28.296875 -31.9375 L 27.703125 -28 L 17.265625 -28 L 17.265625 -9.015625 C 17.265625 -7.234375 17.734375 -5.875 18.671875 -4.9375 C 19.609375 -4.007812 21.171875 -3.546875 23.359375 -3.546875 C 24.554688 -3.546875 25.660156 -3.6875 26.671875 -3.96875 C 27.679688 -4.257812 28.617188 -4.625 29.484375 -5.0625 Z M 31.453125 -1.609375 "/></g></g></g><g fill="#5ce1e6" fill-opacity="1"><g transform="translate(1417.805572, 793.714501)"><g><path d="M 28.96875 -6.984375 C 28.96875 -5.703125 29.179688 -4.769531 29.609375 -4.1875 C 30.035156 -3.601562 30.691406 -3.164062 31.578125 -2.875 L 30.328125 0.703125 C 28.953125 0.515625 27.75 0.0703125 26.71875 -0.625 C 25.6875 -1.320312 24.941406 -2.378906 24.484375 -3.796875 C 23.328125 -2.316406 21.890625 -1.195312 20.171875 -0.4375 C 18.453125 0.320312 16.550781 0.703125 14.46875 0.703125 C 11.269531 0.703125 8.75 -0.195312 6.90625 -2 C 5.070312 -3.800781 4.15625 -6.1875 4.15625 -9.15625 C 4.15625 -12.457031 5.4375 -14.988281 8 -16.75 C 10.570312 -18.507812 14.285156 -19.390625 19.140625 -19.390625 L 23.84375 -19.390625 L 23.84375 -22.046875 C 23.84375 -24.359375 23.171875 -25.992188 21.828125 -26.953125 C 20.484375 -27.910156 18.617188 -28.390625 16.234375 -28.390625 C 15.179688 -28.390625 13.945312 -28.265625 12.53125 -28.015625 C 11.113281 -27.765625 9.578125 -27.34375 7.921875 -26.75 L 6.578125 -30.609375 C 8.546875 -31.335938 10.390625 -31.851562 12.109375 -32.15625 C 13.828125 -32.457031 15.460938 -32.609375 17.015625 -32.609375 C 21.003906 -32.609375 23.992188 -31.679688 25.984375 -29.828125 C 27.972656 -27.984375 28.96875 -25.472656 28.96875 -22.296875 Z M 15.78125 -3.1875 C 17.351562 -3.1875 18.859375 -3.582031 20.296875 -4.375 C 21.734375 -5.175781 22.914062 -6.285156 23.84375 -7.703125 L 23.84375 -15.921875 L 19.234375 -15.921875 C 15.710938 -15.921875 13.226562 -15.3125 11.78125 -14.09375 C 10.332031 -12.882812 9.609375 -11.257812 9.609375 -9.21875 C 9.609375 -7.238281 10.117188 -5.738281 11.140625 -4.71875 C 12.171875 -3.695312 13.71875 -3.1875 15.78125 -3.1875 Z M 15.78125 -3.1875 "/></g></g></g><g fill="#5ce1e6" fill-opacity="1"><g transform="translate(1464.284912, 793.714501)"><g><path d="M 18.53125 -44.8125 L 18.53125 -7.890625 C 18.53125 -6.304688 19.019531 -5.1875 20 -4.53125 C 20.988281 -3.875 22.257812 -3.546875 23.8125 -3.546875 C 24.78125 -3.546875 25.695312 -3.644531 26.5625 -3.84375 C 27.4375 -4.050781 28.3125 -4.328125 29.1875 -4.671875 L 30.546875 -0.9375 C 29.679688 -0.507812 28.601562 -0.128906 27.3125 0.203125 C 26.03125 0.535156 24.582031 0.703125 22.96875 0.703125 C 20.132812 0.703125 17.835938 -0.078125 16.078125 -1.640625 C 14.316406 -3.210938 13.4375 -5.382812 13.4375 -8.15625 L 13.4375 -40.765625 L 3.640625 -40.765625 L 3.640625 -44.8125 Z M 18.53125 -44.8125 "/></g></g></g><g fill="#5ce1e6" fill-opacity="1"><g transform="translate(1510.764207, 793.714501)"><g/></g></g><g fill="#5ce1e6" fill-opacity="1"><g transform="translate(1557.243548, 793.714501)"><g><path d="M 19.015625 0.703125 C 15.722656 0.703125 12.859375 -0.09375 10.421875 -1.6875 C 7.984375 -3.289062 6.097656 -5.691406 4.765625 -8.890625 C 3.429688 -12.085938 2.765625 -16.09375 2.765625 -20.90625 C 2.765625 -24.5 3.242188 -27.640625 4.203125 -30.328125 C 5.160156 -33.023438 6.460938 -35.269531 8.109375 -37.0625 C 9.765625 -38.863281 11.632812 -40.207031 13.71875 -41.09375 C 15.8125 -41.988281 17.984375 -42.4375 20.234375 -42.4375 C 22.960938 -42.4375 25.226562 -42.046875 27.03125 -41.265625 C 28.832031 -40.492188 30.550781 -39.359375 32.1875 -37.859375 L 29 -34.546875 C 27.726562 -35.742188 26.390625 -36.625 24.984375 -37.1875 C 23.578125 -37.757812 22.003906 -38.046875 20.265625 -38.046875 C 18.742188 -38.046875 17.273438 -37.75 15.859375 -37.15625 C 14.441406 -36.570312 13.171875 -35.617188 12.046875 -34.296875 C 10.929688 -32.972656 10.046875 -31.21875 9.390625 -29.03125 C 8.734375 -26.84375 8.40625 -24.132812 8.40625 -20.90625 C 8.40625 -16.875 8.820312 -13.59375 9.65625 -11.0625 C 10.5 -8.539062 11.742188 -6.6875 13.390625 -5.5 C 15.035156 -4.320312 17.070312 -3.734375 19.5 -3.734375 C 20.957031 -3.734375 22.335938 -3.90625 23.640625 -4.25 C 24.953125 -4.59375 26.222656 -5.085938 27.453125 -5.734375 L 27.453125 -18.46875 L 19.234375 -18.46875 L 18.59375 -22.84375 L 32.671875 -22.84375 L 32.671875 -2.9375 C 30.785156 -1.925781 28.78125 -1.066406 26.65625 -0.359375 C 24.539062 0.347656 21.992188 0.703125 19.015625 0.703125 Z M 19.015625 0.703125 "/></g></g></g><g fill="#5ce1e6" fill-opacity="1"><g transform="translate(1603.722889, 793.714501)"><g><path d="M 6.40625 0 L 6.40625 -3.90625 L 11.375 -3.90625 L 11.375 -28.03125 L 6.40625 -28.03125 L 6.40625 -31.9375 L 15.265625 -31.9375 L 16.203125 -24.390625 C 17.429688 -27.015625 18.925781 -29.046875 20.6875 -30.484375 C 22.445312 -31.921875 24.773438 -32.640625 27.671875 -32.640625 C 28.554688 -32.640625 29.347656 -32.570312 30.046875 -32.4375 C 30.742188 -32.3125 31.457031 -32.144531 32.1875 -31.9375 L 30.703125 -27.390625 C 30.035156 -27.578125 29.425781 -27.710938 28.875 -27.796875 C 28.332031 -27.890625 27.707031 -27.9375 27 -27.9375 C 24.550781 -27.9375 22.445312 -27.066406 20.6875 -25.328125 C 18.925781 -23.585938 17.519531 -20.957031 16.46875 -17.4375 L 16.46875 -3.90625 L 22.96875 -3.90625 L 22.96875 0 Z M 27.265625 -21.140625 L 27.265625 -28.09375 L 27.78125 -31.9375 L 32.1875 -31.9375 L 31.453125 -21.140625 Z M 27.265625 -21.140625 "/></g></g></g><g fill="#5ce1e6" fill-opacity="1"><g transform="translate(1650.20223, 793.714501)"><g><path d="M 18.265625 -32.609375 C 21.273438 -32.609375 23.796875 -31.925781 25.828125 -30.5625 C 27.859375 -29.195312 29.382812 -27.269531 30.40625 -24.78125 C 31.425781 -22.289062 31.9375 -19.359375 31.9375 -15.984375 C 31.9375 -12.734375 31.410156 -9.851562 30.359375 -7.34375 C 29.304688 -4.832031 27.765625 -2.863281 25.734375 -1.4375 C 23.703125 -0.0078125 21.191406 0.703125 18.203125 0.703125 C 15.210938 0.703125 12.691406 0.015625 10.640625 -1.359375 C 8.597656 -2.734375 7.054688 -4.671875 6.015625 -7.171875 C 4.972656 -9.671875 4.453125 -12.585938 4.453125 -15.921875 C 4.453125 -19.222656 4.976562 -22.125 6.03125 -24.625 C 7.082031 -27.132812 8.632812 -29.09375 10.6875 -30.5 C 12.738281 -31.90625 15.265625 -32.609375 18.265625 -32.609375 Z M 18.265625 -28.453125 C 15.515625 -28.453125 13.4375 -27.4375 12.03125 -25.40625 C 10.625 -23.375 9.921875 -20.210938 9.921875 -15.921875 C 9.921875 -11.710938 10.613281 -8.585938 12 -6.546875 C 13.382812 -4.503906 15.453125 -3.484375 18.203125 -3.484375 C 20.953125 -3.484375 23.019531 -4.503906 24.40625 -6.546875 C 25.789062 -8.585938 26.484375 -11.734375 26.484375 -15.984375 C 26.484375 -20.234375 25.796875 -23.375 24.421875 -25.40625 C 23.046875 -27.4375 20.992188 -28.453125 18.265625 -28.453125 Z M 18.265625 -28.453125 "/></g></g></g><g fill="#5ce1e6" fill-opacity="1"><g transform="translate(1696.681571, 793.714501)"><g><path d="M 29.765625 0 L 22.546875 0 L 18.40625 -23.453125 L 13.921875 0 L 6.890625 0 L 1.0625 -31.9375 L 6.28125 -31.9375 L 10.34375 -3.15625 L 15.4375 -27.875 L 21.484375 -27.875 L 26.296875 -3.15625 L 30.359375 -31.9375 L 35.34375 -31.9375 Z M 29.765625 0 "/></g></g></g><g fill="#5ce1e6" fill-opacity="1"><g transform="translate(1743.160911, 793.714501)"><g><path d="M 31.453125 -1.609375 C 30.359375 -0.878906 29.035156 -0.3125 27.484375 0.09375 C 25.929688 0.5 24.40625 0.703125 22.90625 0.703125 C 19.46875 0.703125 16.816406 -0.195312 14.953125 -2 C 13.097656 -3.800781 12.171875 -6.117188 12.171875 -8.953125 L 12.171875 -28 L 4.828125 -28 L 4.828125 -31.9375 L 12.171875 -31.9375 L 12.171875 -39.1875 L 17.265625 -39.796875 L 17.265625 -31.9375 L 28.296875 -31.9375 L 27.703125 -28 L 17.265625 -28 L 17.265625 -9.015625 C 17.265625 -7.234375 17.734375 -5.875 18.671875 -4.9375 C 19.609375 -4.007812 21.171875 -3.546875 23.359375 -3.546875 C 24.554688 -3.546875 25.660156 -3.6875 26.671875 -3.96875 C 27.679688 -4.257812 28.617188 -4.625 29.484375 -5.0625 Z M 31.453125 -1.609375 "/></g></g></g><g fill="#5ce1e6" fill-opacity="1"><g transform="translate(1789.640252, 793.714501)"><g><path d="M 11.1875 -45.296875 L 11.1875 -27.578125 C 12.445312 -29.253906 13.988281 -30.507812 15.8125 -31.34375 C 17.644531 -32.1875 19.503906 -32.609375 21.390625 -32.609375 C 24.503906 -32.609375 26.773438 -31.78125 28.203125 -30.125 C 29.640625 -28.46875 30.359375 -26.160156 30.359375 -23.203125 L 30.359375 0 L 25.265625 0 L 25.265625 -23.078125 C 25.265625 -25.003906 24.816406 -26.40625 23.921875 -27.28125 C 23.035156 -28.164062 21.644531 -28.609375 19.75 -28.609375 C 18.53125 -28.609375 17.375 -28.332031 16.28125 -27.78125 C 15.195312 -27.238281 14.21875 -26.5625 13.34375 -25.75 C 12.476562 -24.945312 11.757812 -24.117188 11.1875 -23.265625 L 11.1875 0 L 6.09375 0 L 6.09375 -44.75 Z M 11.1875 -45.296875 "/></g></g></g></svg>