<svg width="1930" height="207" viewBox="0 0 1930 207" fill="none" xmlns="http://www.w3.org/2000/svg">
<g clip-path="url(#clip0_4_3)">
<mask id="mask0_4_3" style="mask-type:luminance" maskUnits="userSpaceOnUse" x="0" y="0" width="1930" height="207">
<path d="M1930 0H0V207H1930V0Z" fill="white"/>
</mask>
<g mask="url(#mask0_4_3)">
<path d="M147.62 153.609C148.245 153.094 148.854 152.562 149.464 152.047L149.922 151.651L150.406 151.219L151.375 150.359C152.089 149.729 152.49 149.328 152.984 148.859L153.875 148.016L154.687 147.208C155.776 146.135 156.818 145.047 157.854 143.958C159.906 141.771 161.885 139.573 163.745 137.354C165.594 135.125 167.375 132.896 169.052 130.661C170.75 128.443 172.365 126.208 173.891 123.99C176.974 119.547 179.786 115.167 182.411 110.865C185.052 106.578 187.479 102.365 189.828 98.2864C194.5 90.1198 198.755 82.4375 202.917 75.3541C207.083 68.2812 211.135 61.7708 215.271 55.9479C223.474 44.25 232.005 35.177 240.089 28.5729C242.104 26.9166 244.062 25.3906 245.979 24.0312C246.922 23.3333 247.865 22.6927 248.771 22.0468C249.682 21.4166 250.583 20.8385 251.448 20.2656C253.198 19.1562 254.844 18.1458 256.38 17.2395C257.141 16.7708 257.885 16.3802 258.594 15.9739C259.297 15.5729 259.974 15.2083 260.62 14.8645C261.906 14.1614 263.047 13.552 264.052 13.0625C265.047 12.5572 265.896 12.1145 266.594 11.7916C267.974 11.1145 268.687 10.7656 268.687 10.7656C268.687 10.7656 267.891 10.7968 266.354 10.8645C265.589 10.901 264.635 10.9583 263.495 11.0677C262.349 11.1666 261.031 11.3125 259.542 11.5C253.604 12.3072 244.76 13.9375 234.062 18.4375C228.729 20.6718 222.979 23.6614 217.036 27.4635C211.089 31.2708 205.052 35.9895 199.047 41.4322C193.073 46.8958 187.141 53.0989 181.375 59.8177C178.469 63.1666 175.625 66.6614 172.75 70.2031C169.906 73.7656 167.042 77.3906 164.182 81.052C152.729 95.6718 141.026 110.943 126.865 122.198L126.021 122.854L125.698 123.094C125.266 123.411 124.844 123.745 124.401 124.057C123.531 124.682 122.646 125.292 121.755 125.885C119.964 127.062 118.125 128.156 116.26 129.182C112.521 131.219 108.594 132.849 104.583 134.109C102.573 134.729 100.536 135.24 98.479 135.641C96.4269 136.047 94.354 136.349 92.2759 136.516C88.1144 136.854 83.9269 136.729 79.8072 136.115C75.6874 135.469 71.6353 134.37 67.7655 132.755C65.8384 131.937 63.9634 130.99 62.1197 129.958C60.2967 128.911 58.5259 127.74 56.8332 126.453C55.1509 125.146 53.5155 123.76 51.9686 122.255C51.2082 121.49 50.4426 120.724 49.729 119.906L49.453 119.599C49.4738 119.63 49.2134 119.323 49.4634 119.63L49.2811 119.406L48.5624 118.531C48.2603 118.135 48.0832 117.932 47.7342 117.453C45.2238 114.115 43.1509 110.37 41.6092 106.302C38.5103 98.1875 37.6092 88.776 39.0207 79.677C40.4009 70.5729 44.2082 61.875 49.7603 55.25C55.3332 48.6093 62.5728 44.1823 70.9634 42.3333C76.828 41.0208 83.3072 41.0416 89.979 42.1614C90.1613 43.4635 90.4165 44.7656 90.7499 46.0677C95.5884 64.8072 114.703 76.0729 133.437 71.2343C152.177 66.3958 163.443 47.2864 158.604 28.5468C153.766 9.80725 134.656 -1.45838 115.917 3.38016C111.151 4.60933 106.87 6.76558 103.214 9.60412C101.76 9.20308 100.302 8.81246 98.8124 8.47391C95.2082 7.61975 91.4999 6.9635 87.6978 6.55204C80.104 5.70829 72.1249 5.81766 64.1613 7.26037C56.1926 8.67704 48.2811 11.4739 41.0936 15.5468C33.8801 19.6041 27.4269 24.9062 22.0103 30.9479C16.5936 37 12.1874 43.776 8.83845 50.9375C5.47386 58.0937 3.10928 65.6093 1.71865 73.276C-1.07301 88.5885 0.0519872 104.609 5.34365 119.516C7.9947 126.958 11.703 134.089 16.3905 140.516C16.9269 141.271 17.6926 142.255 18.3176 143.062L19.0311 143.948L20.0467 145.187C21.2759 146.687 22.5728 148.13 23.9009 149.542C26.5676 152.359 29.4165 155.005 32.4374 157.427C44.5155 167.167 59.1822 173.354 74.0155 175.453C77.7238 175.984 81.4426 176.281 85.1405 176.359C88.8384 176.422 92.5103 176.229 96.1301 175.854C103.38 175.109 110.396 173.443 117.016 171.109C123.646 168.797 129.854 165.75 135.578 162.25C138.448 160.505 141.193 158.63 143.797 156.641C145.099 155.646 146.375 154.641 147.62 153.609Z" fill="#0652E9"/>
<path d="M404.333 70.5677C401.688 63.125 397.974 55.9948 393.281 49.5677C392.75 48.8125 391.984 47.8282 391.359 47.0209L390.646 46.1355L389.625 44.8959C388.401 43.3959 387.099 41.9532 385.776 40.5365C383.109 37.724 380.26 35.0782 377.234 32.6563C365.161 22.9167 350.495 16.7292 335.656 14.6302C331.948 14.099 328.229 13.8021 324.536 13.724C320.839 13.6615 317.167 13.849 313.547 14.2292C306.297 14.974 299.281 16.6407 292.661 18.9688C286.031 21.2813 279.818 24.3334 274.099 27.8334C271.229 29.5782 268.49 31.4532 265.875 33.4375C264.578 34.4375 263.302 35.4427 262.057 36.474C261.427 36.9844 260.823 37.5209 260.208 38.0365L259.755 38.4323L259.266 38.8594L258.302 39.724C257.594 40.3542 257.187 40.7552 256.693 41.224L255.802 42.0677L254.99 42.875C253.901 43.948 252.859 45.0365 251.818 46.125C249.771 48.3125 247.786 50.5052 245.932 52.7292C244.083 54.9584 242.302 57.1927 240.62 59.4219C238.922 61.6459 237.312 63.8698 235.786 66.0938C232.703 70.5365 229.891 74.9167 227.266 79.2188C224.625 83.5104 222.193 87.7188 219.849 91.7969C215.177 99.9636 210.922 107.646 206.76 114.729C202.589 121.802 198.542 128.313 194.401 134.141C186.203 145.839 177.672 154.906 169.589 161.51C167.573 163.167 165.609 164.698 163.698 166.052C162.755 166.75 161.807 167.391 160.906 168.036C159.995 168.667 159.089 169.24 158.229 169.823C156.479 170.922 154.828 171.932 153.297 172.844C152.536 173.313 151.786 173.703 151.083 174.104C150.38 174.51 149.703 174.875 149.052 175.214C147.771 175.922 146.625 176.526 145.625 177.021C144.63 177.526 143.781 177.969 143.083 178.297C141.703 178.969 140.99 179.318 140.99 179.318C140.99 179.318 141.786 179.281 143.323 179.219C144.089 179.182 145.042 179.125 146.182 179.01C147.323 178.922 148.641 178.766 150.135 178.583C156.068 177.776 164.917 176.141 175.609 171.646C180.948 169.411 186.698 166.422 192.641 162.62C198.583 158.813 204.625 154.094 210.625 148.651C216.604 143.182 222.536 136.984 228.302 130.26C231.203 126.922 234.047 123.422 236.922 119.88C239.766 116.318 242.63 112.698 245.495 109.031C256.943 94.4115 268.651 79.1407 282.812 67.8854L283.656 67.2292L283.979 66.9896C284.411 66.6719 284.839 66.3386 285.271 66.0313C286.141 65.4011 287.031 64.7917 287.922 64.1979C289.714 63.0209 291.547 61.9271 293.417 60.9011C297.161 58.8646 301.083 57.2344 305.094 55.974C307.099 55.3542 309.146 54.8438 311.198 54.4427C313.25 54.0365 315.318 53.7344 317.401 53.5677C321.557 53.2292 325.75 53.3542 329.87 53.9636C333.984 54.6094 338.042 55.7136 341.906 57.3282C343.839 58.1459 345.714 59.0886 347.552 60.1198C349.38 61.1719 351.146 62.3438 352.844 63.6302C354.526 64.9323 356.161 66.3177 357.708 67.8282C358.469 68.5938 359.234 69.3646 359.948 70.1823L360.224 70.4844C360.198 70.4532 360.464 70.7657 360.214 70.4532L360.391 70.6771L361.115 71.5521C361.417 71.948 361.594 72.1511 361.943 72.6302C364.448 75.974 366.526 79.7136 368.068 83.7813C371.172 91.9011 372.068 101.307 370.651 110.406C369.271 119.51 365.469 128.208 359.917 134.828C354.344 141.474 347.104 145.901 338.714 147.75C332.849 149.063 326.37 149.036 319.693 147.922C319.51 146.62 319.26 145.318 318.922 144.016C314.083 125.276 294.974 114.01 276.24 118.849C257.5 123.688 246.229 142.802 251.073 161.536C255.911 180.271 275.021 191.542 293.755 186.703C298.521 185.474 302.807 183.318 306.464 180.474C307.911 180.885 309.375 181.266 310.865 181.615C314.464 182.458 318.177 183.12 321.979 183.531C329.568 184.375 337.552 184.266 345.516 182.823C353.484 181.406 361.396 178.609 368.583 174.536C375.797 170.484 382.25 165.177 387.667 159.135C393.083 153.083 397.49 146.302 400.844 139.146C404.203 131.995 406.568 124.474 407.953 116.807C410.75 101.495 409.62 85.474 404.333 70.5677Z" fill="#00ADEF"/>
<path d="M481.315 29.4213V86.1505H464.92V29.4213H445.482V16.8796H501.565L499.857 29.4213H481.315Z" fill="white"/>
<path d="M533.891 28.5671V45.213H557.891V56.713H533.891V74.4005H562.828V86.1505H517.495V16.8796H562.786L561.141 28.5671H533.891Z" fill="white"/>
<path d="M608.966 15.1296C613.924 15.1296 618.143 15.7911 621.632 17.1088C625.117 18.4317 628.304 20.2859 631.195 22.6713L623.153 32.3796C621.247 30.8119 619.143 29.5671 616.841 28.6505C614.549 27.7338 612.054 27.2755 609.362 27.2755C606.455 27.2755 603.804 28.1036 601.403 29.7546C599.013 31.3953 597.096 33.9942 595.653 37.5463C594.221 41.088 593.507 45.6921 593.507 51.3588C593.507 56.9317 594.2 61.4734 595.591 64.9838C596.976 68.4994 598.888 71.0828 601.32 72.7338C603.747 74.3901 606.528 75.213 609.653 75.213C613.122 75.213 616.007 74.5619 618.299 73.2546C620.601 71.9526 622.721 70.5359 624.653 69.0046L632.091 78.5046C629.492 81.0776 626.289 83.2755 622.487 85.1088C618.695 86.9421 614.117 87.8588 608.757 87.8588C602.492 87.8588 596.935 86.4682 592.091 83.6921C587.242 80.9005 583.445 76.7963 580.695 71.3796C577.945 65.963 576.57 59.2911 576.57 51.3588C576.57 43.6401 577.992 37.0776 580.841 31.6713C583.685 26.2703 587.56 22.1661 592.466 19.3588C597.367 16.5411 602.867 15.1296 608.966 15.1296Z" fill="white"/>
<path d="M676.52 86.1505V56.963H659.729V86.1505H643.333V16.8796H659.729V43.463H676.52V16.8796H692.916V86.1505H676.52Z" fill="white"/>
<path d="M759.887 65.9005C759.887 70.2078 758.762 74.0151 756.512 77.3171C754.262 80.6088 751.038 83.1921 746.845 85.0671C742.648 86.9265 737.601 87.8588 731.7 87.8588C725.168 87.8588 719.7 86.9005 715.283 84.9838C710.866 83.0671 707.21 80.6921 704.325 77.8588L712.616 68.6505C715.184 70.8901 718.017 72.6192 721.116 73.838C724.21 75.0463 727.606 75.6505 731.304 75.6505C733.606 75.6505 735.621 75.3171 737.345 74.6505C739.08 73.9838 740.429 73.0203 741.387 71.7546C742.356 70.4942 742.845 68.9578 742.845 67.1505C742.845 65.4578 742.46 64.0255 741.7 62.8588C740.934 61.6921 739.642 60.6453 737.825 59.713C736.002 58.7859 733.481 57.8328 730.262 56.8588C724.856 55.1921 720.512 53.3588 717.22 51.3588C713.939 49.3588 711.559 47.0463 710.075 44.4213C708.601 41.7859 707.866 38.713 707.866 35.213C707.866 30.9942 709.038 27.3796 711.387 24.3796C713.731 21.3796 716.887 19.088 720.845 17.5046C724.814 15.9213 729.184 15.1296 733.95 15.1296C739.309 15.1296 744.038 15.9109 748.137 17.463C752.246 19.0046 755.793 21.2078 758.783 24.0671L751.054 32.963C748.72 31.0046 746.2 29.5567 743.491 28.6088C740.793 27.6505 738.054 27.1713 735.262 27.1713C733.189 27.1713 731.371 27.4369 729.804 27.963C728.231 28.4786 727.017 29.2338 726.158 30.2338C725.293 31.2234 724.866 32.463 724.866 33.963C724.866 35.4369 725.283 36.6713 726.116 37.6713C726.95 38.6713 728.392 39.6192 730.45 40.5046C732.517 41.3796 735.387 42.4005 739.054 43.5671C743.413 44.9005 747.148 46.4942 750.262 48.338C753.387 50.1869 755.767 52.5151 757.408 55.3171C759.059 58.1088 759.887 61.6401 759.887 65.9005Z" fill="white"/>
<path d="M793.775 28.5671V45.213H817.775V56.713H793.775V74.4005H822.712V86.1505H777.379V16.8796H822.671L821.025 28.5671H793.775Z" fill="white"/>
<path d="M858.746 28.5671V45.213H882.746V56.713H858.746V74.4005H887.683V86.1505H842.35V16.8796H887.642L885.996 28.5671H858.746Z" fill="white"/>
<path d="M938.467 51.1713C938.467 46.5046 938.071 42.7078 937.279 39.7755C936.498 36.8484 935.415 34.5828 934.029 32.9838C932.654 31.3744 931.029 30.2703 929.154 29.6713C927.29 29.0776 925.279 28.7755 923.113 28.7755H919.613V74.2963H923.113C925.373 74.2963 927.451 73.9421 929.342 73.2338C931.227 72.5151 932.852 71.2963 934.217 69.588C935.576 67.8692 936.623 65.5046 937.363 62.5046C938.097 59.5046 938.467 55.7286 938.467 51.1713ZM955.446 51.1713C955.446 58.2026 954.519 63.9994 952.675 68.5671C950.826 73.1244 948.321 76.6817 945.154 79.2338C941.988 81.7755 938.394 83.5671 934.384 84.6088C930.368 85.6401 926.217 86.1505 921.925 86.1505H903.217V16.8796H920.717C925.144 16.8796 929.436 17.338 933.592 18.2546C937.743 19.1713 941.457 20.8588 944.738 23.3171C948.014 25.7651 950.618 29.2286 952.55 33.713C954.477 38.1869 955.446 44.0046 955.446 51.1713Z" fill="white"/>
<path d="M1009.43 86.1505V16.8796H1025.83V73.213H1055.87L1054.16 86.1505H1009.43Z" fill="white"/>
<path d="M1105.09 71.213H1084.8L1081.15 86.1505H1064L1085.19 16.8796H1105.09L1126.28 86.1505H1108.73L1105.09 71.213ZM1087.4 59.3171H1102.4L1094.9 28.6713L1087.4 59.3171Z" fill="white"/>
<path d="M1164.98 86.1505L1146.73 30.4213C1146.96 31.9213 1147.22 33.7338 1147.5 35.8588C1147.77 37.9734 1148.04 40.3171 1148.31 42.9005C1148.59 45.4838 1148.81 48.2286 1148.98 51.1296C1149.14 54.0203 1149.23 56.9786 1149.23 60.0046V86.1505H1135.27V16.8796H1155.73L1173.41 72.2963C1173.05 70.2026 1172.67 67.7026 1172.29 64.7963C1171.9 61.8796 1171.57 58.6244 1171.31 55.0255C1171.04 51.4161 1170.91 47.5463 1170.91 43.4213V16.8796H1184.85V86.1505H1164.98Z" fill="white"/>
<path d="M1217.34 86.1505H1200.95V16.8796H1217.34V86.1505ZM1217.84 49.1713L1236.78 16.8796H1253.97L1234.38 47.963L1255.88 86.1505H1236.88L1217.84 49.1713Z" fill="white"/>
<path d="M1300 71.213H1279.71L1276.06 86.1505H1258.92L1280.11 16.8796H1300L1321.19 86.1505H1303.65L1300 71.213ZM1282.31 59.3171H1297.31L1289.81 28.6713L1282.31 59.3171Z" fill="white"/>
<path d="M1394.87 51.1713C1394.87 56.6713 1395.45 61.6453 1396.62 66.088C1397.78 70.5359 1399.75 74.9317 1402.51 79.2755C1405.27 83.6244 1409.06 88.3901 1413.87 93.588L1404.66 101.9C1399.39 97.3588 1394.82 92.5723 1390.95 87.5463C1387.08 82.5203 1384.11 77.0255 1382.01 71.0671C1379.91 65.0984 1378.87 58.463 1378.87 51.1713C1378.87 43.8692 1379.91 37.2338 1382.01 31.2755C1384.11 25.3067 1387.08 19.8067 1390.95 14.7755C1394.82 9.74943 1399.39 4.97339 1404.66 0.442139L1413.87 8.73381C1410.49 12.4005 1407.6 15.9109 1405.2 19.2546C1402.81 22.6036 1400.84 25.9421 1399.3 29.2755C1397.77 32.6088 1396.65 36.0619 1395.93 39.6296C1395.22 43.1869 1394.87 47.0359 1394.87 51.1713Z" fill="white"/>
<path d="M1474.52 39.463C1474.52 37.0046 1474.07 34.9734 1473.15 33.3588C1472.23 31.7338 1470.85 30.5359 1469 29.7546C1467.15 28.963 1464.83 28.5671 1462.02 28.5671H1456.44V51.213H1462.88C1465.31 51.213 1467.39 50.7963 1469.13 49.963C1470.86 49.1296 1472.2 47.8536 1473.13 46.1296C1474.06 44.3953 1474.52 42.1713 1474.52 39.463ZM1491.42 39.4213C1491.42 44.7859 1490.26 49.213 1487.96 52.713C1485.67 56.213 1482.45 58.8276 1478.32 60.5463C1474.19 62.2546 1469.4 63.1088 1463.94 63.1088H1456.44V86.1505H1440.05V16.8796H1461.84C1471.22 16.8796 1478.5 18.7494 1483.67 22.4838C1488.84 26.2078 1491.42 31.8536 1491.42 39.4213Z" fill="white"/>
<path d="M1529.06 73.3588L1542.1 16.8796H1558.89L1538.89 86.1505H1518.6L1498.72 16.8796H1516.1L1529.06 73.3588Z" fill="white"/>
<path d="M1601.82 29.4213V86.1505H1585.42V29.4213H1565.99V16.8796H1622.07L1620.36 29.4213H1601.82Z" fill="white"/>
<path d="M1662.65 51.1713C1662.65 47.0359 1662.28 43.1869 1661.56 39.6296C1660.85 36.0619 1659.73 32.6088 1658.19 29.2755C1656.66 25.9421 1654.69 22.6036 1652.29 19.2546C1649.9 15.9109 1647.02 12.4005 1643.65 8.73381L1652.85 0.442139C1658.11 4.97339 1662.68 9.74943 1666.54 14.7755C1670.4 19.8067 1673.38 25.3067 1675.48 31.2755C1677.59 37.2338 1678.65 43.8692 1678.65 51.1713C1678.65 58.463 1677.59 65.0984 1675.48 71.0671C1673.38 77.0255 1670.4 82.5203 1666.54 87.5463C1662.68 92.5723 1658.11 97.3588 1652.85 101.9L1643.65 93.588C1648.45 88.3901 1652.23 83.6244 1655 79.2755C1657.76 74.9317 1659.73 70.5359 1660.9 66.088C1662.06 61.6453 1662.65 56.6713 1662.65 51.1713Z" fill="white"/>
<path d="M1702.97 86.1505V16.8796H1719.37V73.213H1749.41L1747.7 86.1505H1702.97Z" fill="white"/>
<path d="M1796.73 29.4213V86.1505H1780.34V29.4213H1760.9V16.8796H1816.98L1815.28 29.4213H1796.73Z" fill="white"/>
<path d="M1864.06 51.1713C1864.06 46.5046 1863.66 42.7078 1862.87 39.7755C1862.09 36.8484 1861.01 34.5828 1859.62 32.9838C1858.25 31.3744 1856.62 30.2703 1854.75 29.6713C1852.88 29.0776 1850.87 28.7755 1848.7 28.7755H1845.2V74.2963H1848.7C1850.97 74.2963 1853.04 73.9421 1854.93 73.2338C1856.82 72.5151 1858.44 71.2963 1859.81 69.588C1861.17 67.8692 1862.22 65.5046 1862.95 62.5046C1863.69 59.5046 1864.06 55.7286 1864.06 51.1713ZM1881.04 51.1713C1881.04 58.2026 1880.11 63.9994 1878.27 68.5671C1876.42 73.1244 1873.91 76.6817 1870.75 79.2338C1867.58 81.7755 1863.99 83.5671 1859.98 84.6088C1855.96 85.6401 1851.81 86.1505 1847.52 86.1505H1828.81V16.8796H1846.31C1850.74 16.8796 1855.03 17.338 1859.18 18.2546C1863.34 19.1713 1867.05 20.8588 1870.33 23.3171C1873.61 25.7651 1876.21 29.2286 1878.14 33.713C1880.07 38.1869 1881.04 44.0046 1881.04 51.1713Z" fill="white"/>
<path d="M1907.43 76.713C1907.43 74.6713 1907.93 72.8119 1908.93 71.1296C1909.93 69.4526 1911.27 68.1036 1912.97 67.088C1914.68 66.0776 1916.54 65.5671 1918.57 65.5671C1920.64 65.5671 1922.51 66.0776 1924.2 67.088C1925.87 68.1036 1927.22 69.4526 1928.22 71.1296C1929.22 72.8119 1929.72 74.6713 1929.72 76.713C1929.72 78.713 1929.22 80.5619 1928.22 82.2546C1927.22 83.9526 1925.87 85.3067 1924.2 86.3171C1922.51 87.3432 1920.64 87.8588 1918.57 87.8588C1916.54 87.8588 1914.68 87.3432 1912.97 86.3171C1911.27 85.3067 1909.93 83.9526 1908.93 82.2546C1907.93 80.5619 1907.43 78.713 1907.43 76.713Z" fill="white"/>
<path d="M486.779 189.286L467.154 140.307C467.18 140.932 467.242 141.968 467.341 143.411C467.435 144.843 467.539 146.552 467.654 148.536C467.779 150.526 467.883 152.619 467.966 154.828C468.05 157.036 468.091 159.218 468.091 161.369V189.286H461.571V133.599H471.071L491.029 182.765C490.998 181.989 490.904 180.557 490.737 178.474C490.571 176.38 490.414 173.849 490.279 170.89C490.154 167.922 490.091 164.776 490.091 161.453V133.599H496.612V189.286H486.779Z" fill="#5CE1E6"/>
<path d="M531.71 146.703V176.869C531.71 179.677 532.283 181.698 533.439 182.932C534.606 184.172 536.418 184.786 538.876 184.786C541.22 184.786 543.439 184.119 545.522 182.786C547.616 181.453 549.241 179.869 550.397 178.036V146.703H557.21V189.286H551.418L550.856 183.536C549.173 185.703 547.106 187.364 544.647 188.515C542.199 189.651 539.72 190.224 537.21 190.224C533.085 190.224 530.001 189.13 527.96 186.932C525.929 184.724 524.918 181.64 524.918 177.682V146.703H531.71Z" fill="#5CE1E6"/>
<path d="M587.307 189.286V184.078H593.932V151.911H587.307V146.703H599.12L600.37 156.765C602.005 153.265 604 150.557 606.349 148.64C608.693 146.724 611.797 145.765 615.661 145.765C616.839 145.765 617.896 145.859 618.828 146.036C619.755 146.203 620.708 146.427 621.682 146.703L619.703 152.765C618.812 152.515 618 152.338 617.266 152.224C616.542 152.099 615.708 152.036 614.766 152.036C611.5 152.036 608.693 153.198 606.349 155.515C604 157.838 602.125 161.343 600.724 166.036V184.078H609.391V189.286H587.307ZM615.12 161.099V151.828L615.807 146.703H621.682L620.703 161.099H615.12Z" fill="#5CE1E6"/>
<path d="M682.676 187.14C681.217 188.114 679.452 188.869 677.384 189.411C675.311 189.953 673.28 190.224 671.28 190.224C666.696 190.224 663.16 189.026 660.676 186.619C658.202 184.218 656.967 181.13 656.967 177.349V151.953H647.176V146.703H656.967V137.036L663.759 136.224V146.703H678.467L677.676 151.953H663.759V177.265C663.759 179.64 664.384 181.453 665.634 182.703C666.884 183.942 668.967 184.557 671.884 184.557C673.478 184.557 674.952 184.369 676.301 183.994C677.644 183.609 678.894 183.119 680.051 182.536L682.676 187.14Z" fill="#5CE1E6"/>
<path d="M717.627 146.703V176.869C717.627 179.677 718.2 181.698 719.356 182.932C720.523 184.172 722.335 184.786 724.794 184.786C727.138 184.786 729.356 184.119 731.44 182.786C733.533 181.453 735.158 179.869 736.315 178.036V146.703H743.127V189.286H737.335L736.773 183.536C735.091 185.703 733.023 187.364 730.565 188.515C728.117 189.651 725.638 190.224 723.127 190.224C719.002 190.224 715.919 189.13 713.877 186.932C711.846 184.724 710.835 181.64 710.835 177.682V146.703H717.627Z" fill="#5CE1E6"/>
<path d="M773.224 189.286V184.078H779.849V151.911H773.224V146.703H785.037L786.287 156.765C787.922 153.265 789.917 150.557 792.266 148.64C794.61 146.724 797.714 145.765 801.579 145.765C802.756 145.765 803.813 145.859 804.745 146.036C805.672 146.203 806.626 146.427 807.599 146.703L805.62 152.765C804.73 152.515 803.917 152.338 803.183 152.224C802.459 152.099 801.626 152.036 800.683 152.036C797.417 152.036 794.61 153.198 792.266 155.515C789.917 157.838 788.042 161.343 786.641 166.036V184.078H795.308V189.286H773.224ZM801.037 161.099V151.828L801.724 146.703H807.599L806.62 161.099H801.037Z" fill="#5CE1E6"/>
<path d="M856.343 146.703V183.911H868.364V189.286H836.405V183.911H849.551V152.078H836.801V146.703H856.343ZM850.926 126.744C852.437 126.744 853.645 127.203 854.551 128.119C855.452 129.036 855.905 130.161 855.905 131.494C855.905 132.869 855.452 134.026 854.551 134.953C853.645 135.885 852.437 136.349 850.926 136.349C849.494 136.349 848.322 135.885 847.405 134.953C846.489 134.026 846.03 132.869 846.03 131.494C846.03 130.161 846.489 129.036 847.405 128.119C848.322 127.203 849.494 126.744 850.926 126.744Z" fill="#5CE1E6"/>
<path d="M896.753 189.286V146.703H902.544L903.065 152.599C904.784 150.422 906.946 148.744 909.544 147.578C912.154 146.401 914.69 145.807 917.149 145.807C921.326 145.807 924.362 146.911 926.253 149.119C928.154 151.328 929.107 154.406 929.107 158.349V189.286H922.315V163.349C922.315 160.448 922.154 158.099 921.836 156.307C921.513 154.515 920.841 153.213 919.815 152.39C918.784 151.557 917.196 151.14 915.044 151.14C913.362 151.14 911.784 151.51 910.315 152.244C908.857 152.968 907.55 153.88 906.399 154.974C905.258 156.057 904.305 157.156 903.544 158.265V189.286H896.753Z" fill="#5CE1E6"/>
<path d="M993.35 142.161L995.454 148.557C993.647 149.13 991.715 149.484 989.663 149.619C987.621 149.744 985.397 149.807 982.996 149.807C985.454 150.948 987.298 152.411 988.538 154.203C989.772 155.994 990.392 158.109 990.392 160.536C990.392 163.343 989.757 165.838 988.496 168.015C987.231 170.198 985.402 171.911 983.017 173.161C980.626 174.401 977.751 175.015 974.392 175.015C972.96 175.015 971.767 174.948 970.809 174.807C969.85 174.672 968.923 174.468 968.038 174.203C967.382 174.635 966.85 175.234 966.434 175.994C966.017 176.744 965.809 177.526 965.809 178.328C965.809 179.359 966.21 180.213 967.017 180.89C967.819 181.557 969.319 181.89 971.517 181.89H979.204C982.048 181.89 984.611 182.406 986.892 183.432C989.184 184.448 990.981 185.823 992.288 187.557C993.59 189.281 994.246 191.244 994.246 193.453C994.246 197.63 992.465 200.838 988.913 203.078C985.371 205.312 980.361 206.432 973.892 206.432C969.361 206.432 965.788 205.963 963.163 205.036C960.548 204.104 958.684 202.687 957.559 200.786C956.444 198.88 955.892 196.494 955.892 193.619H962.038C962.038 195.255 962.361 196.609 963.017 197.682C963.668 198.765 964.84 199.567 966.538 200.099C968.231 200.625 970.668 200.89 973.85 200.89C976.986 200.89 979.543 200.625 981.517 200.099C983.501 199.567 984.975 198.786 985.934 197.744C986.892 196.713 987.371 195.432 987.371 193.89C987.371 191.875 986.454 190.354 984.621 189.328C982.788 188.302 980.496 187.786 977.746 187.786H970.142C966.475 187.786 963.767 186.984 962.017 185.369C960.277 183.744 959.413 181.885 959.413 179.786C959.413 178.411 959.809 177.078 960.6 175.786C961.402 174.484 962.569 173.338 964.1 172.349C961.652 171.047 959.85 169.442 958.684 167.536C957.527 165.619 956.954 163.302 956.954 160.578C956.954 157.692 957.668 155.135 959.1 152.911C960.527 150.677 962.522 148.927 965.079 147.661C967.632 146.401 970.585 145.765 973.934 145.765C977.517 145.739 980.423 145.588 982.663 145.307C984.913 145.015 986.835 144.609 988.434 144.078C990.043 143.536 991.684 142.901 993.35 142.161ZM973.934 150.744C970.517 150.744 967.986 151.672 966.35 153.515C964.725 155.364 963.913 157.718 963.913 160.578C963.913 163.453 964.746 165.823 966.413 167.682C968.079 169.547 970.642 170.474 974.1 170.474C977.111 170.474 979.413 169.599 980.996 167.849C982.579 166.099 983.371 163.661 983.371 160.536C983.371 157.328 982.579 154.901 980.996 153.244C979.413 151.578 977.059 150.744 973.934 150.744Z" fill="#5CE1E6"/>
<path d="M1111.75 161.182C1111.75 156.323 1111.24 152.442 1110.21 149.536C1109.2 146.619 1107.85 144.432 1106.17 142.974C1104.5 141.515 1102.68 140.547 1100.69 140.057C1098.7 139.573 1096.76 139.328 1094.86 139.328H1088.3V183.661H1094.94C1096.93 183.661 1098.91 183.349 1100.9 182.724C1102.88 182.088 1104.7 180.953 1106.34 179.328C1107.97 177.692 1109.28 175.411 1110.27 172.494C1111.26 169.567 1111.75 165.797 1111.75 161.182ZM1119.23 161.182C1119.23 167.005 1118.47 171.755 1116.96 175.432C1115.46 179.114 1113.47 181.963 1110.98 183.974C1108.51 185.974 1105.8 187.364 1102.84 188.14C1099.88 188.906 1096.96 189.286 1094.09 189.286H1081.3V133.599H1093.19C1096.45 133.599 1099.63 133.963 1102.71 134.682C1105.81 135.406 1108.6 136.744 1111.09 138.703C1113.59 140.661 1115.57 143.448 1117.02 147.057C1118.49 150.672 1119.23 155.38 1119.23 161.182Z" fill="#5CE1E6"/>
<path d="M1166.21 146.703V183.911H1178.23V189.286H1146.27V183.911H1159.41V152.078H1146.66V146.703H1166.21ZM1160.79 126.744C1162.3 126.744 1163.51 127.203 1164.41 128.119C1165.31 129.036 1165.77 130.161 1165.77 131.494C1165.77 132.869 1165.31 134.026 1164.41 134.953C1163.51 135.885 1162.3 136.349 1160.79 136.349C1159.36 136.349 1158.18 135.885 1157.27 134.953C1156.35 134.026 1155.89 132.869 1155.89 131.494C1155.89 130.161 1156.35 129.036 1157.27 128.119C1158.18 127.203 1159.36 126.744 1160.79 126.744Z" fill="#5CE1E6"/>
<path d="M1241.24 142.161L1243.34 148.557C1241.54 149.13 1239.6 149.484 1237.55 149.619C1235.51 149.744 1233.29 149.807 1230.89 149.807C1233.34 150.948 1235.19 152.411 1236.43 154.203C1237.66 155.994 1238.28 158.109 1238.28 160.536C1238.28 163.343 1237.65 165.838 1236.39 168.015C1235.12 170.198 1233.29 171.911 1230.91 173.161C1228.52 174.401 1225.64 175.015 1222.28 175.015C1220.85 175.015 1219.66 174.948 1218.7 174.807C1217.74 174.672 1216.81 174.468 1215.93 174.203C1215.27 174.635 1214.74 175.234 1214.32 175.994C1213.91 176.744 1213.7 177.526 1213.7 178.328C1213.7 179.359 1214.1 180.213 1214.91 180.89C1215.71 181.557 1217.21 181.89 1219.41 181.89H1227.09C1229.94 181.89 1232.5 182.406 1234.78 183.432C1237.07 184.448 1238.87 185.823 1240.18 187.557C1241.48 189.281 1242.14 191.244 1242.14 193.453C1242.14 197.63 1240.35 200.838 1236.8 203.078C1233.26 205.312 1228.25 206.432 1221.78 206.432C1217.25 206.432 1213.68 205.963 1211.05 205.036C1208.44 204.104 1206.57 202.687 1205.45 200.786C1204.33 198.88 1203.78 196.494 1203.78 193.619H1209.93C1209.93 195.255 1210.25 196.609 1210.91 197.682C1211.56 198.765 1212.73 199.567 1214.43 200.099C1216.12 200.625 1218.56 200.89 1221.74 200.89C1224.88 200.89 1227.43 200.625 1229.41 200.099C1231.39 199.567 1232.87 198.786 1233.82 197.744C1234.78 196.713 1235.26 195.432 1235.26 193.89C1235.26 191.875 1234.34 190.354 1232.51 189.328C1230.68 188.302 1228.39 187.786 1225.64 187.786H1218.03C1214.37 187.786 1211.66 186.984 1209.91 185.369C1208.17 183.744 1207.3 181.885 1207.3 179.786C1207.3 178.411 1207.7 177.078 1208.49 175.786C1209.29 174.484 1210.46 173.338 1211.99 172.349C1209.54 171.047 1207.74 169.442 1206.57 167.536C1205.42 165.619 1204.84 163.302 1204.84 160.578C1204.84 157.692 1205.56 155.135 1206.99 152.911C1208.42 150.677 1210.41 148.927 1212.97 147.661C1215.52 146.401 1218.47 145.765 1221.82 145.765C1225.41 145.739 1228.31 145.588 1230.55 145.307C1232.8 145.015 1234.72 144.609 1236.32 144.078C1237.93 143.536 1239.57 142.901 1241.24 142.161ZM1221.82 150.744C1218.41 150.744 1215.88 151.672 1214.24 153.515C1212.62 155.364 1211.8 157.718 1211.8 160.578C1211.8 163.453 1212.64 165.823 1214.3 167.682C1215.97 169.547 1218.53 170.474 1221.99 170.474C1225 170.474 1227.3 169.599 1228.89 167.849C1230.47 166.099 1231.26 163.661 1231.26 160.536C1231.26 157.328 1230.47 154.901 1228.89 153.244C1227.3 151.578 1224.95 150.744 1221.82 150.744Z" fill="#5CE1E6"/>
<path d="M1290.15 146.703V183.911H1302.17V189.286H1270.21V183.911H1283.36V152.078H1270.61V146.703H1290.15ZM1284.73 126.744C1286.24 126.744 1287.45 127.203 1288.36 128.119C1289.26 129.036 1289.71 130.161 1289.71 131.494C1289.71 132.869 1289.26 134.026 1288.36 134.953C1287.45 135.885 1286.24 136.349 1284.73 136.349C1283.3 136.349 1282.13 135.885 1281.21 134.953C1280.3 134.026 1279.84 132.869 1279.84 131.494C1279.84 130.161 1280.3 129.036 1281.21 128.119C1282.13 127.203 1283.3 126.744 1284.73 126.744Z" fill="#5CE1E6"/>
<path d="M1364.37 187.14C1362.91 188.114 1361.15 188.869 1359.08 189.411C1357.01 189.953 1354.98 190.224 1352.98 190.224C1348.39 190.224 1344.86 189.026 1342.37 186.619C1339.9 184.218 1338.66 181.13 1338.66 177.349V151.953H1328.87V146.703H1338.66V137.036L1345.46 136.224V146.703H1360.16L1359.37 151.953H1345.46V177.265C1345.46 179.64 1346.08 181.453 1347.33 182.703C1348.58 183.942 1350.66 184.557 1353.58 184.557C1355.17 184.557 1356.65 184.369 1358 183.994C1359.34 183.609 1360.59 183.119 1361.75 182.536L1364.37 187.14Z" fill="#5CE1E6"/>
<path d="M1423.03 179.974C1423.03 181.682 1423.31 182.927 1423.89 183.703C1424.45 184.484 1425.33 185.067 1426.51 185.453L1424.84 190.224C1423.01 189.974 1421.41 189.38 1420.03 188.453C1418.66 187.526 1417.66 186.114 1417.05 184.224C1415.51 186.198 1413.59 187.692 1411.3 188.703C1409.01 189.713 1406.48 190.224 1403.7 190.224C1399.43 190.224 1396.07 189.026 1393.62 186.619C1391.17 184.218 1389.95 181.036 1389.95 177.078C1389.95 172.677 1391.66 169.302 1395.07 166.953C1398.5 164.609 1403.45 163.432 1409.93 163.432H1416.2V159.89C1416.2 156.807 1415.3 154.63 1413.51 153.349C1411.72 152.073 1409.23 151.432 1406.05 151.432C1404.65 151.432 1403 151.599 1401.12 151.932C1399.23 152.265 1397.18 152.828 1394.97 153.619L1393.18 148.474C1395.8 147.505 1398.26 146.817 1400.55 146.411C1402.84 146.01 1405.02 145.807 1407.09 145.807C1412.41 145.807 1416.4 147.047 1419.05 149.515C1421.7 151.974 1423.03 155.323 1423.03 159.557V179.974ZM1405.45 185.036C1407.54 185.036 1409.55 184.51 1411.47 183.453C1413.39 182.385 1414.96 180.906 1416.2 179.015V168.057H1410.05C1405.36 168.057 1402.04 168.869 1400.12 170.494C1398.18 172.109 1397.22 174.276 1397.22 176.994C1397.22 179.635 1397.9 181.635 1399.26 182.994C1400.64 184.359 1402.7 185.036 1405.45 185.036Z" fill="#5CE1E6"/>
<path d="M1471.09 129.536V178.765C1471.09 180.88 1471.74 182.369 1473.05 183.244C1474.36 184.119 1476.06 184.557 1478.13 184.557C1479.42 184.557 1480.64 184.427 1481.8 184.161C1482.96 183.885 1484.13 183.515 1485.3 183.057L1487.11 188.036C1485.95 188.609 1484.52 189.114 1482.8 189.557C1481.09 190 1479.16 190.224 1477 190.224C1473.22 190.224 1470.16 189.182 1467.82 187.099C1465.47 185.005 1464.3 182.109 1464.3 178.411V134.932H1451.23V129.536H1471.09Z" fill="#5CE1E6"/>
<path d="M1595.68 190.224C1591.29 190.224 1587.47 189.161 1584.22 187.036C1580.97 184.901 1578.45 181.698 1576.68 177.432C1574.9 173.172 1574.01 167.828 1574.01 161.411C1574.01 156.619 1574.65 152.432 1575.93 148.849C1577.2 145.255 1578.94 142.26 1581.14 139.869C1583.35 137.468 1585.84 135.677 1588.62 134.494C1591.41 133.302 1594.3 132.703 1597.3 132.703C1600.94 132.703 1603.96 133.224 1606.37 134.265C1608.77 135.297 1611.06 136.807 1613.24 138.807L1608.99 143.224C1607.29 141.63 1605.51 140.453 1603.64 139.703C1601.76 138.942 1599.66 138.557 1597.35 138.557C1595.31 138.557 1593.36 138.953 1591.47 139.744C1589.58 140.526 1587.89 141.797 1586.39 143.557C1584.9 145.323 1583.72 147.661 1582.85 150.578C1581.97 153.494 1581.53 157.109 1581.53 161.411C1581.53 166.786 1582.09 171.161 1583.2 174.536C1584.32 177.901 1585.98 180.369 1588.18 181.953C1590.37 183.526 1593.09 184.307 1596.32 184.307C1598.27 184.307 1600.11 184.078 1601.85 183.619C1603.6 183.161 1605.29 182.505 1606.93 181.64V164.661H1595.97L1595.12 158.828H1613.89V185.369C1611.37 186.718 1608.7 187.864 1605.87 188.807C1603.04 189.75 1599.65 190.224 1595.68 190.224Z" fill="#5CE1E6"/>
<path d="M1640.84 189.286V184.078H1647.46V151.911H1640.84V146.703H1652.65L1653.9 156.765C1655.54 153.265 1657.53 150.557 1659.88 148.64C1662.22 146.724 1665.33 145.765 1669.19 145.765C1670.37 145.765 1671.43 145.859 1672.36 146.036C1673.29 146.203 1674.24 146.427 1675.21 146.703L1673.23 152.765C1672.34 152.515 1671.53 152.338 1670.8 152.224C1670.07 152.099 1669.24 152.036 1668.3 152.036C1665.03 152.036 1662.22 153.198 1659.88 155.515C1657.53 157.838 1655.66 161.343 1654.26 166.036V184.078H1662.92V189.286H1640.84ZM1668.65 161.099V151.828L1669.34 146.703H1675.21L1674.23 161.099H1668.65Z" fill="#5CE1E6"/>
<path d="M1718.62 145.807C1722.63 145.807 1726 146.718 1728.71 148.536C1731.42 150.359 1733.45 152.927 1734.81 156.244C1736.17 159.567 1736.85 163.474 1736.85 167.974C1736.85 172.307 1736.15 176.151 1734.75 179.494C1733.34 182.843 1731.29 185.468 1728.58 187.369C1725.87 189.276 1722.52 190.224 1718.54 190.224C1714.55 190.224 1711.19 189.307 1708.46 187.474C1705.73 185.64 1703.68 183.057 1702.29 179.724C1700.9 176.39 1700.21 172.505 1700.21 168.057C1700.21 163.656 1700.91 159.786 1702.31 156.453C1703.71 153.109 1705.78 150.494 1708.52 148.619C1711.25 146.744 1714.62 145.807 1718.62 145.807ZM1718.62 151.349C1714.96 151.349 1712.19 152.703 1710.31 155.411C1708.44 158.119 1707.5 162.338 1707.5 168.057C1707.5 173.672 1708.42 177.838 1710.27 180.557C1712.11 183.281 1714.87 184.64 1718.54 184.64C1722.21 184.64 1724.96 183.281 1726.81 180.557C1728.66 177.838 1729.58 173.64 1729.58 167.974C1729.58 162.307 1728.67 158.119 1726.83 155.411C1725 152.703 1722.26 151.349 1718.62 151.349Z" fill="#5CE1E6"/>
<path d="M1795.93 189.286H1786.3L1780.78 158.015L1774.8 189.286H1765.43L1757.66 146.703H1764.62L1770.03 185.078L1776.83 152.119H1784.89L1791.3 185.078L1796.72 146.703H1803.37L1795.93 189.286Z" fill="#5CE1E6"/>
<path d="M1860.15 187.14C1858.69 188.114 1856.93 188.869 1854.86 189.411C1852.79 189.953 1850.76 190.224 1848.76 190.224C1844.17 190.224 1840.64 189.026 1838.15 186.619C1835.68 184.218 1834.44 181.13 1834.44 177.349V151.953H1824.65V146.703H1834.44V137.036L1841.24 136.224V146.703H1855.94L1855.15 151.953H1841.24V177.265C1841.24 179.64 1841.86 181.453 1843.11 182.703C1844.36 183.942 1846.44 184.557 1849.36 184.557C1850.95 184.557 1852.43 184.369 1853.78 183.994C1855.12 183.609 1856.37 183.119 1857.53 182.536L1860.15 187.14Z" fill="#5CE1E6"/>
<path d="M1895.1 128.89V152.515C1896.78 150.281 1898.84 148.609 1901.27 147.494C1903.71 146.369 1906.19 145.807 1908.71 145.807C1912.86 145.807 1915.88 146.911 1917.79 149.119C1919.71 151.328 1920.67 154.406 1920.67 158.349V189.286H1913.87V158.515C1913.87 155.948 1913.28 154.078 1912.08 152.911C1910.9 151.734 1909.05 151.14 1906.52 151.14C1904.9 151.14 1903.35 151.51 1901.9 152.244C1900.45 152.968 1899.15 153.869 1897.98 154.953C1896.82 156.026 1895.86 157.13 1895.1 158.265V189.286H1888.31V129.619L1895.1 128.89Z" fill="#5CE1E6"/>
</g>
</g>
<defs>
<clipPath id="clip0_4_3">
<rect width="1930" height="207" fill="white"/>
</clipPath>
</defs>
</svg>
