<svg xmlns="http://www.w3.org/2000/svg" xmlns:xlink="http://www.w3.org/1999/xlink" width="3000" zoomAndPan="magnify" viewBox="0 0 2250 2250.000011" height="3000" preserveAspectRatio="xMidYMid meet" version="1.0"><defs><g/></defs><path fill="#0652e9" d="M 942.886719 969.171875 C 944.878906 967.542969 946.804688 965.847656 948.757812 964.199219 L 950.214844 962.9375 L 951.761719 961.566406 L 954.835938 958.824219 C 957.101562 956.816406 958.386719 955.550781 959.96875 954.058594 L 962.792969 951.371094 L 965.375 948.796875 C 968.847656 945.375 972.167969 941.910156 975.472656 938.449219 C 981.992188 931.480469 988.304688 924.496094 994.210938 917.421875 C 1000.097656 910.324219 1005.773438 903.226562 1011.117188 896.125 C 1016.523438 889.046875 1021.660156 881.949219 1026.523438 874.871094 C 1036.335938 860.730469 1045.296875 846.78125 1053.644531 833.089844 C 1062.054688 819.4375 1069.789062 806.023438 1077.261719 793.039062 C 1092.128906 767.050781 1105.683594 742.597656 1118.925781 720.046875 C 1132.203125 697.519531 1145.089844 676.789062 1158.265625 658.25 C 1184.367188 621.003906 1211.535156 592.128906 1237.277344 571.097656 C 1243.679688 565.828125 1249.925781 560.964844 1256.019531 556.644531 C 1259.027344 554.417969 1262.03125 552.382812 1264.914062 550.328125 C 1267.808594 548.324219 1270.6875 546.484375 1273.4375 544.648438 C 1279.007812 541.128906 1284.253906 537.910156 1289.132812 535.027344 C 1291.554688 533.527344 1293.9375 532.28125 1296.1875 530.996094 C 1298.425781 529.714844 1300.585938 528.546875 1302.636719 527.464844 C 1306.730469 525.222656 1310.367188 523.289062 1313.558594 521.730469 C 1316.730469 520.117188 1319.425781 518.699219 1321.648438 517.671875 C 1326.046875 515.523438 1328.316406 514.410156 1328.316406 514.410156 C 1328.316406 514.410156 1325.789062 514.515625 1320.894531 514.730469 C 1318.449219 514.839844 1315.410156 515.019531 1311.792969 515.378906 C 1308.144531 515.683594 1303.953125 516.15625 1299.203125 516.746094 C 1280.308594 519.320312 1252.148438 524.515625 1218.09375 538.835938 C 1201.105469 545.957031 1182.800781 555.460938 1163.875 567.570312 C 1144.953125 579.6875 1125.726562 594.71875 1106.613281 612.046875 C 1087.582031 629.445312 1068.699219 649.183594 1050.351562 670.578125 C 1041.09375 681.230469 1032.042969 692.367188 1022.890625 703.636719 C 1013.839844 714.976562 1004.722656 726.515625 995.617188 738.179688 C 959.148438 784.726562 921.886719 833.34375 876.804688 869.179688 L 875.011719 870.558594 L 874.117188 871.265625 L 873.089844 872.03125 C 871.71875 873.042969 870.363281 874.097656 868.960938 875.085938 C 866.195312 877.082031 863.375 879.019531 860.535156 880.917969 C 854.828125 884.652344 848.988281 888.152344 843.039062 891.402344 C 831.132812 897.886719 818.640625 903.085938 805.867188 907.089844 C 799.46875 909.070312 792.984375 910.699219 786.433594 911.964844 C 779.898438 913.261719 773.308594 914.222656 766.683594 914.761719 C 753.441406 915.835938 740.109375 915.433594 726.984375 913.488281 C 713.878906 911.425781 700.96875 907.933594 688.660156 902.78125 C 682.515625 900.183594 676.539062 897.171875 670.683594 893.882812 C 664.871094 890.542969 659.246094 886.8125 653.847656 882.71875 C 648.5 878.5625 643.285156 874.15625 638.367188 869.359375 C 635.9375 866.921875 633.507812 864.476562 631.226562 861.871094 L 630.355469 860.902344 C 630.414062 860.992188 629.59375 860.015625 630.382812 860.992188 L 629.8125 860.285156 L 627.515625 857.503906 C 626.558594 856.242188 625.992188 855.597656 624.878906 854.074219 C 616.894531 843.433594 610.289062 831.515625 605.375 818.570312 C 595.507812 792.730469 592.652344 762.773438 597.136719 733.796875 C 601.539062 704.820312 613.660156 677.121094 631.324219 656.035156 C 649.074219 634.894531 672.117188 620.804688 698.835938 614.914062 C 717.503906 610.738281 738.128906 610.808594 759.375 614.367188 C 759.960938 618.503906 760.757812 622.652344 761.832031 626.800781 C 777.238281 686.453125 838.082031 722.320312 897.734375 706.917969 C 957.390625 691.519531 993.253906 630.671875 977.855469 571.015625 C 962.453125 511.363281 901.609375 475.488281 841.949219 490.898438 C 826.773438 494.816406 813.152344 501.675781 801.503906 510.71875 C 796.890625 509.429688 792.234375 508.199219 787.5 507.109375 C 776.027344 504.402344 764.21875 502.304688 752.109375 500.996094 C 727.941406 498.308594 702.539062 498.660156 677.171875 503.253906 C 651.816406 507.769531 626.628906 516.660156 603.730469 529.640625 C 580.769531 542.542969 560.234375 559.429688 542.980469 578.660156 C 525.738281 597.933594 511.710938 619.507812 501.042969 642.300781 C 490.339844 665.085938 482.804688 689.019531 478.390625 713.425781 C 469.492188 762.175781 473.082031 813.171875 489.921875 860.640625 C 498.355469 884.320312 510.167969 907.035156 525.097656 927.488281 C 526.808594 929.894531 529.238281 933.03125 531.230469 935.59375 L 533.492188 938.414062 L 536.738281 942.363281 C 540.644531 947.140625 544.78125 951.726562 548.996094 956.234375 C 557.496094 965.195312 566.5625 973.625 576.1875 981.332031 C 614.632812 1012.332031 661.328125 1032.042969 708.554688 1038.726562 C 720.363281 1040.410156 732.203125 1041.363281 743.96875 1041.605469 C 755.742188 1041.800781 767.433594 1041.199219 778.960938 1039.996094 C 802.039062 1037.625 824.378906 1032.320312 845.441406 1024.890625 C 866.554688 1017.527344 886.324219 1007.832031 904.554688 996.679688 C 913.679688 991.125 922.414062 985.15625 930.710938 978.828125 C 934.851562 975.660156 938.921875 972.460938 942.886719 969.171875 " fill-opacity="1" fill-rule="nonzero"/><path fill="#00adef" d="M 1760.171875 704.792969 C 1751.738281 681.109375 1739.925781 658.398438 1724.988281 637.941406 C 1723.289062 635.542969 1720.847656 632.402344 1718.859375 629.84375 L 1716.597656 627.015625 L 1713.347656 623.0625 C 1709.445312 618.296875 1705.304688 613.707031 1701.089844 609.195312 C 1692.597656 600.242188 1683.53125 591.804688 1673.90625 584.09375 C 1635.457031 553.09375 1588.761719 533.390625 1541.53125 526.707031 C 1529.726562 525.023438 1517.886719 524.070312 1506.117188 523.832031 C 1494.34375 523.632812 1482.65625 524.222656 1471.128906 525.445312 C 1448.054688 527.8125 1425.714844 533.117188 1404.640625 540.527344 C 1383.542969 547.894531 1363.757812 557.597656 1345.542969 568.75 C 1336.410156 574.308594 1327.6875 580.28125 1319.375 586.597656 C 1315.234375 589.769531 1311.171875 592.976562 1307.210938 596.261719 C 1305.210938 597.890625 1303.277344 599.582031 1301.328125 601.238281 L 1299.878906 602.496094 L 1298.328125 603.855469 L 1295.257812 606.605469 C 1293 608.617188 1291.703125 609.890625 1290.125 611.378906 L 1287.296875 614.070312 L 1284.707031 616.640625 C 1281.242188 620.046875 1277.929688 623.523438 1274.617188 626.988281 C 1268.097656 633.945312 1261.785156 640.929688 1255.875 648.015625 C 1249.996094 655.105469 1244.320312 662.214844 1238.96875 669.308594 C 1233.5625 676.398438 1228.425781 683.480469 1223.570312 690.5625 C 1213.757812 704.695312 1204.800781 718.644531 1196.441406 732.34375 C 1188.035156 746 1180.300781 759.410156 1172.828125 772.394531 C 1157.964844 798.382812 1144.410156 822.839844 1131.164062 845.390625 C 1117.886719 867.917969 1105 888.640625 1091.820312 907.195312 C 1065.722656 944.433594 1038.554688 973.3125 1012.816406 994.339844 C 1006.40625 999.609375 1000.160156 1004.472656 994.070312 1008.792969 C 991.0625 1011.011719 988.054688 1013.054688 985.175781 1015.105469 C 982.28125 1017.117188 979.402344 1018.941406 976.652344 1020.785156 C 971.078125 1024.300781 965.832031 1027.515625 960.957031 1030.410156 C 958.535156 1031.90625 956.152344 1033.144531 953.910156 1034.433594 C 951.664062 1035.714844 949.507812 1036.878906 947.449219 1037.964844 C 943.363281 1040.203125 939.71875 1042.140625 936.53125 1043.707031 C 933.363281 1045.320312 930.664062 1046.726562 928.445312 1047.769531 C 924.039062 1049.917969 921.769531 1051.027344 921.769531 1051.027344 C 921.769531 1051.027344 924.304688 1050.910156 929.195312 1050.703125 C 931.640625 1050.597656 934.671875 1050.410156 938.300781 1050.050781 C 941.941406 1049.753906 946.136719 1049.273438 950.886719 1048.6875 C 969.78125 1046.109375 997.941406 1040.910156 1031.996094 1026.605469 C 1048.984375 1019.480469 1067.289062 1009.972656 1086.21875 997.871094 C 1105.132812 985.746094 1124.363281 970.71875 1143.476562 953.394531 C 1162.507812 935.984375 1181.394531 916.253906 1199.746094 894.847656 C 1208.988281 884.207031 1218.039062 873.070312 1227.195312 861.796875 C 1236.246094 850.453125 1245.367188 838.921875 1254.476562 827.25 C 1290.933594 780.703125 1328.207031 732.097656 1373.285156 696.253906 L 1375.078125 694.875 L 1375.972656 694.167969 L 1377 693.410156 C 1378.371094 692.390625 1379.734375 691.34375 1381.121094 690.351562 C 1383.890625 688.34375 1386.71875 686.410156 1389.554688 684.519531 C 1395.265625 680.777344 1401.101562 677.285156 1407.050781 674.03125 C 1418.96875 667.542969 1431.453125 662.351562 1444.21875 658.34375 C 1450.617188 656.371094 1457.121094 654.734375 1463.65625 653.46875 C 1470.1875 652.171875 1476.78125 651.214844 1483.40625 650.671875 C 1496.648438 649.601562 1509.984375 650.003906 1523.109375 651.945312 C 1536.207031 654 1549.125 657.503906 1561.429688 662.644531 C 1567.582031 665.25 1573.550781 668.257812 1579.402344 671.542969 C 1585.21875 674.894531 1590.84375 678.625 1596.253906 682.710938 C 1601.59375 686.867188 1606.808594 691.277344 1611.730469 696.070312 C 1614.15625 698.511719 1616.582031 700.964844 1618.867188 703.566406 L 1619.734375 704.535156 C 1619.667969 704.441406 1620.507812 705.429688 1619.703125 704.441406 L 1620.277344 705.152344 L 1622.570312 707.933594 C 1623.535156 709.191406 1624.09375 709.835938 1625.21875 711.359375 C 1633.195312 722.007812 1639.808594 733.917969 1644.710938 746.871094 C 1654.59375 772.714844 1657.449219 802.660156 1652.945312 831.628906 C 1648.546875 860.613281 1636.429688 888.308594 1618.761719 909.390625 C 1601.023438 930.546875 1577.976562 944.628906 1551.257812 950.515625 C 1532.582031 954.703125 1511.957031 954.621094 1490.707031 951.070312 C 1490.121094 946.933594 1489.328125 942.785156 1488.253906 938.636719 C 1472.851562 878.980469 1412.007812 843.105469 1352.355469 858.515625 C 1292.703125 873.910156 1256.828125 934.765625 1272.238281 994.417969 C 1287.640625 1054.0625 1348.484375 1089.941406 1408.136719 1074.539062 C 1423.308594 1070.617188 1436.9375 1063.75 1448.582031 1054.710938 C 1453.195312 1056.011719 1457.863281 1057.226562 1462.601562 1058.332031 C 1474.0625 1061.027344 1485.875 1063.132812 1497.980469 1064.441406 C 1522.148438 1067.117188 1547.554688 1066.769531 1572.921875 1062.183594 C 1598.277344 1057.664062 1623.464844 1048.769531 1646.355469 1035.792969 C 1669.316406 1022.894531 1689.867188 1006.003906 1707.117188 986.769531 C 1724.351562 967.503906 1738.382812 945.914062 1749.054688 923.125 C 1759.753906 900.363281 1767.28125 876.417969 1771.699219 852.015625 C 1780.601562 803.265625 1777.007812 752.257812 1760.171875 704.792969 " fill-opacity="1" fill-rule="nonzero"/><g fill="#ffffff" fill-opacity="1"><g transform="translate(203.21838, 1392.721341)"><g><path d="M 123.765625 -184.359375 L 123.765625 0 L 70.5 0 L 70.5 -184.359375 L 7.3125 -184.359375 L 7.3125 -225.125 L 189.5625 -225.125 L 184.03125 -184.359375 Z M 123.765625 -184.359375 "/></g></g></g><g fill="#ffffff" fill-opacity="1"><g transform="translate(438.737588, 1392.721341)"><g><path d="M 83.484375 -187.125 L 83.484375 -133.03125 L 161.453125 -133.03125 L 161.453125 -95.671875 L 83.484375 -95.671875 L 83.484375 -38.171875 L 177.53125 -38.171875 L 177.53125 0 L 30.21875 0 L 30.21875 -225.125 L 177.375 -225.125 L 172.015625 -187.125 Z M 83.484375 -187.125 "/></g></g></g><g fill="#ffffff" fill-opacity="1"><g transform="translate(674.256797, 1392.721341)"><g><path d="M 116.296875 -230.8125 C 132.429688 -230.8125 146.15625 -228.671875 157.46875 -224.390625 C 168.789062 -220.117188 179.160156 -214.082031 188.578125 -206.28125 L 162.421875 -174.78125 C 156.253906 -179.863281 149.429688 -183.894531 141.953125 -186.875 C 134.484375 -189.851562 126.363281 -191.34375 117.59375 -191.34375 C 108.175781 -191.34375 99.566406 -188.660156 91.765625 -183.296875 C 83.972656 -177.941406 77.75 -169.492188 73.09375 -157.953125 C 68.4375 -146.421875 66.109375 -131.453125 66.109375 -113.046875 C 66.109375 -94.960938 68.351562 -80.207031 72.84375 -68.78125 C 77.34375 -57.363281 83.546875 -48.972656 91.453125 -43.609375 C 99.359375 -38.253906 108.398438 -35.578125 118.578125 -35.578125 C 129.835938 -35.578125 139.203125 -37.6875 146.671875 -41.90625 C 154.140625 -46.125 161.015625 -50.726562 167.296875 -55.71875 L 191.5 -24.859375 C 183.050781 -16.515625 172.65625 -9.363281 160.3125 -3.40625 C 147.96875 2.539062 133.082031 5.515625 115.65625 5.515625 C 95.289062 5.515625 77.226562 0.992188 61.46875 -8.046875 C 45.71875 -17.085938 33.375 -30.40625 24.4375 -48 C 15.507812 -65.59375 11.046875 -87.273438 11.046875 -113.046875 C 11.046875 -138.171875 15.675781 -159.503906 24.9375 -177.046875 C 34.195312 -194.585938 46.785156 -207.929688 62.703125 -217.078125 C 78.617188 -226.234375 96.484375 -230.8125 116.296875 -230.8125 Z M 116.296875 -230.8125 "/></g></g></g><g fill="#ffffff" fill-opacity="1"><g transform="translate(909.776028, 1392.721341)"><g><path d="M 124.75 0 L 124.75 -94.859375 L 70.171875 -94.859375 L 70.171875 0 L 16.890625 0 L 16.890625 -225.125 L 70.171875 -225.125 L 70.171875 -138.71875 L 124.75 -138.71875 L 124.75 -225.125 L 178.015625 -225.125 L 178.015625 0 Z M 124.75 0 "/></g></g></g><g fill="#ffffff" fill-opacity="1"><g transform="translate(1145.295214, 1392.721341)"><g><path d="M 184.515625 -65.78125 C 184.515625 -51.8125 180.859375 -39.46875 173.546875 -28.75 C 166.242188 -18.03125 155.769531 -9.640625 142.125 -3.578125 C 128.476562 2.484375 112.070312 5.515625 92.90625 5.515625 C 71.6875 5.515625 53.898438 2.40625 39.546875 -3.8125 C 25.203125 -10.039062 13.316406 -17.757812 3.890625 -26.96875 L 30.859375 -56.84375 C 39.203125 -49.59375 48.40625 -43.988281 58.46875 -40.03125 C 68.539062 -36.082031 79.585938 -34.109375 91.609375 -34.109375 C 99.078125 -34.109375 105.625 -35.191406 111.25 -37.359375 C 116.882812 -39.523438 121.269531 -42.664062 124.40625 -46.78125 C 127.550781 -50.894531 129.125 -55.875 129.125 -61.71875 C 129.125 -67.238281 127.878906 -71.894531 125.390625 -75.6875 C 122.898438 -79.476562 118.703125 -82.890625 112.796875 -85.921875 C 106.898438 -88.953125 98.703125 -92.039062 88.203125 -95.1875 C 70.660156 -100.601562 56.554688 -106.554688 45.890625 -113.046875 C 35.222656 -119.546875 27.476562 -127.070312 22.65625 -135.625 C 17.84375 -144.175781 15.4375 -154.140625 15.4375 -165.515625 C 15.4375 -179.265625 19.25 -191.007812 26.875 -200.75 C 34.507812 -210.5 44.769531 -217.945312 57.65625 -223.09375 C 70.539062 -228.238281 84.726562 -230.8125 100.21875 -230.8125 C 117.65625 -230.8125 133.03125 -228.289062 146.34375 -223.25 C 159.664062 -218.21875 171.203125 -211.046875 180.953125 -201.734375 L 155.765625 -172.828125 C 148.191406 -179.210938 140.019531 -183.945312 131.25 -187.03125 C 122.476562 -190.125 113.539062 -191.671875 104.4375 -191.671875 C 97.726562 -191.671875 91.828125 -190.828125 86.734375 -189.140625 C 81.648438 -187.460938 77.695312 -185 74.875 -181.75 C 72.0625 -178.507812 70.65625 -174.453125 70.65625 -169.578125 C 70.65625 -164.804688 72.007812 -160.796875 74.71875 -157.546875 C 77.425781 -154.304688 82.132812 -151.25 88.84375 -148.375 C 95.5625 -145.507812 104.875 -142.179688 116.78125 -138.390625 C 130.96875 -134.054688 143.125 -128.882812 153.25 -122.875 C 163.375 -116.863281 171.113281 -109.3125 176.46875 -100.21875 C 181.832031 -91.125 184.515625 -79.644531 184.515625 -65.78125 Z M 184.515625 -65.78125 "/></g></g></g><g fill="#ffffff" fill-opacity="1"><g transform="translate(1380.8144, 1392.721341)"><g><path d="M 83.484375 -187.125 L 83.484375 -133.03125 L 161.453125 -133.03125 L 161.453125 -95.671875 L 83.484375 -95.671875 L 83.484375 -38.171875 L 177.53125 -38.171875 L 177.53125 0 L 30.21875 0 L 30.21875 -225.125 L 177.375 -225.125 L 172.015625 -187.125 Z M 83.484375 -187.125 "/></g></g></g><g fill="#ffffff" fill-opacity="1"><g transform="translate(1616.333587, 1392.721341)"><g><path d="M 83.484375 -187.125 L 83.484375 -133.03125 L 161.453125 -133.03125 L 161.453125 -95.671875 L 83.484375 -95.671875 L 83.484375 -38.171875 L 177.53125 -38.171875 L 177.53125 0 L 30.21875 0 L 30.21875 -225.125 L 177.375 -225.125 L 172.015625 -187.125 Z M 83.484375 -187.125 "/></g></g></g><g fill="#ffffff" fill-opacity="1"><g transform="translate(1851.852773, 1392.721341)"><g><path d="M 131.40625 -113.703125 C 131.40625 -128.859375 130.128906 -141.203125 127.578125 -150.734375 C 125.035156 -160.265625 121.519531 -167.628906 117.03125 -172.828125 C 112.539062 -178.023438 107.257812 -181.597656 101.1875 -183.546875 C 95.125 -185.492188 88.578125 -186.46875 81.546875 -186.46875 L 70.171875 -186.46875 L 70.171875 -38.5 L 81.546875 -38.5 C 88.898438 -38.5 95.632812 -39.660156 101.75 -41.984375 C 107.875 -44.316406 113.15625 -48.269531 117.59375 -53.84375 C 122.039062 -59.414062 125.453125 -67.078125 127.828125 -76.828125 C 130.210938 -86.578125 131.40625 -98.867188 131.40625 -113.703125 Z M 186.625 -113.703125 C 186.625 -90.847656 183.617188 -72.003906 177.609375 -57.171875 C 171.609375 -42.335938 163.460938 -30.78125 153.171875 -22.5 C 142.878906 -14.21875 131.207031 -8.394531 118.15625 -5.03125 C 105.113281 -1.675781 91.609375 0 77.640625 0 L 16.890625 0 L 16.890625 -225.125 L 73.75 -225.125 C 88.144531 -225.125 102.082031 -223.632812 115.5625 -220.65625 C 129.050781 -217.675781 141.128906 -212.207031 151.796875 -204.25 C 162.460938 -196.289062 170.929688 -185.03125 177.203125 -170.46875 C 183.484375 -155.90625 186.625 -136.984375 186.625 -113.703125 Z M 186.625 -113.703125 "/></g></g></g><g fill="#5ce1e6" fill-opacity="1"><g transform="translate(207.698302, 1599.170075)"><g><path d="M 47.375 0 L 18.296875 -72.625 C 18.335938 -71.707031 18.425781 -70.175781 18.5625 -68.03125 C 18.695312 -65.894531 18.851562 -63.359375 19.03125 -60.421875 C 19.21875 -57.484375 19.367188 -54.375 19.484375 -51.09375 C 19.609375 -47.820312 19.671875 -44.585938 19.671875 -41.390625 L 19.671875 0 L 10.015625 0 L 10.015625 -82.59375 L 24.109375 -82.59375 L 53.671875 -9.65625 C 53.640625 -10.8125 53.503906 -12.9375 53.265625 -16.03125 C 53.023438 -19.132812 52.800781 -22.882812 52.59375 -27.28125 C 52.394531 -31.6875 52.296875 -36.347656 52.296875 -41.265625 L 52.296875 -82.59375 L 61.953125 -82.59375 L 61.953125 0 Z M 47.375 0 "/></g></g></g><g fill="#5ce1e6" fill-opacity="1"><g transform="translate(284.464113, 1599.170075)"><g><path d="M 22.125 -63.15625 L 22.125 -18.40625 C 22.125 -14.25 22.984375 -11.25 24.703125 -9.40625 C 26.429688 -7.570312 29.113281 -6.65625 32.75 -6.65625 C 36.226562 -6.65625 39.515625 -7.644531 42.609375 -9.625 C 45.710938 -11.601562 48.125 -13.953125 49.84375 -16.671875 L 49.84375 -63.15625 L 59.921875 -63.15625 L 59.921875 0 L 51.34375 0 L 50.5 -8.515625 C 48.019531 -5.316406 44.957031 -2.867188 41.3125 -1.171875 C 37.675781 0.523438 34 1.375 30.28125 1.375 C 24.164062 1.375 19.597656 -0.25 16.578125 -3.5 C 13.566406 -6.757812 12.0625 -11.332031 12.0625 -17.21875 L 12.0625 -63.15625 Z M 22.125 -63.15625 "/></g></g></g><g fill="#5ce1e6" fill-opacity="1"><g transform="translate(361.229925, 1599.170075)"><g><path d="M 12.65625 0 L 12.65625 -7.734375 L 22.484375 -7.734375 L 22.484375 -55.421875 L 12.65625 -55.421875 L 12.65625 -63.15625 L 30.171875 -63.15625 L 32.03125 -48.21875 C 34.46875 -53.414062 37.425781 -57.429688 40.90625 -60.265625 C 44.382812 -63.109375 48.984375 -64.53125 54.703125 -64.53125 C 56.460938 -64.53125 58.03125 -64.398438 59.40625 -64.140625 C 60.78125 -63.878906 62.191406 -63.550781 63.640625 -63.15625 L 60.703125 -54.15625 C 59.378906 -54.519531 58.175781 -54.789062 57.09375 -54.96875 C 56.019531 -55.144531 54.78125 -55.234375 53.375 -55.234375 C 48.539062 -55.234375 44.382812 -53.515625 40.90625 -50.078125 C 37.425781 -46.640625 34.644531 -41.441406 32.5625 -34.484375 L 32.5625 -7.734375 L 45.40625 -7.734375 L 45.40625 0 Z M 53.921875 -41.796875 L 53.921875 -55.53125 L 54.9375 -63.15625 L 63.640625 -63.15625 L 62.203125 -41.796875 Z M 53.921875 -41.796875 "/></g></g></g><g fill="#5ce1e6" fill-opacity="1"><g transform="translate(437.995742, 1599.170075)"><g><path d="M 62.203125 -3.171875 C 60.035156 -1.734375 57.410156 -0.617188 54.328125 0.171875 C 51.253906 0.972656 48.238281 1.375 45.28125 1.375 C 38.488281 1.375 33.25 -0.398438 29.5625 -3.953125 C 25.882812 -7.515625 24.046875 -12.09375 24.046875 -17.6875 L 24.046875 -55.359375 L 9.53125 -55.359375 L 9.53125 -63.15625 L 24.046875 -63.15625 L 24.046875 -77.484375 L 34.125 -78.6875 L 34.125 -63.15625 L 55.953125 -63.15625 L 54.765625 -55.359375 L 34.125 -55.359375 L 34.125 -17.8125 C 34.125 -14.289062 35.050781 -11.609375 36.90625 -9.765625 C 38.769531 -7.929688 41.863281 -7.015625 46.1875 -7.015625 C 48.539062 -7.015625 50.71875 -7.296875 52.71875 -7.859375 C 54.71875 -8.421875 56.578125 -9.140625 58.296875 -10.015625 Z M 62.203125 -3.171875 "/></g></g></g><g fill="#5ce1e6" fill-opacity="1"><g transform="translate(514.761548, 1599.170075)"><g><path d="M 22.125 -63.15625 L 22.125 -18.40625 C 22.125 -14.25 22.984375 -11.25 24.703125 -9.40625 C 26.429688 -7.570312 29.113281 -6.65625 32.75 -6.65625 C 36.226562 -6.65625 39.515625 -7.644531 42.609375 -9.625 C 45.710938 -11.601562 48.125 -13.953125 49.84375 -16.671875 L 49.84375 -63.15625 L 59.921875 -63.15625 L 59.921875 0 L 51.34375 0 L 50.5 -8.515625 C 48.019531 -5.316406 44.957031 -2.867188 41.3125 -1.171875 C 37.675781 0.523438 34 1.375 30.28125 1.375 C 24.164062 1.375 19.597656 -0.25 16.578125 -3.5 C 13.566406 -6.757812 12.0625 -11.332031 12.0625 -17.21875 L 12.0625 -63.15625 Z M 22.125 -63.15625 "/></g></g></g><g fill="#5ce1e6" fill-opacity="1"><g transform="translate(591.527353, 1599.170075)"><g><path d="M 12.65625 0 L 12.65625 -7.734375 L 22.484375 -7.734375 L 22.484375 -55.421875 L 12.65625 -55.421875 L 12.65625 -63.15625 L 30.171875 -63.15625 L 32.03125 -48.21875 C 34.46875 -53.414062 37.425781 -57.429688 40.90625 -60.265625 C 44.382812 -63.109375 48.984375 -64.53125 54.703125 -64.53125 C 56.460938 -64.53125 58.03125 -64.398438 59.40625 -64.140625 C 60.78125 -63.878906 62.191406 -63.550781 63.640625 -63.15625 L 60.703125 -54.15625 C 59.378906 -54.519531 58.175781 -54.789062 57.09375 -54.96875 C 56.019531 -55.144531 54.78125 -55.234375 53.375 -55.234375 C 48.539062 -55.234375 44.382812 -53.515625 40.90625 -50.078125 C 37.425781 -46.640625 34.644531 -41.441406 32.5625 -34.484375 L 32.5625 -7.734375 L 45.40625 -7.734375 L 45.40625 0 Z M 53.921875 -41.796875 L 53.921875 -55.53125 L 54.9375 -63.15625 L 63.640625 -63.15625 L 62.203125 -41.796875 Z M 53.921875 -41.796875 "/></g></g></g><g fill="#5ce1e6" fill-opacity="1"><g transform="translate(668.293182, 1599.170075)"><g><path d="M 44.015625 -63.15625 L 44.015625 -7.984375 L 61.828125 -7.984375 L 61.828125 0 L 14.453125 0 L 14.453125 -7.984375 L 33.953125 -7.984375 L 33.953125 -55.171875 L 15.046875 -55.171875 L 15.046875 -63.15625 Z M 35.984375 -92.71875 C 38.222656 -92.71875 40.007812 -92.035156 41.34375 -90.671875 C 42.6875 -89.316406 43.359375 -87.660156 43.359375 -85.703125 C 43.359375 -83.660156 42.6875 -81.953125 41.34375 -80.578125 C 40.007812 -79.203125 38.222656 -78.515625 35.984375 -78.515625 C 33.867188 -78.515625 32.128906 -79.203125 30.765625 -80.578125 C 29.410156 -81.953125 28.734375 -83.660156 28.734375 -85.703125 C 28.734375 -87.660156 29.410156 -89.316406 30.765625 -90.671875 C 32.128906 -92.035156 33.867188 -92.71875 35.984375 -92.71875 Z M 35.984375 -92.71875 "/></g></g></g><g fill="#5ce1e6" fill-opacity="1"><g transform="translate(745.058988, 1599.170075)"><g><path d="M 12.0625 0 L 12.0625 -63.15625 L 20.625 -63.15625 L 21.40625 -54.40625 C 23.96875 -57.632812 27.175781 -60.117188 31.03125 -61.859375 C 34.894531 -63.597656 38.644531 -64.46875 42.28125 -64.46875 C 48.476562 -64.46875 52.984375 -62.828125 55.796875 -59.546875 C 58.617188 -56.273438 60.03125 -51.71875 60.03125 -45.875 L 60.03125 0 L 49.953125 0 L 49.953125 -38.4375 C 49.953125 -42.757812 49.710938 -46.25 49.234375 -48.90625 C 48.753906 -51.570312 47.753906 -53.515625 46.234375 -54.734375 C 44.722656 -55.953125 42.367188 -56.5625 39.171875 -56.5625 C 36.691406 -56.5625 34.359375 -56.019531 32.171875 -54.9375 C 29.992188 -53.851562 28.054688 -52.503906 26.359375 -50.890625 C 24.660156 -49.273438 23.25 -47.644531 22.125 -46 L 22.125 0 Z M 12.0625 0 "/></g></g></g><g fill="#5ce1e6" fill-opacity="1"><g transform="translate(821.824793, 1599.170075)"><g><path d="M 63.390625 -69.875 L 66.515625 -60.390625 C 63.835938 -59.554688 60.976562 -59.035156 57.9375 -58.828125 C 54.894531 -58.628906 51.597656 -58.53125 48.046875 -58.53125 C 51.679688 -56.851562 54.414062 -54.6875 56.25 -52.03125 C 58.09375 -49.375 59.015625 -46.242188 59.015625 -42.640625 C 59.015625 -38.484375 58.070312 -34.785156 56.1875 -31.546875 C 54.3125 -28.304688 51.601562 -25.765625 48.0625 -23.921875 C 44.53125 -22.085938 40.265625 -21.171875 35.265625 -21.171875 C 33.148438 -21.171875 31.378906 -21.269531 29.953125 -21.46875 C 28.535156 -21.664062 27.164062 -21.96875 25.84375 -22.375 C 24.882812 -21.726562 24.09375 -20.84375 23.46875 -19.71875 C 22.851562 -18.601562 22.546875 -17.445312 22.546875 -16.25 C 22.546875 -14.726562 23.144531 -13.46875 24.34375 -12.46875 C 25.550781 -11.46875 27.773438 -10.96875 31.015625 -10.96875 L 42.40625 -10.96875 C 46.644531 -10.96875 50.453125 -10.207031 53.828125 -8.6875 C 57.203125 -7.175781 59.859375 -5.140625 61.796875 -2.578125 C 63.742188 -0.015625 64.71875 2.898438 64.71875 6.171875 C 64.71875 12.367188 62.085938 17.128906 56.828125 20.453125 C 51.566406 23.773438 44.140625 25.4375 34.546875 25.4375 C 27.828125 25.4375 22.523438 24.742188 18.640625 23.359375 C 14.765625 21.984375 12 19.882812 10.34375 17.0625 C 8.6875 14.238281 7.859375 10.691406 7.859375 6.421875 L 16.96875 6.421875 C 16.96875 8.859375 17.445312 10.875 18.40625 12.46875 C 19.375 14.070312 21.113281 15.265625 23.625 16.046875 C 26.144531 16.828125 29.765625 17.21875 34.484375 17.21875 C 39.117188 17.21875 42.90625 16.828125 45.84375 16.046875 C 48.789062 15.265625 50.972656 14.101562 52.390625 12.5625 C 53.804688 11.019531 54.515625 9.113281 54.515625 6.84375 C 54.515625 3.84375 53.15625 1.582031 50.4375 0.0625 C 47.71875 -1.457031 44.320312 -2.21875 40.25 -2.21875 L 28.96875 -2.21875 C 23.53125 -2.21875 19.519531 -3.414062 16.9375 -5.8125 C 14.363281 -8.21875 13.078125 -10.976562 13.078125 -14.09375 C 13.078125 -16.132812 13.664062 -18.113281 14.84375 -20.03125 C 16.019531 -21.945312 17.75 -23.644531 20.03125 -25.125 C 16.394531 -27.050781 13.71875 -29.429688 12 -32.265625 C 10.28125 -35.109375 9.421875 -38.546875 9.421875 -42.578125 C 9.421875 -46.859375 10.476562 -50.644531 12.59375 -53.9375 C 14.71875 -57.238281 17.675781 -59.828125 21.46875 -61.703125 C 25.269531 -63.585938 29.648438 -64.53125 34.609375 -64.53125 C 39.921875 -64.570312 44.238281 -64.800781 47.5625 -65.21875 C 50.882812 -65.644531 53.734375 -66.253906 56.109375 -67.046875 C 58.484375 -67.847656 60.910156 -68.789062 63.390625 -69.875 Z M 34.609375 -57.15625 C 29.523438 -57.15625 25.773438 -55.785156 23.359375 -53.046875 C 20.941406 -50.304688 19.734375 -46.816406 19.734375 -42.578125 C 19.734375 -38.304688 20.972656 -34.789062 23.453125 -32.03125 C 25.929688 -29.269531 29.726562 -27.890625 34.84375 -27.890625 C 39.320312 -27.890625 42.726562 -29.1875 45.0625 -31.78125 C 47.40625 -34.382812 48.578125 -38.003906 48.578125 -42.640625 C 48.578125 -47.398438 47.40625 -51.007812 45.0625 -53.46875 C 42.726562 -55.925781 39.242188 -57.15625 34.609375 -57.15625 Z M 34.609375 -57.15625 "/></g></g></g><g fill="#5ce1e6" fill-opacity="1"><g transform="translate(898.590599, 1599.170075)"><g/></g></g><g fill="#5ce1e6" fill-opacity="1"><g transform="translate(975.356404, 1599.170075)"><g><path d="M 55.171875 -41.6875 C 55.171875 -48.882812 54.410156 -54.640625 52.890625 -58.953125 C 51.378906 -63.273438 49.382812 -66.515625 46.90625 -68.671875 C 44.425781 -70.828125 41.710938 -72.265625 38.765625 -72.984375 C 35.828125 -73.710938 32.941406 -74.078125 30.109375 -74.078125 L 20.390625 -74.078125 L 20.390625 -8.34375 L 30.234375 -8.34375 C 33.191406 -8.34375 36.140625 -8.8125 39.078125 -9.75 C 42.015625 -10.6875 44.703125 -12.363281 47.140625 -14.78125 C 49.578125 -17.195312 51.523438 -20.570312 52.984375 -24.90625 C 54.441406 -29.25 55.171875 -34.84375 55.171875 -41.6875 Z M 66.28125 -41.6875 C 66.28125 -33.050781 65.160156 -26.003906 62.921875 -20.546875 C 60.679688 -15.085938 57.71875 -10.867188 54.03125 -7.890625 C 50.351562 -4.910156 46.328125 -2.847656 41.953125 -1.703125 C 37.578125 -0.566406 33.25 0 28.96875 0 L 10.015625 0 L 10.015625 -82.59375 L 27.65625 -82.59375 C 32.488281 -82.59375 37.191406 -82.050781 41.765625 -80.96875 C 46.347656 -79.882812 50.488281 -77.894531 54.1875 -75 C 57.882812 -72.101562 60.820312 -67.972656 63 -62.609375 C 65.1875 -57.253906 66.28125 -50.28125 66.28125 -41.6875 Z M 66.28125 -41.6875 "/></g></g></g><g fill="#5ce1e6" fill-opacity="1"><g transform="translate(1052.122255, 1599.170075)"><g><path d="M 44.015625 -63.15625 L 44.015625 -7.984375 L 61.828125 -7.984375 L 61.828125 0 L 14.453125 0 L 14.453125 -7.984375 L 33.953125 -7.984375 L 33.953125 -55.171875 L 15.046875 -55.171875 L 15.046875 -63.15625 Z M 35.984375 -92.71875 C 38.222656 -92.71875 40.007812 -92.035156 41.34375 -90.671875 C 42.6875 -89.316406 43.359375 -87.660156 43.359375 -85.703125 C 43.359375 -83.660156 42.6875 -81.953125 41.34375 -80.578125 C 40.007812 -79.203125 38.222656 -78.515625 35.984375 -78.515625 C 33.867188 -78.515625 32.128906 -79.203125 30.765625 -80.578125 C 29.410156 -81.953125 28.734375 -83.660156 28.734375 -85.703125 C 28.734375 -87.660156 29.410156 -89.316406 30.765625 -90.671875 C 32.128906 -92.035156 33.867188 -92.71875 35.984375 -92.71875 Z M 35.984375 -92.71875 "/></g></g></g><g fill="#5ce1e6" fill-opacity="1"><g transform="translate(1128.888061, 1599.170075)"><g><path d="M 63.390625 -69.875 L 66.515625 -60.390625 C 63.835938 -59.554688 60.976562 -59.035156 57.9375 -58.828125 C 54.894531 -58.628906 51.597656 -58.53125 48.046875 -58.53125 C 51.679688 -56.851562 54.414062 -54.6875 56.25 -52.03125 C 58.09375 -49.375 59.015625 -46.242188 59.015625 -42.640625 C 59.015625 -38.484375 58.070312 -34.785156 56.1875 -31.546875 C 54.3125 -28.304688 51.601562 -25.765625 48.0625 -23.921875 C 44.53125 -22.085938 40.265625 -21.171875 35.265625 -21.171875 C 33.148438 -21.171875 31.378906 -21.269531 29.953125 -21.46875 C 28.535156 -21.664062 27.164062 -21.96875 25.84375 -22.375 C 24.882812 -21.726562 24.09375 -20.84375 23.46875 -19.71875 C 22.851562 -18.601562 22.546875 -17.445312 22.546875 -16.25 C 22.546875 -14.726562 23.144531 -13.46875 24.34375 -12.46875 C 25.550781 -11.46875 27.773438 -10.96875 31.015625 -10.96875 L 42.40625 -10.96875 C 46.644531 -10.96875 50.453125 -10.207031 53.828125 -8.6875 C 57.203125 -7.175781 59.859375 -5.140625 61.796875 -2.578125 C 63.742188 -0.015625 64.71875 2.898438 64.71875 6.171875 C 64.71875 12.367188 62.085938 17.128906 56.828125 20.453125 C 51.566406 23.773438 44.140625 25.4375 34.546875 25.4375 C 27.828125 25.4375 22.523438 24.742188 18.640625 23.359375 C 14.765625 21.984375 12 19.882812 10.34375 17.0625 C 8.6875 14.238281 7.859375 10.691406 7.859375 6.421875 L 16.96875 6.421875 C 16.96875 8.859375 17.445312 10.875 18.40625 12.46875 C 19.375 14.070312 21.113281 15.265625 23.625 16.046875 C 26.144531 16.828125 29.765625 17.21875 34.484375 17.21875 C 39.117188 17.21875 42.90625 16.828125 45.84375 16.046875 C 48.789062 15.265625 50.972656 14.101562 52.390625 12.5625 C 53.804688 11.019531 54.515625 9.113281 54.515625 6.84375 C 54.515625 3.84375 53.15625 1.582031 50.4375 0.0625 C 47.71875 -1.457031 44.320312 -2.21875 40.25 -2.21875 L 28.96875 -2.21875 C 23.53125 -2.21875 19.519531 -3.414062 16.9375 -5.8125 C 14.363281 -8.21875 13.078125 -10.976562 13.078125 -14.09375 C 13.078125 -16.132812 13.664062 -18.113281 14.84375 -20.03125 C 16.019531 -21.945312 17.75 -23.644531 20.03125 -25.125 C 16.394531 -27.050781 13.71875 -29.429688 12 -32.265625 C 10.28125 -35.109375 9.421875 -38.546875 9.421875 -42.578125 C 9.421875 -46.859375 10.476562 -50.644531 12.59375 -53.9375 C 14.71875 -57.238281 17.675781 -59.828125 21.46875 -61.703125 C 25.269531 -63.585938 29.648438 -64.53125 34.609375 -64.53125 C 39.921875 -64.570312 44.238281 -64.800781 47.5625 -65.21875 C 50.882812 -65.644531 53.734375 -66.253906 56.109375 -67.046875 C 58.484375 -67.847656 60.910156 -68.789062 63.390625 -69.875 Z M 34.609375 -57.15625 C 29.523438 -57.15625 25.773438 -55.785156 23.359375 -53.046875 C 20.941406 -50.304688 19.734375 -46.816406 19.734375 -42.578125 C 19.734375 -38.304688 20.972656 -34.789062 23.453125 -32.03125 C 25.929688 -29.269531 29.726562 -27.890625 34.84375 -27.890625 C 39.320312 -27.890625 42.726562 -29.1875 45.0625 -31.78125 C 47.40625 -34.382812 48.578125 -38.003906 48.578125 -42.640625 C 48.578125 -47.398438 47.40625 -51.007812 45.0625 -53.46875 C 42.726562 -55.925781 39.242188 -57.15625 34.609375 -57.15625 Z M 34.609375 -57.15625 "/></g></g></g><g fill="#5ce1e6" fill-opacity="1"><g transform="translate(1205.653866, 1599.170075)"><g><path d="M 44.015625 -63.15625 L 44.015625 -7.984375 L 61.828125 -7.984375 L 61.828125 0 L 14.453125 0 L 14.453125 -7.984375 L 33.953125 -7.984375 L 33.953125 -55.171875 L 15.046875 -55.171875 L 15.046875 -63.15625 Z M 35.984375 -92.71875 C 38.222656 -92.71875 40.007812 -92.035156 41.34375 -90.671875 C 42.6875 -89.316406 43.359375 -87.660156 43.359375 -85.703125 C 43.359375 -83.660156 42.6875 -81.953125 41.34375 -80.578125 C 40.007812 -79.203125 38.222656 -78.515625 35.984375 -78.515625 C 33.867188 -78.515625 32.128906 -79.203125 30.765625 -80.578125 C 29.410156 -81.953125 28.734375 -83.660156 28.734375 -85.703125 C 28.734375 -87.660156 29.410156 -89.316406 30.765625 -90.671875 C 32.128906 -92.035156 33.867188 -92.71875 35.984375 -92.71875 Z M 35.984375 -92.71875 "/></g></g></g><g fill="#5ce1e6" fill-opacity="1"><g transform="translate(1282.419672, 1599.170075)"><g><path d="M 62.203125 -3.171875 C 60.035156 -1.734375 57.410156 -0.617188 54.328125 0.171875 C 51.253906 0.972656 48.238281 1.375 45.28125 1.375 C 38.488281 1.375 33.25 -0.398438 29.5625 -3.953125 C 25.882812 -7.515625 24.046875 -12.09375 24.046875 -17.6875 L 24.046875 -55.359375 L 9.53125 -55.359375 L 9.53125 -63.15625 L 24.046875 -63.15625 L 24.046875 -77.484375 L 34.125 -78.6875 L 34.125 -63.15625 L 55.953125 -63.15625 L 54.765625 -55.359375 L 34.125 -55.359375 L 34.125 -17.8125 C 34.125 -14.289062 35.050781 -11.609375 36.90625 -9.765625 C 38.769531 -7.929688 41.863281 -7.015625 46.1875 -7.015625 C 48.539062 -7.015625 50.71875 -7.296875 52.71875 -7.859375 C 54.71875 -8.421875 56.578125 -9.140625 58.296875 -10.015625 Z M 62.203125 -3.171875 "/></g></g></g><g fill="#5ce1e6" fill-opacity="1"><g transform="translate(1359.185478, 1599.170075)"><g><path d="M 57.28125 -13.796875 C 57.28125 -11.273438 57.695312 -9.429688 58.53125 -8.265625 C 59.375 -7.109375 60.675781 -6.253906 62.4375 -5.703125 L 59.984375 1.375 C 57.253906 1.019531 54.867188 0.15625 52.828125 -1.21875 C 50.796875 -2.601562 49.320312 -4.695312 48.40625 -7.5 C 46.125 -4.582031 43.28125 -2.375 39.875 -0.875 C 36.476562 0.625 32.722656 1.375 28.609375 1.375 C 22.285156 1.375 17.304688 -0.398438 13.671875 -3.953125 C 10.035156 -7.515625 8.21875 -12.234375 8.21875 -18.109375 C 8.21875 -24.628906 10.753906 -29.628906 15.828125 -33.109375 C 20.910156 -36.585938 28.25 -38.328125 37.84375 -38.328125 L 47.140625 -38.328125 L 47.140625 -43.609375 C 47.140625 -48.160156 45.8125 -51.382812 43.15625 -53.28125 C 40.5 -55.1875 36.8125 -56.140625 32.09375 -56.140625 C 30.007812 -56.140625 27.566406 -55.890625 24.765625 -55.390625 C 21.972656 -54.890625 18.9375 -54.0625 15.65625 -52.90625 L 13.015625 -60.515625 C 16.890625 -61.953125 20.523438 -62.96875 23.921875 -63.5625 C 27.328125 -64.164062 30.566406 -64.46875 33.640625 -64.46875 C 41.523438 -64.46875 47.4375 -62.640625 51.375 -58.984375 C 55.3125 -55.328125 57.28125 -50.359375 57.28125 -44.078125 Z M 31.1875 -6.296875 C 34.300781 -6.296875 37.273438 -7.082031 40.109375 -8.65625 C 42.953125 -10.238281 45.296875 -12.429688 47.140625 -15.234375 L 47.140625 -31.484375 L 38.03125 -31.484375 C 31.070312 -31.484375 26.160156 -30.285156 23.296875 -27.890625 C 20.441406 -25.492188 19.015625 -22.273438 19.015625 -18.234375 C 19.015625 -14.316406 20.019531 -11.347656 22.03125 -9.328125 C 24.050781 -7.304688 27.101562 -6.296875 31.1875 -6.296875 Z M 31.1875 -6.296875 "/></g></g></g><g fill="#5ce1e6" fill-opacity="1"><g transform="translate(1435.951283, 1599.170075)"><g><path d="M 36.640625 -88.578125 L 36.640625 -15.59375 C 36.640625 -12.476562 37.609375 -10.269531 39.546875 -8.96875 C 41.492188 -7.664062 44.003906 -7.015625 47.078125 -7.015625 C 48.992188 -7.015625 50.8125 -7.210938 52.53125 -7.609375 C 54.257812 -8.015625 55.984375 -8.554688 57.703125 -9.234375 L 60.390625 -1.859375 C 58.671875 -1.015625 56.539062 -0.265625 54 0.390625 C 51.46875 1.046875 48.601562 1.375 45.40625 1.375 C 39.800781 1.375 35.257812 -0.171875 31.78125 -3.265625 C 28.300781 -6.367188 26.5625 -10.660156 26.5625 -16.140625 L 26.5625 -80.609375 L 7.203125 -80.609375 L 7.203125 -88.578125 Z M 36.640625 -88.578125 "/></g></g></g><g fill="#5ce1e6" fill-opacity="1"><g transform="translate(1512.717089, 1599.170075)"><g/></g></g><g fill="#5ce1e6" fill-opacity="1"><g transform="translate(1589.482894, 1599.170075)"><g><path d="M 37.609375 1.375 C 31.085938 1.375 25.414062 -0.203125 20.59375 -3.359375 C 15.78125 -6.515625 12.050781 -11.25 9.40625 -17.5625 C 6.769531 -23.882812 5.453125 -31.804688 5.453125 -41.328125 C 5.453125 -48.441406 6.398438 -54.65625 8.296875 -59.96875 C 10.203125 -65.289062 12.785156 -69.726562 16.046875 -73.28125 C 19.304688 -76.84375 23.003906 -79.503906 27.140625 -81.265625 C 31.273438 -83.023438 35.5625 -83.90625 40 -83.90625 C 45.394531 -83.90625 49.875 -83.132812 53.4375 -81.59375 C 57 -80.050781 60.398438 -77.800781 63.640625 -74.84375 L 57.34375 -68.3125 C 54.820312 -70.675781 52.171875 -72.414062 49.390625 -73.53125 C 46.609375 -74.644531 43.5 -75.203125 40.0625 -75.203125 C 37.0625 -75.203125 34.160156 -74.625 31.359375 -73.46875 C 28.566406 -72.3125 26.0625 -70.421875 23.84375 -67.796875 C 21.625 -65.179688 19.863281 -61.710938 18.5625 -57.390625 C 17.257812 -53.078125 16.609375 -47.722656 16.609375 -41.328125 C 16.609375 -33.367188 17.4375 -26.890625 19.09375 -21.890625 C 20.757812 -16.890625 23.222656 -13.21875 26.484375 -10.875 C 29.742188 -8.539062 33.769531 -7.375 38.5625 -7.375 C 41.445312 -7.375 44.175781 -7.710938 46.75 -8.390625 C 49.332031 -9.078125 51.84375 -10.054688 54.28125 -11.328125 L 54.28125 -36.53125 L 38.03125 -36.53125 L 36.765625 -45.15625 L 64.59375 -45.15625 L 64.59375 -5.8125 C 60.875 -3.8125 56.914062 -2.113281 52.71875 -0.71875 C 48.519531 0.675781 43.484375 1.375 37.609375 1.375 Z M 37.609375 1.375 "/></g></g></g><g fill="#5ce1e6" fill-opacity="1"><g transform="translate(1666.2487, 1599.170075)"><g><path d="M 12.65625 0 L 12.65625 -7.734375 L 22.484375 -7.734375 L 22.484375 -55.421875 L 12.65625 -55.421875 L 12.65625 -63.15625 L 30.171875 -63.15625 L 32.03125 -48.21875 C 34.46875 -53.414062 37.425781 -57.429688 40.90625 -60.265625 C 44.382812 -63.109375 48.984375 -64.53125 54.703125 -64.53125 C 56.460938 -64.53125 58.03125 -64.398438 59.40625 -64.140625 C 60.78125 -63.878906 62.191406 -63.550781 63.640625 -63.15625 L 60.703125 -54.15625 C 59.378906 -54.519531 58.175781 -54.789062 57.09375 -54.96875 C 56.019531 -55.144531 54.78125 -55.234375 53.375 -55.234375 C 48.539062 -55.234375 44.382812 -53.515625 40.90625 -50.078125 C 37.425781 -46.640625 34.644531 -41.441406 32.5625 -34.484375 L 32.5625 -7.734375 L 45.40625 -7.734375 L 45.40625 0 Z M 53.921875 -41.796875 L 53.921875 -55.53125 L 54.9375 -63.15625 L 63.640625 -63.15625 L 62.203125 -41.796875 Z M 53.921875 -41.796875 "/></g></g></g><g fill="#5ce1e6" fill-opacity="1"><g transform="translate(1743.014505, 1599.170075)"><g><path d="M 36.109375 -64.46875 C 42.066406 -64.46875 47.050781 -63.117188 51.0625 -60.421875 C 55.082031 -57.722656 58.101562 -53.914062 60.125 -49 C 62.144531 -44.082031 63.15625 -38.285156 63.15625 -31.609375 C 63.15625 -25.171875 62.113281 -19.472656 60.03125 -14.515625 C 57.957031 -9.554688 54.910156 -5.664062 50.890625 -2.84375 C 46.867188 -0.03125 41.898438 1.375 35.984375 1.375 C 30.066406 1.375 25.085938 0.015625 21.046875 -2.703125 C 17.015625 -5.421875 13.96875 -9.25 11.90625 -14.1875 C 9.84375 -19.125 8.8125 -24.890625 8.8125 -31.484375 C 8.8125 -38.003906 9.847656 -43.742188 11.921875 -48.703125 C 14.003906 -53.660156 17.078125 -57.523438 21.140625 -60.296875 C 25.203125 -63.078125 30.191406 -64.46875 36.109375 -64.46875 Z M 36.109375 -56.265625 C 30.671875 -56.265625 26.5625 -54.253906 23.78125 -50.234375 C 21 -46.210938 19.609375 -39.960938 19.609375 -31.484375 C 19.609375 -23.171875 20.976562 -16.992188 23.71875 -12.953125 C 26.457031 -8.910156 30.546875 -6.890625 35.984375 -6.890625 C 41.421875 -6.890625 45.507812 -8.910156 48.25 -12.953125 C 50.988281 -16.992188 52.359375 -23.210938 52.359375 -31.609375 C 52.359375 -40.003906 51 -46.210938 48.28125 -50.234375 C 45.5625 -54.253906 41.503906 -56.265625 36.109375 -56.265625 Z M 36.109375 -56.265625 "/></g></g></g><g fill="#5ce1e6" fill-opacity="1"><g transform="translate(1819.780402, 1599.170075)"><g><path d="M 58.84375 0 L 44.5625 0 L 36.40625 -46.359375 L 27.53125 0 L 13.609375 0 L 2.09375 -63.15625 L 12.421875 -63.15625 L 20.453125 -6.234375 L 30.53125 -55.125 L 42.46875 -55.125 L 52 -6.234375 L 60.03125 -63.15625 L 69.875 -63.15625 Z M 58.84375 0 "/></g></g></g><g fill="#5ce1e6" fill-opacity="1"><g transform="translate(1896.546208, 1599.170075)"><g><path d="M 62.203125 -3.171875 C 60.035156 -1.734375 57.410156 -0.617188 54.328125 0.171875 C 51.253906 0.972656 48.238281 1.375 45.28125 1.375 C 38.488281 1.375 33.25 -0.398438 29.5625 -3.953125 C 25.882812 -7.515625 24.046875 -12.09375 24.046875 -17.6875 L 24.046875 -55.359375 L 9.53125 -55.359375 L 9.53125 -63.15625 L 24.046875 -63.15625 L 24.046875 -77.484375 L 34.125 -78.6875 L 34.125 -63.15625 L 55.953125 -63.15625 L 54.765625 -55.359375 L 34.125 -55.359375 L 34.125 -17.8125 C 34.125 -14.289062 35.050781 -11.609375 36.90625 -9.765625 C 38.769531 -7.929688 41.863281 -7.015625 46.1875 -7.015625 C 48.539062 -7.015625 50.71875 -7.296875 52.71875 -7.859375 C 54.71875 -8.421875 56.578125 -9.140625 58.296875 -10.015625 Z M 62.203125 -3.171875 "/></g></g></g><g fill="#5ce1e6" fill-opacity="1"><g transform="translate(1973.312013, 1599.170075)"><g><path d="M 22.125 -89.546875 L 22.125 -54.515625 C 24.601562 -57.835938 27.648438 -60.328125 31.265625 -61.984375 C 34.890625 -63.640625 38.5625 -64.46875 42.28125 -64.46875 C 48.4375 -64.46875 52.929688 -62.828125 55.765625 -59.546875 C 58.609375 -56.273438 60.03125 -51.71875 60.03125 -45.875 L 60.03125 0 L 49.953125 0 L 49.953125 -45.640625 C 49.953125 -49.441406 49.070312 -52.210938 47.3125 -53.953125 C 45.5625 -55.691406 42.804688 -56.5625 39.046875 -56.5625 C 36.648438 -56.5625 34.367188 -56.019531 32.203125 -54.9375 C 30.046875 -53.851562 28.109375 -52.507812 26.390625 -50.90625 C 24.671875 -49.3125 23.25 -47.675781 22.125 -46 L 22.125 0 L 12.0625 0 L 12.0625 -88.46875 Z M 22.125 -89.546875 "/></g></g></g></svg>