<svg width="128" height="128" viewBox="0 0 128 128" fill="none" xmlns="http://www.w3.org/2000/svg">
<path d="M104 8H120V24H104V8ZM104 32H120V48H104V32ZM80 8H96V24H80V8ZM80 32H96V48H80V32Z" fill="#0652E9"/>
<path d="M112 64V88H16V24H64V16H16C13.8783 16 11.8434 16.8429 10.3431 18.3431C8.84285 19.8434 8 21.8783 8 24V88C8 90.1217 8.84285 92.1566 10.3431 93.6569C11.8434 95.1571 13.8783 96 16 96H48V112H32V120H96V112H80V96H112C114.122 96 116.157 95.1571 117.657 93.6569C119.157 92.1566 120 90.1217 120 88V64H112ZM72 112H56V96H72V112Z" fill="#0652E9"/>
</svg>
