<svg width="128" height="128" viewBox="0 0 128 128" fill="none" xmlns="http://www.w3.org/2000/svg">
<path d="M90.2857 8H104V21.7143H90.2857V8ZM90.2857 28.5714H104V42.2857H90.2857V28.5714ZM69.7143 8H83.4286V21.7143H69.7143V8ZM69.7143 28.5714H83.4286V42.2857H69.7143V28.5714Z" fill="#0652E9"/>
<path d="M97.1429 56V76.5714H14.8571V21.7143H56V14.8571H14.8571C13.0385 14.8571 11.2943 15.5796 10.0084 16.8655C8.72244 18.1515 8 19.8957 8 21.7143V76.5714C8 78.39 8.72244 80.1342 10.0084 81.4202C11.2943 82.7061 13.0385 83.4286 14.8571 83.4286H42.2857V97.1429H28.5714V104H83.4286V97.1429H69.7143V83.4286H97.1429C98.9617 83.4286 100.706 82.7061 101.992 81.4202C103.277 80.1342 104 78.39 104 76.5714V56H97.1429ZM62.8571 97.1429H49.1429V83.4286H62.8571V97.1429Z" fill="#0652E9"/>
</svg>
