<svg xmlns="http://www.w3.org/2000/svg" xmlns:xlink="http://www.w3.org/1999/xlink" width="3000" zoomAndPan="magnify" viewBox="0 0 2250 2250.000011" height="3000" preserveAspectRatio="xMidYMid meet" version="1.0"><path fill="#0652e9" d="M 835.722656 1414.769531 C 838.824219 1412.230469 841.820312 1409.59375 844.863281 1407.027344 L 847.132812 1405.058594 L 849.535156 1402.925781 L 854.324219 1398.65625 C 857.851562 1395.53125 859.851562 1393.5625 862.3125 1391.238281 L 866.710938 1387.050781 L 870.730469 1383.046875 C 876.136719 1377.71875 881.308594 1372.324219 886.453125 1366.933594 C 896.601562 1356.085938 906.425781 1345.21875 915.625 1334.199219 C 924.789062 1323.15625 933.625 1312.105469 941.945312 1301.042969 C 950.359375 1290.027344 958.359375 1278.976562 965.929688 1267.960938 C 981.203125 1245.949219 995.152344 1224.230469 1008.148438 1202.914062 C 1021.246094 1181.660156 1033.28125 1160.78125 1044.921875 1140.566406 C 1068.0625 1100.101562 1089.164062 1062.035156 1109.78125 1026.929688 C 1130.449219 991.859375 1150.511719 959.582031 1171.023438 930.71875 C 1211.660156 872.742188 1253.953125 827.785156 1294.027344 795.042969 C 1304 786.84375 1313.71875 779.269531 1323.207031 772.546875 C 1327.890625 769.074219 1332.566406 765.910156 1337.054688 762.710938 C 1341.5625 759.589844 1346.042969 756.726562 1350.324219 753.867188 C 1358.996094 748.386719 1367.160156 743.378906 1374.761719 738.890625 C 1378.527344 736.558594 1382.238281 734.617188 1385.738281 732.613281 C 1389.226562 730.617188 1392.589844 728.804688 1395.78125 727.113281 C 1402.15625 723.628906 1407.816406 720.613281 1412.78125 718.191406 C 1417.722656 715.679688 1421.917969 713.472656 1425.378906 711.871094 C 1432.226562 708.523438 1435.757812 706.792969 1435.757812 706.792969 C 1435.757812 706.792969 1431.824219 706.960938 1424.207031 707.292969 C 1420.398438 707.460938 1415.667969 707.738281 1410.035156 708.300781 C 1404.359375 708.773438 1397.832031 709.511719 1390.4375 710.429688 C 1361.019531 714.4375 1317.179688 722.527344 1264.164062 744.816406 C 1237.714844 755.90625 1209.21875 770.703125 1179.757812 789.550781 C 1150.296875 808.417969 1120.367188 831.816406 1090.613281 858.792969 C 1060.984375 885.878906 1031.585938 916.609375 1003.027344 949.917969 C 988.613281 966.503906 974.523438 983.839844 960.269531 1001.382812 C 946.179688 1019.03125 931.984375 1036.996094 917.8125 1055.15625 C 861.039062 1127.617188 803.027344 1203.304688 732.847656 1259.101562 L 730.054688 1261.246094 L 728.664062 1262.347656 L 727.0625 1263.535156 C 724.925781 1265.109375 722.816406 1266.757812 720.636719 1268.292969 C 716.328125 1271.402344 711.9375 1274.417969 707.515625 1277.375 C 698.628906 1283.191406 689.542969 1288.632812 680.28125 1293.695312 C 661.742188 1303.789062 642.296875 1311.882812 622.410156 1318.117188 C 612.449219 1321.199219 602.351562 1323.738281 592.15625 1325.707031 C 581.984375 1327.726562 571.726562 1329.21875 561.410156 1330.058594 C 540.792969 1331.730469 520.039062 1331.105469 499.605469 1328.074219 C 479.203125 1324.867188 459.105469 1319.429688 439.945312 1311.40625 C 430.375 1307.363281 421.074219 1302.675781 411.960938 1297.558594 C 402.910156 1292.355469 394.148438 1286.550781 385.746094 1280.175781 C 377.421875 1273.703125 369.300781 1266.84375 361.648438 1259.378906 C 357.867188 1255.585938 354.085938 1251.777344 350.53125 1247.71875 L 349.175781 1246.214844 C 349.265625 1246.351562 347.988281 1244.832031 349.21875 1246.351562 L 348.332031 1245.25 L 344.757812 1240.925781 C 343.261719 1238.957031 342.378906 1237.953125 340.648438 1235.585938 C 328.21875 1219.015625 317.9375 1200.460938 310.28125 1180.308594 C 294.921875 1140.082031 290.476562 1093.445312 297.460938 1048.335938 C 304.308594 1003.226562 323.183594 960.101562 350.683594 927.277344 C 378.3125 894.363281 414.1875 872.429688 455.785156 863.253906 C 484.847656 856.753906 516.957031 856.863281 550.035156 862.40625 C 550.945312 868.84375 552.1875 875.308594 553.859375 881.765625 C 577.839844 974.632812 672.5625 1030.46875 765.429688 1006.488281 C 858.304688 982.515625 914.136719 887.789062 890.160156 794.917969 C 866.183594 702.050781 771.460938 646.203125 678.585938 670.191406 C 654.960938 676.289062 633.753906 686.96875 615.621094 701.046875 C 608.433594 699.039062 601.1875 697.125 593.816406 695.425781 C 575.953125 691.214844 557.570312 687.949219 538.722656 685.910156 C 501.09375 681.726562 461.546875 682.273438 422.054688 689.425781 C 382.585938 696.457031 343.371094 710.292969 307.726562 730.503906 C 271.976562 750.59375 240.011719 776.882812 213.148438 806.816406 C 186.304688 836.824219 164.46875 870.410156 147.863281 905.898438 C 131.199219 941.367188 119.464844 978.625 112.59375 1016.617188 C 98.742188 1092.511719 104.328125 1171.90625 130.546875 1245.804688 C 143.679688 1282.671875 162.066406 1318.035156 185.3125 1349.875 C 187.96875 1353.617188 191.757812 1358.5 194.859375 1362.488281 L 198.378906 1366.882812 L 203.433594 1373.03125 C 209.515625 1380.46875 215.953125 1387.609375 222.515625 1394.625 C 235.746094 1408.574219 249.863281 1421.699219 264.847656 1433.699219 C 324.699219 1481.957031 397.390625 1512.644531 470.914062 1523.050781 C 489.296875 1525.671875 507.730469 1527.152344 526.050781 1527.53125 C 544.378906 1527.835938 562.578125 1526.898438 580.523438 1525.027344 C 616.449219 1521.335938 651.226562 1513.074219 684.023438 1501.511719 C 716.890625 1490.046875 747.667969 1474.957031 776.046875 1457.589844 C 790.253906 1448.941406 803.851562 1439.652344 816.769531 1429.800781 C 823.214844 1424.867188 829.550781 1419.886719 835.722656 1414.769531 " fill-opacity="1" fill-rule="nonzero"/><path fill="#00adef" d="M 2108.070312 1003.183594 C 2094.945312 966.3125 2076.554688 930.953125 2053.300781 899.109375 C 2050.652344 895.375 2046.855469 890.480469 2043.757812 886.5 L 2040.234375 882.097656 L 2035.175781 875.945312 C 2029.101562 868.523438 2022.65625 861.382812 2016.089844 854.359375 C 2002.871094 840.414062 1988.753906 827.28125 1973.769531 815.28125 C 1913.917969 767.015625 1841.222656 736.339844 1767.691406 725.9375 C 1749.3125 723.316406 1730.878906 721.835938 1712.5625 721.464844 C 1694.234375 721.152344 1676.035156 722.070312 1658.089844 723.972656 C 1622.167969 727.660156 1587.390625 735.914062 1554.582031 747.453125 C 1521.734375 758.925781 1490.9375 774.027344 1462.578125 791.394531 C 1448.363281 800.046875 1434.777344 809.339844 1421.835938 819.175781 C 1415.390625 824.113281 1409.066406 829.109375 1402.902344 834.21875 C 1399.785156 836.753906 1396.777344 839.390625 1393.742188 841.96875 L 1391.488281 843.921875 L 1389.074219 846.042969 L 1384.289062 850.324219 C 1380.777344 853.453125 1378.761719 855.4375 1376.304688 857.753906 L 1371.902344 861.941406 L 1367.867188 865.945312 C 1362.472656 871.25 1357.320312 876.660156 1352.160156 882.054688 C 1342.007812 892.886719 1332.183594 903.761719 1322.980469 914.789062 C 1313.828125 925.828125 1304.996094 936.894531 1296.664062 947.9375 C 1288.246094 958.976562 1280.25 970 1272.691406 981.027344 C 1257.414062 1003.03125 1243.46875 1024.742188 1230.457031 1046.074219 C 1217.371094 1067.328125 1205.328125 1088.207031 1193.695312 1108.421875 C 1170.554688 1148.878906 1149.453125 1186.957031 1128.835938 1222.066406 C 1108.164062 1257.132812 1088.101562 1289.394531 1067.582031 1318.285156 C 1026.957031 1376.253906 984.660156 1421.210938 944.589844 1453.945312 C 934.613281 1462.152344 924.886719 1469.722656 915.40625 1476.449219 C 910.71875 1479.902344 906.039062 1483.085938 901.5625 1486.277344 C 897.050781 1489.40625 892.570312 1492.25 888.289062 1495.121094 C 879.613281 1500.589844 871.445312 1505.597656 863.855469 1510.105469 C 860.085938 1512.429688 856.375 1514.359375 852.882812 1516.363281 C 849.382812 1518.359375 846.035156 1520.171875 842.824219 1521.863281 C 836.464844 1525.351562 830.792969 1528.363281 825.828125 1530.804688 C 820.898438 1533.316406 816.691406 1535.507812 813.238281 1537.125 C 806.382812 1540.46875 802.847656 1542.195312 802.847656 1542.195312 C 802.847656 1542.195312 806.792969 1542.015625 814.410156 1541.695312 C 818.210938 1541.53125 822.9375 1541.238281 828.582031 1540.675781 C 834.253906 1540.21875 840.78125 1539.46875 848.175781 1538.558594 C 877.59375 1534.542969 921.433594 1526.449219 974.449219 1504.175781 C 1000.894531 1493.089844 1029.390625 1478.285156 1058.863281 1459.441406 C 1088.308594 1440.570312 1118.242188 1417.175781 1148 1390.203125 C 1177.628906 1363.097656 1207.027344 1332.386719 1235.601562 1299.0625 C 1249.988281 1282.492188 1264.082031 1265.15625 1278.335938 1247.605469 C 1292.425781 1229.945312 1306.625 1211.992188 1320.808594 1193.820312 C 1377.5625 1121.359375 1435.589844 1045.6875 1505.769531 989.886719 L 1508.558594 987.742188 L 1509.949219 986.640625 L 1511.550781 985.457031 C 1513.6875 983.871094 1515.804688 982.242188 1517.96875 980.703125 C 1522.277344 977.574219 1526.679688 974.566406 1531.09375 971.617188 C 1539.988281 965.792969 1549.070312 960.355469 1558.332031 955.289062 C 1576.882812 945.191406 1596.324219 937.105469 1616.195312 930.867188 C 1626.15625 927.800781 1636.28125 925.25 1646.457031 923.277344 C 1656.625 921.261719 1666.890625 919.769531 1677.207031 918.925781 C 1697.816406 917.261719 1718.582031 917.882812 1739.015625 920.90625 C 1759.402344 924.105469 1779.515625 929.558594 1798.671875 937.5625 C 1808.246094 941.625 1817.542969 946.304688 1826.652344 951.421875 C 1835.707031 956.632812 1844.464844 962.441406 1852.882812 968.800781 C 1861.195312 975.273438 1869.316406 982.140625 1876.976562 989.605469 C 1880.757812 993.402344 1884.53125 997.222656 1888.089844 1001.269531 L 1889.4375 1002.777344 C 1889.332031 1002.632812 1890.640625 1004.175781 1889.394531 1002.632812 L 1890.28125 1003.742188 L 1893.855469 1008.070312 C 1895.355469 1010.027344 1896.226562 1011.035156 1897.976562 1013.402344 C 1910.390625 1029.984375 1920.691406 1048.527344 1928.324219 1068.6875 C 1943.707031 1108.917969 1948.152344 1155.542969 1941.140625 1200.640625 C 1934.296875 1245.761719 1915.433594 1288.878906 1887.925781 1321.699219 C 1860.308594 1354.632812 1824.429688 1376.558594 1782.832031 1385.722656 C 1753.757812 1392.238281 1721.648438 1392.113281 1688.570312 1386.589844 C 1687.65625 1380.144531 1686.425781 1373.6875 1684.753906 1367.230469 C 1660.773438 1274.355469 1566.054688 1218.507812 1473.1875 1242.5 C 1380.320312 1266.460938 1324.464844 1361.203125 1348.453125 1454.070312 C 1372.433594 1546.925781 1467.152344 1602.78125 1560.019531 1578.800781 C 1583.640625 1572.695312 1604.863281 1562.007812 1622.984375 1547.933594 C 1630.171875 1549.957031 1637.4375 1551.851562 1644.8125 1553.570312 C 1662.65625 1557.765625 1681.046875 1561.042969 1699.894531 1563.082031 C 1737.515625 1567.25 1777.070312 1566.707031 1816.5625 1559.566406 C 1856.035156 1552.535156 1895.246094 1538.683594 1930.882812 1518.484375 C 1966.628906 1498.402344 1998.621094 1472.105469 2025.472656 1442.160156 C 2052.308594 1412.171875 2074.152344 1378.558594 2090.765625 1343.082031 C 2107.421875 1307.644531 2119.140625 1270.367188 2126.019531 1232.375 C 2139.875 1156.480469 2134.285156 1077.078125 2108.070312 1003.183594 " fill-opacity="1" fill-rule="nonzero"/></svg>