<svg xmlns="http://www.w3.org/2000/svg" xmlns:xlink="http://www.w3.org/1999/xlink" width="3000" zoomAndPan="magnify" viewBox="0 0 2250 2250.000011" height="3000" preserveAspectRatio="xMidYMid meet" version="1.0"><defs><clipPath id="7b8a675ef5"><path d="M 0.5 0 L 2249.5 0 L 2249.5 2249 L 0.5 2249 Z M 0.5 0 " clip-rule="nonzero"/></clipPath></defs><g clip-path="url(#7b8a675ef5)"><path fill="#ffffff" d="M 0.5 0 L 2249.5 0 L 2249.5 2249 L 0.5 2249 Z M 0.5 0 " fill-opacity="1" fill-rule="nonzero"/><path fill="#ffffff" d="M 0.5 0 L 2249.5 0 L 2249.5 2249 L 0.5 2249 Z M 0.5 0 " fill-opacity="1" fill-rule="nonzero"/></g><path fill="#0652e9" d="M 839.605469 1416.695312 C 842.726562 1414.140625 845.742188 1411.484375 848.804688 1408.902344 L 851.089844 1406.921875 L 853.507812 1404.773438 L 858.332031 1400.476562 C 861.878906 1397.328125 863.890625 1395.347656 866.371094 1393.007812 L 870.796875 1388.792969 L 874.84375 1384.761719 C 880.285156 1379.398438 885.492188 1373.96875 890.667969 1368.542969 C 900.886719 1357.625 910.777344 1346.679688 920.035156 1335.589844 C 929.261719 1324.472656 938.15625 1313.351562 946.53125 1302.214844 C 955 1291.125 963.054688 1280.003906 970.675781 1268.910156 C 986.050781 1246.753906 1000.09375 1224.890625 1013.171875 1203.433594 C 1026.359375 1182.039062 1038.476562 1161.019531 1050.191406 1140.671875 C 1073.484375 1099.941406 1094.726562 1061.617188 1115.480469 1026.277344 C 1136.285156 990.976562 1156.480469 958.484375 1177.132812 929.433594 C 1218.039062 871.070312 1260.609375 825.8125 1300.953125 792.855469 C 1310.988281 784.601562 1320.773438 776.976562 1330.324219 770.207031 C 1335.039062 766.714844 1339.746094 763.527344 1344.265625 760.308594 C 1348.800781 757.164062 1353.308594 754.285156 1357.621094 751.40625 C 1366.351562 745.886719 1374.570312 740.847656 1382.222656 736.328125 C 1386.011719 733.980469 1389.746094 732.027344 1393.273438 730.007812 C 1396.785156 728.003906 1400.167969 726.175781 1403.382812 724.476562 C 1409.800781 720.964844 1415.496094 717.933594 1420.496094 715.492188 C 1425.46875 712.960938 1429.691406 710.742188 1433.175781 709.128906 C 1440.070312 705.761719 1443.625 704.015625 1443.625 704.015625 C 1443.625 704.015625 1439.664062 704.1875 1431.996094 704.519531 C 1428.164062 704.691406 1423.402344 704.972656 1417.730469 705.535156 C 1412.015625 706.011719 1405.445312 706.753906 1398 707.679688 C 1368.386719 711.710938 1324.257812 719.855469 1270.890625 742.296875 C 1244.265625 753.457031 1215.582031 768.355469 1185.925781 787.324219 C 1156.265625 806.320312 1126.140625 829.871094 1096.1875 857.027344 C 1066.359375 884.292969 1036.769531 915.226562 1008.019531 948.757812 C 993.511719 965.453125 979.328125 982.90625 964.976562 1000.566406 C 950.792969 1018.332031 936.507812 1036.414062 922.238281 1054.695312 C 865.089844 1127.640625 806.691406 1203.828125 736.046875 1259.992188 L 733.230469 1262.15625 L 731.832031 1263.261719 L 730.222656 1264.457031 C 728.070312 1266.042969 725.949219 1267.699219 723.753906 1269.246094 C 719.417969 1272.378906 714.996094 1275.410156 710.546875 1278.390625 C 701.601562 1284.242188 692.453125 1289.722656 683.128906 1294.816406 C 664.46875 1304.980469 644.894531 1313.125 624.875 1319.398438 C 614.847656 1322.503906 604.683594 1325.058594 594.421875 1327.039062 C 584.183594 1329.074219 573.855469 1330.578125 563.472656 1331.421875 C 542.714844 1333.105469 521.824219 1332.476562 501.257812 1329.425781 C 480.714844 1326.195312 460.488281 1320.722656 441.199219 1312.648438 C 431.566406 1308.578125 422.203125 1303.855469 413.027344 1298.707031 C 403.917969 1293.46875 395.097656 1287.625 386.640625 1281.207031 C 378.257812 1274.691406 370.085938 1267.789062 362.378906 1260.273438 C 358.574219 1256.457031 354.765625 1252.621094 351.191406 1248.535156 L 349.824219 1247.023438 C 349.917969 1247.160156 348.628906 1245.628906 349.867188 1247.160156 L 348.976562 1246.050781 L 345.378906 1241.695312 C 343.875 1239.714844 342.984375 1238.707031 341.242188 1236.320312 C 328.730469 1219.640625 318.378906 1200.964844 310.675781 1180.675781 C 295.210938 1140.183594 290.738281 1093.238281 297.769531 1047.828125 C 304.664062 1002.417969 323.664062 959.007812 351.34375 925.964844 C 379.15625 892.832031 415.269531 870.757812 457.140625 861.519531 C 486.398438 854.976562 518.71875 855.085938 552.019531 860.664062 C 552.933594 867.148438 554.183594 873.652344 555.867188 880.152344 C 580.007812 973.636719 675.363281 1029.84375 768.84375 1005.707031 C 862.335938 981.570312 918.539062 886.21875 894.40625 792.730469 C 870.265625 699.246094 774.917969 643.023438 681.421875 667.175781 C 657.640625 673.3125 636.292969 684.0625 618.039062 698.234375 C 610.804688 696.210938 603.511719 694.285156 596.089844 692.574219 C 578.109375 688.335938 559.605469 685.050781 540.632812 683 C 502.753906 678.785156 462.945312 679.335938 423.191406 686.535156 C 383.457031 693.613281 343.984375 707.542969 308.101562 727.886719 C 272.117188 748.109375 239.9375 774.574219 212.894531 804.707031 C 185.871094 834.914062 163.894531 868.722656 147.175781 904.445312 C 130.402344 940.148438 118.589844 977.65625 111.671875 1015.902344 C 97.730469 1092.300781 103.351562 1172.21875 129.746094 1246.609375 C 142.964844 1283.722656 161.476562 1319.316406 184.875 1351.371094 C 187.550781 1355.140625 191.363281 1360.054688 194.484375 1364.070312 L 198.027344 1368.488281 L 203.117188 1374.683594 C 209.238281 1382.167969 215.722656 1389.355469 222.324219 1396.417969 C 235.640625 1410.460938 249.851562 1423.671875 264.9375 1435.75 C 325.1875 1484.328125 398.359375 1515.21875 472.375 1525.695312 C 490.878906 1528.335938 509.433594 1529.824219 527.875 1530.203125 C 546.324219 1530.511719 564.644531 1529.566406 582.710938 1527.6875 C 618.875 1523.96875 653.882812 1515.652344 686.894531 1504.015625 C 719.980469 1492.472656 750.964844 1477.28125 779.53125 1459.800781 C 793.835938 1451.097656 807.519531 1441.746094 820.523438 1431.828125 C 827.011719 1426.859375 833.390625 1421.847656 839.605469 1416.695312 " fill-opacity="1" fill-rule="nonzero"/><path fill="#00adef" d="M 2120.398438 1002.375 C 2107.1875 965.261719 2088.675781 929.667969 2065.265625 897.609375 C 2062.601562 893.851562 2058.777344 888.925781 2055.660156 884.917969 L 2052.113281 880.484375 L 2047.023438 874.292969 C 2040.90625 866.824219 2034.417969 859.632812 2027.808594 852.5625 C 2014.503906 838.527344 2000.292969 825.308594 1985.207031 813.226562 C 1924.957031 764.640625 1851.777344 733.761719 1777.761719 723.289062 C 1759.261719 720.652344 1740.707031 719.160156 1722.265625 718.789062 C 1703.8125 718.476562 1685.496094 719.394531 1667.433594 721.308594 C 1631.273438 725.023438 1596.261719 733.332031 1563.238281 744.949219 C 1530.167969 756.496094 1499.167969 771.699219 1470.621094 789.179688 C 1456.308594 797.890625 1442.636719 807.246094 1429.609375 817.148438 C 1423.121094 822.117188 1416.753906 827.144531 1410.550781 832.289062 C 1407.414062 834.839844 1404.386719 837.496094 1401.332031 840.089844 L 1399.058594 842.058594 L 1396.628906 844.191406 L 1391.8125 848.503906 C 1388.277344 851.652344 1386.246094 853.648438 1383.773438 855.980469 L 1379.339844 860.199219 L 1375.28125 864.230469 C 1369.851562 869.566406 1364.664062 875.011719 1359.46875 880.441406 C 1349.25 891.347656 1339.363281 902.292969 1330.097656 913.394531 C 1320.882812 924.507812 1311.992188 935.648438 1303.605469 946.765625 C 1295.132812 957.878906 1287.082031 968.972656 1279.472656 980.074219 C 1264.09375 1002.222656 1250.058594 1024.078125 1236.960938 1045.550781 C 1223.785156 1066.949219 1211.664062 1087.96875 1199.953125 1108.316406 C 1176.660156 1149.039062 1155.417969 1187.367188 1134.664062 1222.714844 C 1113.851562 1258.011719 1093.65625 1290.488281 1073.003906 1319.570312 C 1032.105469 1377.921875 989.527344 1423.179688 949.191406 1456.132812 C 939.148438 1464.390625 929.359375 1472.015625 919.816406 1478.785156 C 915.097656 1482.261719 910.386719 1485.464844 905.878906 1488.679688 C 901.335938 1491.828125 896.828125 1494.691406 892.519531 1497.582031 C 883.785156 1503.085938 875.5625 1508.128906 867.921875 1512.664062 C 864.128906 1515.007812 860.394531 1516.949219 856.878906 1518.964844 C 853.355469 1520.972656 849.984375 1522.800781 846.753906 1524.5 C 840.351562 1528.011719 834.640625 1531.042969 829.644531 1533.5 C 824.679688 1536.03125 820.445312 1538.234375 816.96875 1539.863281 C 810.070312 1543.230469 806.511719 1544.96875 806.511719 1544.96875 C 806.511719 1544.96875 810.480469 1544.789062 818.148438 1544.464844 C 821.976562 1544.300781 826.734375 1544.003906 832.414062 1543.4375 C 838.125 1542.980469 844.695312 1542.222656 852.136719 1541.304688 C 881.75 1537.261719 925.882812 1529.117188 979.25 1506.695312 C 1005.871094 1495.535156 1034.558594 1480.632812 1064.226562 1461.664062 C 1093.867188 1442.667969 1124 1419.121094 1153.953125 1391.964844 C 1183.78125 1364.683594 1213.375 1333.765625 1242.136719 1300.21875 C 1256.617188 1283.539062 1270.808594 1266.085938 1285.15625 1248.421875 C 1299.339844 1230.644531 1313.632812 1212.570312 1327.910156 1194.28125 C 1385.039062 1121.335938 1443.453125 1045.164062 1514.097656 988.992188 L 1516.90625 986.832031 L 1518.304688 985.722656 L 1519.917969 984.535156 C 1522.066406 982.9375 1524.203125 981.296875 1526.378906 979.746094 C 1530.71875 976.597656 1535.148438 973.570312 1539.59375 970.601562 C 1548.542969 964.738281 1557.6875 959.265625 1567.011719 954.164062 C 1585.6875 944 1605.257812 935.859375 1625.261719 929.582031 C 1635.285156 926.492188 1645.476562 923.925781 1655.722656 921.941406 C 1665.957031 919.910156 1676.292969 918.410156 1686.675781 917.558594 C 1707.421875 915.886719 1728.324219 916.511719 1748.894531 919.554688 C 1769.417969 922.773438 1789.664062 928.265625 1808.949219 936.320312 C 1818.585938 940.40625 1827.941406 945.121094 1837.113281 950.269531 C 1846.226562 955.519531 1855.042969 961.367188 1863.515625 967.765625 C 1871.886719 974.28125 1880.058594 981.195312 1887.769531 988.707031 C 1891.578125 992.53125 1895.378906 996.375 1898.960938 1000.449219 L 1900.3125 1001.96875 C 1900.210938 1001.820312 1901.527344 1003.375 1900.269531 1001.820312 L 1901.164062 1002.941406 L 1904.761719 1007.296875 C 1906.269531 1009.265625 1907.148438 1010.28125 1908.910156 1012.664062 C 1921.410156 1029.355469 1931.773438 1048.019531 1939.460938 1068.316406 C 1954.941406 1108.816406 1959.417969 1155.75 1952.359375 1201.148438 C 1945.472656 1246.566406 1926.480469 1289.96875 1898.792969 1323.007812 C 1870.992188 1356.160156 1834.875 1378.230469 1793.003906 1387.457031 C 1763.734375 1394.015625 1731.414062 1393.890625 1698.117188 1388.328125 C 1697.195312 1381.839844 1695.953125 1375.339844 1694.269531 1368.839844 C 1670.132812 1275.351562 1574.78125 1219.132812 1481.300781 1243.28125 C 1387.816406 1267.402344 1331.589844 1362.773438 1355.742188 1456.257812 C 1379.878906 1549.730469 1475.226562 1605.957031 1568.710938 1581.816406 C 1592.488281 1575.667969 1613.851562 1564.914062 1632.09375 1550.746094 C 1639.328125 1552.78125 1646.640625 1554.6875 1654.066406 1556.417969 C 1672.03125 1560.640625 1690.539062 1563.941406 1709.511719 1565.992188 C 1747.386719 1570.1875 1787.199219 1569.640625 1826.953125 1562.457031 C 1866.691406 1555.375 1906.160156 1541.433594 1942.039062 1521.097656 C 1978.019531 1500.882812 2010.226562 1474.414062 2037.253906 1444.269531 C 2064.265625 1414.078125 2086.257812 1380.242188 2102.980469 1344.53125 C 2119.746094 1308.859375 2131.542969 1271.335938 2138.464844 1233.089844 C 2152.414062 1156.691406 2146.785156 1076.761719 2120.398438 1002.375 " fill-opacity="1" fill-rule="nonzero"/></svg>