<svg width="128" height="128" viewBox="0 0 128 128" fill="none" xmlns="http://www.w3.org/2000/svg">
<path d="M120 96V88H111.596C111.077 85.497 110.083 83.1167 108.668 80.988L114.628 75.028L108.972 69.372L103.012 75.332C100.883 73.9169 98.503 72.9229 96 72.404V64H88V72.404C85.497 72.9229 83.1167 73.9169 80.988 75.332L75.028 69.372L69.372 75.028L75.332 80.988C73.9169 83.1167 72.9229 85.497 72.404 88H64V96H72.404C72.924 98.548 73.94 100.916 75.332 103.012L69.372 108.972L75.028 114.628L80.988 108.668C83.1167 110.083 85.497 111.077 88 111.596V120H96V111.596C98.503 111.077 100.883 110.083 103.012 108.668L108.972 114.628L114.628 108.972L108.668 103.012C110.083 100.883 111.077 98.503 111.596 96H120ZM92 104C85.384 104 80 98.616 80 92C80 85.384 85.384 80 92 80C98.616 80 104 85.384 104 92C104 98.616 98.616 104 92 104ZM48 24H64V32H48V24Z" fill="#0652E9"/>
<path d="M24 112V16H88V52H96V16C96 11.588 92.412 8 88 8H24C19.588 8 16 11.588 16 16V112C16 116.412 19.588 120 24 120H56V112H24Z" fill="#0652E9"/>
</svg>
