<svg xmlns="http://www.w3.org/2000/svg" xmlns:xlink="http://www.w3.org/1999/xlink" width="3000" zoomAndPan="magnify" viewBox="0 0 2250 2250.000011" height="3000" preserveAspectRatio="xMidYMid meet" version="1.0"><defs><g/><clipPath id="aad45137c8"><path d="M 0.5 0 L 2249.5 0 L 2249.5 2249 L 0.5 2249 Z M 0.5 0 " clip-rule="nonzero"/></clipPath></defs><g clip-path="url(#aad45137c8)"><path fill="#ffffff" d="M 0.5 0 L 2249.5 0 L 2249.5 2249 L 0.5 2249 Z M 0.5 0 " fill-opacity="1" fill-rule="nonzero"/><path fill="#ffffff" d="M 0.5 0 L 2249.5 0 L 2249.5 2249 L 0.5 2249 Z M 0.5 0 " fill-opacity="1" fill-rule="nonzero"/></g><path fill="#0652e9" d="M 909.839844 1025.113281 C 912.191406 1023.1875 914.464844 1021.183594 916.773438 1019.238281 L 918.5 1017.746094 L 920.320312 1016.125 L 923.957031 1012.886719 C 926.632812 1010.511719 928.148438 1009.019531 930.019531 1007.253906 L 933.355469 1004.078125 L 936.40625 1001.039062 C 940.507812 996.996094 944.433594 992.902344 948.335938 988.8125 C 956.039062 980.578125 963.496094 972.332031 970.476562 963.96875 C 977.429688 955.589844 984.136719 947.203125 990.449219 938.808594 C 996.835938 930.445312 1002.90625 922.0625 1008.652344 913.699219 C 1020.242188 896.996094 1030.828125 880.511719 1040.691406 864.335938 C 1050.632812 848.207031 1059.765625 832.359375 1068.597656 817.019531 C 1086.160156 786.3125 1102.175781 757.421875 1117.820312 730.78125 C 1133.503906 704.167969 1148.730469 679.671875 1164.296875 657.769531 C 1195.136719 613.769531 1227.234375 579.652344 1257.644531 554.804688 C 1265.210938 548.582031 1272.589844 542.832031 1279.789062 537.730469 C 1283.34375 535.097656 1286.894531 532.695312 1290.300781 530.265625 C 1293.71875 527.898438 1297.117188 525.726562 1300.367188 523.554688 C 1306.953125 519.394531 1313.144531 515.597656 1318.914062 512.1875 C 1321.769531 510.417969 1324.585938 508.945312 1327.246094 507.425781 C 1329.890625 505.910156 1332.445312 504.535156 1334.867188 503.253906 C 1339.703125 500.605469 1344 498.320312 1347.769531 496.480469 C 1351.519531 494.574219 1354.703125 492.898438 1357.328125 491.683594 C 1362.527344 489.144531 1365.207031 487.828125 1365.207031 487.828125 C 1365.207031 487.828125 1362.21875 487.957031 1356.4375 488.210938 C 1353.546875 488.339844 1349.960938 488.550781 1345.683594 488.976562 C 1341.375 489.335938 1336.421875 489.894531 1330.808594 490.589844 C 1308.484375 493.632812 1275.214844 499.769531 1234.980469 516.6875 C 1214.910156 525.101562 1193.285156 536.332031 1170.925781 550.636719 C 1148.570312 564.957031 1125.855469 582.710938 1103.273438 603.183594 C 1080.789062 623.738281 1058.480469 647.058594 1036.804688 672.335938 C 1025.867188 684.925781 1015.175781 698.082031 1004.355469 711.394531 C 993.664062 724.789062 982.890625 738.421875 972.136719 752.203125 C 929.050781 807.195312 885.023438 864.632812 831.765625 906.976562 L 829.644531 908.605469 L 828.589844 909.441406 L 827.375 910.34375 C 825.753906 911.539062 824.152344 912.785156 822.5 913.953125 C 819.230469 916.3125 815.898438 918.601562 812.542969 920.847656 C 805.800781 925.257812 798.902344 929.386719 791.871094 933.230469 C 777.804688 940.890625 763.046875 947.03125 747.953125 951.761719 C 740.394531 954.101562 732.734375 956.03125 724.996094 957.523438 C 717.277344 959.058594 709.492188 960.191406 701.664062 960.828125 C 686.015625 962.097656 670.265625 961.621094 654.761719 959.320312 C 639.273438 956.886719 624.023438 952.757812 609.480469 946.671875 C 602.222656 943.605469 595.164062 940.042969 588.246094 936.160156 C 581.375 932.210938 574.726562 927.808594 568.351562 922.972656 C 562.03125 918.058594 555.871094 912.851562 550.0625 907.1875 C 547.191406 904.308594 544.324219 901.417969 541.625 898.339844 L 540.597656 897.199219 C 540.667969 897.300781 539.695312 896.148438 540.628906 897.300781 L 539.957031 896.464844 L 537.242188 893.183594 C 536.109375 891.691406 535.441406 890.929688 534.125 889.128906 C 524.695312 876.554688 516.890625 862.476562 511.082031 847.179688 C 499.425781 816.652344 496.050781 781.261719 501.351562 747.027344 C 506.550781 712.792969 520.875 680.066406 541.742188 655.15625 C 562.710938 630.175781 589.9375 613.535156 621.503906 606.570312 C 643.558594 601.636719 667.925781 601.71875 693.03125 605.925781 C 693.71875 610.8125 694.664062 615.714844 695.933594 620.617188 C 714.128906 691.09375 786.015625 733.46875 856.492188 715.269531 C 926.976562 697.078125 969.347656 625.191406 951.152344 554.707031 C 932.953125 484.230469 861.070312 441.847656 790.585938 460.054688 C 772.65625 464.683594 756.5625 472.785156 742.800781 483.472656 C 737.347656 481.945312 731.847656 480.492188 726.253906 479.203125 C 712.699219 476.007812 698.75 473.53125 684.445312 471.984375 C 655.890625 468.808594 625.878906 469.222656 595.90625 474.652344 C 565.953125 479.984375 536.195312 490.488281 509.140625 505.824219 C 482.011719 521.070312 457.753906 541.023438 437.367188 563.738281 C 416.992188 586.511719 400.425781 612 387.820312 638.929688 C 375.175781 665.847656 366.269531 694.125 361.054688 722.957031 C 350.542969 780.554688 354.78125 840.804688 374.679688 896.886719 C 384.644531 924.863281 398.601562 951.699219 416.242188 975.867188 C 418.257812 978.707031 421.132812 982.410156 423.484375 985.4375 L 426.15625 988.769531 L 429.996094 993.441406 C 434.609375 999.082031 439.496094 1004.5 444.476562 1009.828125 C 454.515625 1020.414062 465.230469 1030.375 476.601562 1039.480469 C 522.023438 1076.101562 577.1875 1099.390625 632.984375 1107.289062 C 646.9375 1109.277344 660.925781 1110.402344 674.828125 1110.6875 C 688.738281 1110.917969 702.546875 1110.207031 716.167969 1108.789062 C 743.429688 1105.984375 769.824219 1099.71875 794.714844 1090.941406 C 819.65625 1082.242188 843.015625 1070.789062 864.550781 1057.609375 C 875.332031 1051.046875 885.648438 1044 895.453125 1036.523438 C 900.34375 1032.777344 905.15625 1028.996094 909.839844 1025.113281 " fill-opacity="1" fill-rule="nonzero"/><path fill="#00adef" d="M 1875.421875 712.761719 C 1865.460938 684.777344 1851.503906 657.945312 1833.855469 633.777344 C 1831.847656 630.945312 1828.964844 627.234375 1826.617188 624.210938 L 1823.941406 620.867188 L 1820.105469 616.199219 C 1815.492188 610.570312 1810.601562 605.148438 1805.617188 599.816406 C 1795.585938 589.234375 1784.875 579.269531 1773.503906 570.160156 C 1728.078125 533.535156 1672.910156 510.253906 1617.109375 502.359375 C 1603.160156 500.371094 1589.171875 499.246094 1575.269531 498.964844 C 1561.359375 498.730469 1547.550781 499.425781 1533.933594 500.867188 C 1506.671875 503.667969 1480.277344 509.929688 1455.382812 518.6875 C 1430.453125 527.394531 1407.082031 538.855469 1385.558594 552.035156 C 1374.769531 558.601562 1364.460938 565.652344 1354.640625 573.117188 C 1349.75 576.863281 1344.949219 580.65625 1340.269531 584.535156 C 1337.90625 586.457031 1335.625 588.457031 1333.320312 590.414062 L 1331.609375 591.898438 L 1329.777344 593.507812 L 1326.144531 596.757812 C 1323.480469 599.132812 1321.949219 600.636719 1320.085938 602.394531 L 1316.742188 605.574219 L 1313.683594 608.613281 C 1309.589844 612.636719 1305.679688 616.742188 1301.761719 620.835938 C 1294.058594 629.054688 1286.601562 637.308594 1279.621094 645.679688 C 1272.671875 654.054688 1265.96875 662.453125 1259.648438 670.835938 C 1253.257812 679.214844 1247.1875 687.578125 1241.453125 695.949219 C 1229.859375 712.644531 1219.277344 729.121094 1209.402344 745.3125 C 1199.46875 761.441406 1190.332031 777.289062 1181.503906 792.628906 C 1163.941406 823.332031 1147.929688 852.226562 1132.28125 878.871094 C 1116.59375 905.484375 1101.367188 929.96875 1085.796875 951.890625 C 1054.964844 995.882812 1022.863281 1030 992.457031 1054.84375 C 984.886719 1061.070312 977.503906 1066.820312 970.308594 1071.921875 C 966.753906 1074.542969 963.203125 1076.957031 959.800781 1079.382812 C 956.378906 1081.753906 952.980469 1083.914062 949.730469 1086.09375 C 943.148438 1090.242188 936.949219 1094.042969 931.1875 1097.464844 C 928.328125 1099.230469 925.511719 1100.691406 922.859375 1102.214844 C 920.207031 1103.726562 917.664062 1105.105469 915.226562 1106.386719 C 910.402344 1109.035156 906.097656 1111.320312 902.332031 1113.171875 C 898.589844 1115.078125 895.394531 1116.742188 892.773438 1117.96875 C 887.574219 1120.507812 884.890625 1121.820312 884.890625 1121.820312 C 884.890625 1121.820312 887.882812 1121.683594 893.664062 1121.4375 C 896.550781 1121.3125 900.132812 1121.089844 904.417969 1120.664062 C 908.722656 1120.316406 913.675781 1119.746094 919.289062 1119.054688 C 941.613281 1116.007812 974.882812 1109.867188 1015.117188 1092.964844 C 1035.1875 1084.550781 1056.8125 1073.316406 1079.179688 1059.015625 C 1101.523438 1044.691406 1124.242188 1026.941406 1146.824219 1006.46875 C 1169.308594 985.902344 1191.621094 962.59375 1213.304688 937.304688 C 1224.222656 924.726562 1234.917969 911.570312 1245.738281 898.253906 C 1256.429688 884.851562 1267.207031 871.226562 1277.96875 857.4375 C 1321.039062 802.445312 1365.078125 745.019531 1418.335938 702.671875 L 1420.453125 701.042969 L 1421.507812 700.207031 L 1422.722656 699.308594 C 1424.34375 698.105469 1425.953125 696.871094 1427.59375 695.699219 C 1430.863281 693.328125 1434.207031 691.042969 1437.554688 688.808594 C 1444.304688 684.386719 1451.195312 680.257812 1458.226562 676.414062 C 1472.304688 668.75 1487.058594 662.617188 1502.140625 657.882812 C 1509.699219 655.554688 1517.382812 653.617188 1525.105469 652.121094 C 1532.820312 650.589844 1540.613281 649.457031 1548.4375 648.816406 C 1564.082031 647.554688 1579.839844 648.027344 1595.347656 650.324219 C 1610.820312 652.75 1626.082031 656.886719 1640.621094 662.964844 C 1647.886719 666.042969 1654.941406 669.59375 1661.855469 673.476562 C 1668.726562 677.433594 1675.371094 681.84375 1681.757812 686.667969 C 1688.070312 691.582031 1694.230469 696.792969 1700.042969 702.457031 C 1702.914062 705.339844 1705.78125 708.238281 1708.480469 711.308594 L 1709.5 712.453125 C 1709.421875 712.34375 1710.414062 713.511719 1709.46875 712.34375 L 1710.140625 713.1875 L 1712.855469 716.46875 C 1713.992188 717.953125 1714.652344 718.71875 1715.980469 720.519531 C 1725.402344 733.101562 1733.21875 747.171875 1739.011719 762.472656 C 1750.683594 793.003906 1754.058594 828.386719 1748.738281 862.613281 C 1743.542969 896.855469 1729.230469 929.574219 1708.355469 954.484375 C 1687.394531 979.476562 1660.167969 996.113281 1628.601562 1003.070312 C 1606.535156 1008.015625 1582.167969 1007.921875 1557.066406 1003.726562 C 1556.371094 998.835938 1555.433594 993.9375 1554.164062 989.035156 C 1535.96875 918.554688 1464.085938 876.171875 1393.609375 894.378906 C 1323.132812 912.5625 1280.742188 984.460938 1298.949219 1054.9375 C 1317.148438 1125.40625 1389.03125 1167.796875 1459.507812 1149.597656 C 1477.433594 1144.960938 1493.539062 1136.851562 1507.292969 1126.171875 C 1512.746094 1127.707031 1518.257812 1129.144531 1523.855469 1130.449219 C 1537.398438 1133.632812 1551.355469 1136.121094 1565.65625 1137.667969 C 1594.210938 1140.832031 1624.226562 1140.417969 1654.195312 1135 C 1684.152344 1129.664062 1713.910156 1119.152344 1740.957031 1103.824219 C 1768.082031 1088.582031 1792.363281 1068.625 1812.738281 1045.898438 C 1833.105469 1023.140625 1849.679688 997.632812 1862.289062 970.710938 C 1874.929688 943.816406 1883.824219 915.527344 1889.042969 886.695312 C 1899.558594 829.097656 1895.316406 768.839844 1875.421875 712.761719 " fill-opacity="1" fill-rule="nonzero"/><g fill="#001140" fill-opacity="1"><g transform="translate(35.952422, 1525.516322)"><g><path d="M 146.21875 -217.796875 L 146.21875 0 L 83.28125 0 L 83.28125 -217.796875 L 8.640625 -217.796875 L 8.640625 -265.96875 L 223.953125 -265.96875 L 217.421875 -217.796875 Z M 146.21875 -217.796875 "/></g></g></g><g fill="#001140" fill-opacity="1"><g transform="translate(314.208849, 1525.516322)"><g><path d="M 98.640625 -221.0625 L 98.640625 -157.171875 L 190.75 -157.171875 L 190.75 -113.03125 L 98.640625 -113.03125 L 98.640625 -45.09375 L 209.75 -45.09375 L 209.75 0 L 35.6875 0 L 35.6875 -265.96875 L 209.546875 -265.96875 L 203.21875 -221.0625 Z M 98.640625 -221.0625 "/></g></g></g><g fill="#001140" fill-opacity="1"><g transform="translate(592.465275, 1525.516322)"><g><path d="M 137.40625 -272.6875 C 156.457031 -272.6875 172.664062 -270.160156 186.03125 -265.109375 C 199.40625 -260.054688 211.660156 -252.921875 222.796875 -243.703125 L 191.890625 -206.484375 C 184.597656 -212.492188 176.539062 -217.257812 167.71875 -220.78125 C 158.894531 -224.300781 149.300781 -226.0625 138.9375 -226.0625 C 127.800781 -226.0625 117.628906 -222.894531 108.421875 -216.5625 C 99.210938 -210.226562 91.859375 -200.25 86.359375 -186.625 C 80.859375 -173 78.109375 -155.3125 78.109375 -133.5625 C 78.109375 -112.195312 80.757812 -94.765625 86.0625 -81.265625 C 91.375 -67.773438 98.695312 -57.863281 108.03125 -51.53125 C 117.375 -45.195312 128.054688 -42.03125 140.078125 -42.03125 C 153.390625 -42.03125 164.457031 -44.523438 173.28125 -49.515625 C 182.113281 -54.503906 190.238281 -59.941406 197.65625 -65.828125 L 226.25 -29.359375 C 216.269531 -19.503906 203.988281 -11.054688 189.40625 -4.015625 C 174.820312 3.015625 157.226562 6.53125 136.625 6.53125 C 112.582031 6.53125 91.253906 1.191406 72.640625 -9.484375 C 54.023438 -20.171875 39.4375 -35.910156 28.875 -56.703125 C 18.320312 -77.492188 13.046875 -103.113281 13.046875 -133.5625 C 13.046875 -163.238281 18.515625 -188.4375 29.453125 -209.15625 C 40.390625 -229.882812 55.257812 -245.65625 74.0625 -256.46875 C 92.875 -267.28125 113.988281 -272.6875 137.40625 -272.6875 Z M 137.40625 -272.6875 "/></g></g></g><g fill="#001140" fill-opacity="1"><g transform="translate(870.721728, 1525.516322)"><g><path d="M 147.375 0 L 147.375 -112.0625 L 82.90625 -112.0625 L 82.90625 0 L 19.953125 0 L 19.953125 -265.96875 L 82.90625 -265.96875 L 82.90625 -163.875 L 147.375 -163.875 L 147.375 -265.96875 L 210.328125 -265.96875 L 210.328125 0 Z M 147.375 0 "/></g></g></g><g fill="#001140" fill-opacity="1"><g transform="translate(1148.978127, 1525.516322)"><g><path d="M 218 -77.71875 C 218 -61.21875 213.679688 -46.632812 205.046875 -33.96875 C 196.410156 -21.300781 184.03125 -11.382812 167.90625 -4.21875 C 151.789062 2.945312 132.410156 6.53125 109.765625 6.53125 C 84.691406 6.53125 63.675781 2.851562 46.71875 -4.5 C 29.769531 -11.863281 15.734375 -20.984375 4.609375 -31.859375 L 36.453125 -67.171875 C 46.304688 -58.597656 57.179688 -51.972656 69.078125 -47.296875 C 80.984375 -42.628906 94.035156 -40.296875 108.234375 -40.296875 C 117.054688 -40.296875 124.789062 -41.570312 131.4375 -44.125 C 138.09375 -46.6875 143.273438 -50.398438 146.984375 -55.265625 C 150.703125 -60.128906 152.5625 -66.015625 152.5625 -72.921875 C 152.5625 -79.441406 151.085938 -84.941406 148.140625 -89.421875 C 145.203125 -93.898438 140.242188 -97.929688 133.265625 -101.515625 C 126.296875 -105.097656 116.609375 -108.742188 104.203125 -112.453125 C 83.472656 -118.847656 66.804688 -125.882812 54.203125 -133.5625 C 41.609375 -141.238281 32.460938 -150.128906 26.765625 -160.234375 C 21.078125 -170.335938 18.234375 -182.109375 18.234375 -195.546875 C 18.234375 -211.796875 22.738281 -225.675781 31.75 -237.1875 C 40.769531 -248.695312 52.890625 -257.488281 68.109375 -263.5625 C 83.335938 -269.644531 100.101562 -272.6875 118.40625 -272.6875 C 139 -272.6875 157.160156 -269.710938 172.890625 -263.765625 C 188.628906 -257.816406 202.257812 -249.34375 213.78125 -238.34375 L 184.03125 -204.1875 C 175.070312 -211.726562 165.410156 -217.320312 155.046875 -220.96875 C 144.691406 -224.613281 134.140625 -226.4375 123.390625 -226.4375 C 115.460938 -226.4375 108.488281 -225.441406 102.46875 -223.453125 C 96.457031 -221.472656 91.785156 -218.566406 88.453125 -214.734375 C 85.128906 -210.898438 83.46875 -206.101562 83.46875 -200.34375 C 83.46875 -194.707031 85.066406 -189.972656 88.265625 -186.140625 C 91.472656 -182.304688 97.039062 -178.691406 104.96875 -175.296875 C 112.894531 -171.910156 123.894531 -167.976562 137.96875 -163.5 C 154.726562 -158.382812 169.085938 -152.273438 181.046875 -145.171875 C 193.015625 -138.066406 202.164062 -129.140625 208.5 -118.390625 C 214.832031 -107.648438 218 -94.09375 218 -77.71875 Z M 218 -77.71875 "/></g></g></g><g fill="#001140" fill-opacity="1"><g transform="translate(1427.234527, 1525.516322)"><g><path d="M 98.640625 -221.0625 L 98.640625 -157.171875 L 190.75 -157.171875 L 190.75 -113.03125 L 98.640625 -113.03125 L 98.640625 -45.09375 L 209.75 -45.09375 L 209.75 0 L 35.6875 0 L 35.6875 -265.96875 L 209.546875 -265.96875 L 203.21875 -221.0625 Z M 98.640625 -221.0625 "/></g></g></g><g fill="#001140" fill-opacity="1"><g transform="translate(1705.490927, 1525.516322)"><g><path d="M 98.640625 -221.0625 L 98.640625 -157.171875 L 190.75 -157.171875 L 190.75 -113.03125 L 98.640625 -113.03125 L 98.640625 -45.09375 L 209.75 -45.09375 L 209.75 0 L 35.6875 0 L 35.6875 -265.96875 L 209.546875 -265.96875 L 203.21875 -221.0625 Z M 98.640625 -221.0625 "/></g></g></g><g fill="#001140" fill-opacity="1"><g transform="translate(1983.747326, 1525.516322)"><g><path d="M 155.25 -134.328125 C 155.25 -152.234375 153.742188 -166.816406 150.734375 -178.078125 C 147.722656 -189.335938 143.5625 -198.035156 138.25 -204.171875 C 132.945312 -210.316406 126.710938 -214.539062 119.546875 -216.84375 C 112.390625 -219.144531 104.648438 -220.296875 96.328125 -220.296875 L 82.90625 -220.296875 L 82.90625 -45.484375 L 96.328125 -45.484375 C 105.023438 -45.484375 112.988281 -46.859375 120.21875 -49.609375 C 127.445312 -52.359375 133.679688 -57.023438 138.921875 -63.609375 C 144.171875 -70.203125 148.203125 -79.253906 151.015625 -90.765625 C 153.835938 -102.273438 155.25 -116.796875 155.25 -134.328125 Z M 220.484375 -134.328125 C 220.484375 -107.335938 216.929688 -85.078125 209.828125 -67.546875 C 202.734375 -50.023438 193.109375 -36.367188 180.953125 -26.578125 C 168.804688 -16.785156 155.023438 -9.90625 139.609375 -5.9375 C 124.191406 -1.976562 108.234375 0 91.734375 0 L 19.953125 0 L 19.953125 -265.96875 L 87.125 -265.96875 C 104.132812 -265.96875 120.601562 -264.207031 136.53125 -260.6875 C 152.457031 -257.175781 166.722656 -250.71875 179.328125 -241.3125 C 191.929688 -231.90625 201.941406 -218.597656 209.359375 -201.390625 C 216.773438 -184.191406 220.484375 -161.835938 220.484375 -134.328125 Z M 220.484375 -134.328125 "/></g></g></g><g fill="#0652e9" fill-opacity="1"><g transform="translate(41.245174, 1769.42717)"><g><path d="M 55.984375 0 L 21.609375 -85.8125 C 21.660156 -84.726562 21.765625 -82.921875 21.921875 -80.390625 C 22.085938 -77.859375 22.273438 -74.859375 22.484375 -71.390625 C 22.703125 -67.921875 22.878906 -64.25 23.015625 -60.375 C 23.160156 -56.5 23.234375 -52.671875 23.234375 -48.890625 L 23.234375 0 L 11.828125 0 L 11.828125 -97.578125 L 28.484375 -97.578125 L 63.421875 -11.40625 C 63.367188 -12.78125 63.203125 -15.296875 62.921875 -18.953125 C 62.640625 -22.617188 62.378906 -27.046875 62.140625 -32.234375 C 61.910156 -37.429688 61.796875 -42.9375 61.796875 -48.75 L 61.796875 -97.578125 L 73.203125 -97.578125 L 73.203125 0 Z M 55.984375 0 "/></g></g></g><g fill="#0652e9" fill-opacity="1"><g transform="translate(131.940878, 1769.42717)"><g><path d="M 26.140625 -74.609375 L 26.140625 -21.75 C 26.140625 -16.84375 27.15625 -13.300781 29.1875 -11.125 C 31.21875 -8.945312 34.382812 -7.859375 38.6875 -7.859375 C 42.800781 -7.859375 46.6875 -9.023438 50.34375 -11.359375 C 54.007812 -13.703125 56.859375 -16.484375 58.890625 -19.703125 L 58.890625 -74.609375 L 70.78125 -74.609375 L 70.78125 0 L 60.65625 0 L 59.65625 -10.0625 C 56.726562 -6.28125 53.113281 -3.382812 48.8125 -1.375 C 44.519531 0.625 40.175781 1.625 35.78125 1.625 C 28.550781 1.625 23.15625 -0.296875 19.59375 -4.140625 C 16.03125 -7.992188 14.25 -13.394531 14.25 -20.34375 L 14.25 -74.609375 Z M 26.140625 -74.609375 "/></g></g></g><g fill="#0652e9" fill-opacity="1"><g transform="translate(222.636581, 1769.42717)"><g><path d="M 14.953125 0 L 14.953125 -9.140625 L 26.578125 -9.140625 L 26.578125 -65.46875 L 14.953125 -65.46875 L 14.953125 -74.609375 L 35.640625 -74.609375 L 37.84375 -56.96875 C 40.71875 -63.113281 44.207031 -67.863281 48.3125 -71.21875 C 52.425781 -74.570312 57.863281 -76.25 64.625 -76.25 C 66.695312 -76.25 68.546875 -76.09375 70.171875 -75.78125 C 71.804688 -75.476562 73.476562 -75.085938 75.1875 -74.609375 L 71.703125 -63.984375 C 70.148438 -64.410156 68.734375 -64.726562 67.453125 -64.9375 C 66.179688 -65.15625 64.71875 -65.265625 63.0625 -65.265625 C 57.34375 -65.265625 52.425781 -63.234375 48.3125 -59.171875 C 44.207031 -55.109375 40.929688 -48.96875 38.484375 -40.75 L 38.484375 -9.140625 L 53.640625 -9.140625 L 53.640625 0 Z M 63.703125 -49.390625 L 63.703125 -65.609375 L 64.90625 -74.609375 L 75.1875 -74.609375 L 73.484375 -49.390625 Z M 63.703125 -49.390625 "/></g></g></g><g fill="#0652e9" fill-opacity="1"><g transform="translate(313.332292, 1769.42717)"><g><path d="M 73.484375 -3.75 C 70.929688 -2.050781 67.835938 -0.734375 64.203125 0.203125 C 60.566406 1.148438 57 1.625 53.5 1.625 C 45.46875 1.625 39.28125 -0.472656 34.9375 -4.671875 C 30.59375 -8.878906 28.421875 -14.289062 28.421875 -20.90625 L 28.421875 -65.40625 L 11.265625 -65.40625 L 11.265625 -74.609375 L 28.421875 -74.609375 L 28.421875 -91.546875 L 40.3125 -92.96875 L 40.3125 -74.609375 L 66.109375 -74.609375 L 64.6875 -65.40625 L 40.3125 -65.40625 L 40.3125 -21.046875 C 40.3125 -16.890625 41.410156 -13.722656 43.609375 -11.546875 C 45.804688 -9.378906 49.457031 -8.296875 54.5625 -8.296875 C 57.351562 -8.296875 59.925781 -8.625 62.28125 -9.28125 C 64.644531 -9.945312 66.84375 -10.796875 68.875 -11.828125 Z M 73.484375 -3.75 "/></g></g></g><g fill="#0652e9" fill-opacity="1"><g transform="translate(404.027989, 1769.42717)"><g><path d="M 26.140625 -74.609375 L 26.140625 -21.75 C 26.140625 -16.84375 27.15625 -13.300781 29.1875 -11.125 C 31.21875 -8.945312 34.382812 -7.859375 38.6875 -7.859375 C 42.800781 -7.859375 46.6875 -9.023438 50.34375 -11.359375 C 54.007812 -13.703125 56.859375 -16.484375 58.890625 -19.703125 L 58.890625 -74.609375 L 70.78125 -74.609375 L 70.78125 0 L 60.65625 0 L 59.65625 -10.0625 C 56.726562 -6.28125 53.113281 -3.382812 48.8125 -1.375 C 44.519531 0.625 40.175781 1.625 35.78125 1.625 C 28.550781 1.625 23.15625 -0.296875 19.59375 -4.140625 C 16.03125 -7.992188 14.25 -13.394531 14.25 -20.34375 L 14.25 -74.609375 Z M 26.140625 -74.609375 "/></g></g></g><g fill="#0652e9" fill-opacity="1"><g transform="translate(494.723686, 1769.42717)"><g><path d="M 14.953125 0 L 14.953125 -9.140625 L 26.578125 -9.140625 L 26.578125 -65.46875 L 14.953125 -65.46875 L 14.953125 -74.609375 L 35.640625 -74.609375 L 37.84375 -56.96875 C 40.71875 -63.113281 44.207031 -67.863281 48.3125 -71.21875 C 52.425781 -74.570312 57.863281 -76.25 64.625 -76.25 C 66.695312 -76.25 68.546875 -76.09375 70.171875 -75.78125 C 71.804688 -75.476562 73.476562 -75.085938 75.1875 -74.609375 L 71.703125 -63.984375 C 70.148438 -64.410156 68.734375 -64.726562 67.453125 -64.9375 C 66.179688 -65.15625 64.71875 -65.265625 63.0625 -65.265625 C 57.34375 -65.265625 52.425781 -63.234375 48.3125 -59.171875 C 44.207031 -55.109375 40.929688 -48.96875 38.484375 -40.75 L 38.484375 -9.140625 L 53.640625 -9.140625 L 53.640625 0 Z M 63.703125 -49.390625 L 63.703125 -65.609375 L 64.90625 -74.609375 L 75.1875 -74.609375 L 73.484375 -49.390625 Z M 63.703125 -49.390625 "/></g></g></g><g fill="#0652e9" fill-opacity="1"><g transform="translate(585.41941, 1769.42717)"><g><path d="M 52.015625 -74.609375 L 52.015625 -9.421875 L 73.0625 -9.421875 L 73.0625 0 L 17.078125 0 L 17.078125 -9.421875 L 40.109375 -9.421875 L 40.109375 -65.1875 L 17.78125 -65.1875 L 17.78125 -74.609375 Z M 42.515625 -109.546875 C 45.160156 -109.546875 47.273438 -108.742188 48.859375 -107.140625 C 50.441406 -105.535156 51.234375 -103.578125 51.234375 -101.265625 C 51.234375 -98.847656 50.441406 -96.820312 48.859375 -95.1875 C 47.273438 -93.5625 45.160156 -92.75 42.515625 -92.75 C 40.015625 -92.75 37.957031 -93.5625 36.34375 -95.1875 C 34.738281 -96.820312 33.9375 -98.847656 33.9375 -101.265625 C 33.9375 -103.578125 34.738281 -105.535156 36.34375 -107.140625 C 37.957031 -108.742188 40.015625 -109.546875 42.515625 -109.546875 Z M 42.515625 -109.546875 "/></g></g></g><g fill="#0652e9" fill-opacity="1"><g transform="translate(676.115106, 1769.42717)"><g><path d="M 14.25 0 L 14.25 -74.609375 L 24.375 -74.609375 L 25.296875 -64.265625 C 28.316406 -68.097656 32.101562 -71.039062 36.65625 -73.09375 C 41.21875 -75.144531 45.648438 -76.171875 49.953125 -76.171875 C 57.273438 -76.171875 62.601562 -74.234375 65.9375 -70.359375 C 69.269531 -66.484375 70.9375 -61.097656 70.9375 -54.203125 L 70.9375 0 L 59.03125 0 L 59.03125 -45.421875 C 59.03125 -50.523438 58.742188 -54.644531 58.171875 -57.78125 C 57.609375 -60.925781 56.425781 -63.21875 54.625 -64.65625 C 52.832031 -66.101562 50.046875 -66.828125 46.265625 -66.828125 C 43.335938 -66.828125 40.585938 -66.1875 38.015625 -64.90625 C 35.441406 -63.632812 33.148438 -62.039062 31.140625 -60.125 C 29.128906 -58.207031 27.460938 -56.28125 26.140625 -54.34375 L 26.140625 0 Z M 14.25 0 "/></g></g></g><g fill="#0652e9" fill-opacity="1"><g transform="translate(766.810803, 1769.42717)"><g><path d="M 74.890625 -82.546875 L 78.578125 -71.359375 C 75.410156 -70.367188 72.03125 -69.753906 68.4375 -69.515625 C 64.851562 -69.273438 60.960938 -69.15625 56.765625 -69.15625 C 61.054688 -67.175781 64.285156 -64.613281 66.453125 -61.46875 C 68.628906 -58.332031 69.71875 -54.632812 69.71875 -50.375 C 69.71875 -45.46875 68.609375 -41.097656 66.390625 -37.265625 C 64.171875 -33.441406 60.96875 -30.441406 56.78125 -28.265625 C 52.601562 -26.097656 47.566406 -25.015625 41.671875 -25.015625 C 39.160156 -25.015625 37.066406 -25.128906 35.390625 -25.359375 C 33.710938 -25.597656 32.097656 -25.957031 30.546875 -26.4375 C 29.410156 -25.675781 28.472656 -24.632812 27.734375 -23.3125 C 27.003906 -21.988281 26.640625 -20.617188 26.640625 -19.203125 C 26.640625 -17.410156 27.347656 -15.921875 28.765625 -14.734375 C 30.179688 -13.554688 32.804688 -12.96875 36.640625 -12.96875 L 50.09375 -12.96875 C 55.101562 -12.96875 59.601562 -12.066406 63.59375 -10.265625 C 67.582031 -8.472656 70.722656 -6.066406 73.015625 -3.046875 C 75.304688 -0.0234375 76.453125 3.421875 76.453125 7.296875 C 76.453125 14.617188 73.347656 20.238281 67.140625 24.15625 C 60.929688 28.082031 52.15625 30.046875 40.8125 30.046875 C 32.875 30.046875 26.613281 29.226562 22.03125 27.59375 C 17.445312 25.96875 14.175781 23.488281 12.21875 20.15625 C 10.257812 16.820312 9.28125 12.628906 9.28125 7.578125 L 20.046875 7.578125 C 20.046875 10.460938 20.613281 12.847656 21.75 14.734375 C 22.882812 16.628906 24.9375 18.035156 27.90625 18.953125 C 30.882812 19.878906 35.164062 20.34375 40.75 20.34375 C 46.226562 20.34375 50.703125 19.878906 54.171875 18.953125 C 57.640625 18.035156 60.210938 16.664062 61.890625 14.84375 C 63.566406 13.019531 64.40625 10.765625 64.40625 8.078125 C 64.40625 4.535156 62.800781 1.863281 59.59375 0.0625 C 56.382812 -1.726562 52.367188 -2.625 47.546875 -2.625 L 34.21875 -2.625 C 27.800781 -2.625 23.066406 -4.039062 20.015625 -6.875 C 16.972656 -9.707031 15.453125 -12.96875 15.453125 -16.65625 C 15.453125 -19.0625 16.144531 -21.394531 17.53125 -23.65625 C 18.925781 -25.925781 20.972656 -27.9375 23.671875 -29.6875 C 19.367188 -31.957031 16.203125 -34.769531 14.171875 -38.125 C 12.140625 -41.476562 11.125 -45.539062 11.125 -50.3125 C 11.125 -55.363281 12.375 -59.835938 14.875 -63.734375 C 17.382812 -67.628906 20.878906 -70.6875 25.359375 -72.90625 C 29.847656 -75.132812 35.023438 -76.25 40.890625 -76.25 C 47.171875 -76.289062 52.269531 -76.554688 56.1875 -77.046875 C 60.113281 -77.546875 63.476562 -78.269531 66.28125 -79.21875 C 69.09375 -80.164062 71.960938 -81.273438 74.890625 -82.546875 Z M 40.890625 -67.53125 C 34.890625 -67.53125 30.457031 -65.910156 27.59375 -62.671875 C 24.738281 -59.441406 23.3125 -55.320312 23.3125 -50.3125 C 23.3125 -45.257812 24.773438 -41.101562 27.703125 -37.84375 C 30.628906 -34.582031 35.117188 -32.953125 41.171875 -32.953125 C 46.460938 -32.953125 50.488281 -34.484375 53.25 -37.546875 C 56.007812 -40.617188 57.390625 -44.894531 57.390625 -50.375 C 57.390625 -56 56.007812 -60.265625 53.25 -63.171875 C 50.488281 -66.078125 46.367188 -67.53125 40.890625 -67.53125 Z M 40.890625 -67.53125 "/></g></g></g><g fill="#0652e9" fill-opacity="1"><g transform="translate(857.5065, 1769.42717)"><g/></g></g><g fill="#0652e9" fill-opacity="1"><g transform="translate(948.202196, 1769.42717)"><g><path d="M 65.1875 -49.25 C 65.1875 -57.75 64.289062 -64.550781 62.5 -69.65625 C 60.707031 -74.757812 58.34375 -78.582031 55.40625 -81.125 C 52.476562 -83.675781 49.28125 -85.378906 45.8125 -86.234375 C 42.34375 -87.085938 38.929688 -87.515625 35.578125 -87.515625 L 24.09375 -87.515625 L 24.09375 -9.84375 L 35.71875 -9.84375 C 39.207031 -9.84375 42.6875 -10.398438 46.15625 -11.515625 C 49.632812 -12.628906 52.8125 -14.613281 55.6875 -17.46875 C 58.570312 -20.320312 60.875 -24.3125 62.59375 -29.4375 C 64.320312 -34.5625 65.1875 -41.164062 65.1875 -49.25 Z M 78.296875 -49.25 C 78.296875 -39.039062 76.972656 -30.710938 74.328125 -24.265625 C 71.679688 -17.816406 68.1875 -12.832031 63.84375 -9.3125 C 59.5 -5.789062 54.738281 -3.359375 49.5625 -2.015625 C 44.394531 -0.671875 39.28125 0 34.21875 0 L 11.828125 0 L 11.828125 -97.578125 L 32.671875 -97.578125 C 38.378906 -97.578125 43.9375 -96.9375 49.34375 -95.65625 C 54.757812 -94.382812 59.648438 -92.035156 64.015625 -88.609375 C 68.390625 -85.179688 71.863281 -80.300781 74.4375 -73.96875 C 77.007812 -67.644531 78.296875 -59.40625 78.296875 -49.25 Z M 78.296875 -49.25 "/></g></g></g><g fill="#0652e9" fill-opacity="1"><g transform="translate(1038.897947, 1769.42717)"><g><path d="M 52.015625 -74.609375 L 52.015625 -9.421875 L 73.0625 -9.421875 L 73.0625 0 L 17.078125 0 L 17.078125 -9.421875 L 40.109375 -9.421875 L 40.109375 -65.1875 L 17.78125 -65.1875 L 17.78125 -74.609375 Z M 42.515625 -109.546875 C 45.160156 -109.546875 47.273438 -108.742188 48.859375 -107.140625 C 50.441406 -105.535156 51.234375 -103.578125 51.234375 -101.265625 C 51.234375 -98.847656 50.441406 -96.820312 48.859375 -95.1875 C 47.273438 -93.5625 45.160156 -92.75 42.515625 -92.75 C 40.015625 -92.75 37.957031 -93.5625 36.34375 -95.1875 C 34.738281 -96.820312 33.9375 -98.847656 33.9375 -101.265625 C 33.9375 -103.578125 34.738281 -105.535156 36.34375 -107.140625 C 37.957031 -108.742188 40.015625 -109.546875 42.515625 -109.546875 Z M 42.515625 -109.546875 "/></g></g></g><g fill="#0652e9" fill-opacity="1"><g transform="translate(1129.593644, 1769.42717)"><g><path d="M 74.890625 -82.546875 L 78.578125 -71.359375 C 75.410156 -70.367188 72.03125 -69.753906 68.4375 -69.515625 C 64.851562 -69.273438 60.960938 -69.15625 56.765625 -69.15625 C 61.054688 -67.175781 64.285156 -64.613281 66.453125 -61.46875 C 68.628906 -58.332031 69.71875 -54.632812 69.71875 -50.375 C 69.71875 -45.46875 68.609375 -41.097656 66.390625 -37.265625 C 64.171875 -33.441406 60.96875 -30.441406 56.78125 -28.265625 C 52.601562 -26.097656 47.566406 -25.015625 41.671875 -25.015625 C 39.160156 -25.015625 37.066406 -25.128906 35.390625 -25.359375 C 33.710938 -25.597656 32.097656 -25.957031 30.546875 -26.4375 C 29.410156 -25.675781 28.472656 -24.632812 27.734375 -23.3125 C 27.003906 -21.988281 26.640625 -20.617188 26.640625 -19.203125 C 26.640625 -17.410156 27.347656 -15.921875 28.765625 -14.734375 C 30.179688 -13.554688 32.804688 -12.96875 36.640625 -12.96875 L 50.09375 -12.96875 C 55.101562 -12.96875 59.601562 -12.066406 63.59375 -10.265625 C 67.582031 -8.472656 70.722656 -6.066406 73.015625 -3.046875 C 75.304688 -0.0234375 76.453125 3.421875 76.453125 7.296875 C 76.453125 14.617188 73.347656 20.238281 67.140625 24.15625 C 60.929688 28.082031 52.15625 30.046875 40.8125 30.046875 C 32.875 30.046875 26.613281 29.226562 22.03125 27.59375 C 17.445312 25.96875 14.175781 23.488281 12.21875 20.15625 C 10.257812 16.820312 9.28125 12.628906 9.28125 7.578125 L 20.046875 7.578125 C 20.046875 10.460938 20.613281 12.847656 21.75 14.734375 C 22.882812 16.628906 24.9375 18.035156 27.90625 18.953125 C 30.882812 19.878906 35.164062 20.34375 40.75 20.34375 C 46.226562 20.34375 50.703125 19.878906 54.171875 18.953125 C 57.640625 18.035156 60.210938 16.664062 61.890625 14.84375 C 63.566406 13.019531 64.40625 10.765625 64.40625 8.078125 C 64.40625 4.535156 62.800781 1.863281 59.59375 0.0625 C 56.382812 -1.726562 52.367188 -2.625 47.546875 -2.625 L 34.21875 -2.625 C 27.800781 -2.625 23.066406 -4.039062 20.015625 -6.875 C 16.972656 -9.707031 15.453125 -12.96875 15.453125 -16.65625 C 15.453125 -19.0625 16.144531 -21.394531 17.53125 -23.65625 C 18.925781 -25.925781 20.972656 -27.9375 23.671875 -29.6875 C 19.367188 -31.957031 16.203125 -34.769531 14.171875 -38.125 C 12.140625 -41.476562 11.125 -45.539062 11.125 -50.3125 C 11.125 -55.363281 12.375 -59.835938 14.875 -63.734375 C 17.382812 -67.628906 20.878906 -70.6875 25.359375 -72.90625 C 29.847656 -75.132812 35.023438 -76.25 40.890625 -76.25 C 47.171875 -76.289062 52.269531 -76.554688 56.1875 -77.046875 C 60.113281 -77.546875 63.476562 -78.269531 66.28125 -79.21875 C 69.09375 -80.164062 71.960938 -81.273438 74.890625 -82.546875 Z M 40.890625 -67.53125 C 34.890625 -67.53125 30.457031 -65.910156 27.59375 -62.671875 C 24.738281 -59.441406 23.3125 -55.320312 23.3125 -50.3125 C 23.3125 -45.257812 24.773438 -41.101562 27.703125 -37.84375 C 30.628906 -34.582031 35.117188 -32.953125 41.171875 -32.953125 C 46.460938 -32.953125 50.488281 -34.484375 53.25 -37.546875 C 56.007812 -40.617188 57.390625 -44.894531 57.390625 -50.375 C 57.390625 -56 56.007812 -60.265625 53.25 -63.171875 C 50.488281 -66.078125 46.367188 -67.53125 40.890625 -67.53125 Z M 40.890625 -67.53125 "/></g></g></g><g fill="#0652e9" fill-opacity="1"><g transform="translate(1220.28934, 1769.42717)"><g><path d="M 52.015625 -74.609375 L 52.015625 -9.421875 L 73.0625 -9.421875 L 73.0625 0 L 17.078125 0 L 17.078125 -9.421875 L 40.109375 -9.421875 L 40.109375 -65.1875 L 17.78125 -65.1875 L 17.78125 -74.609375 Z M 42.515625 -109.546875 C 45.160156 -109.546875 47.273438 -108.742188 48.859375 -107.140625 C 50.441406 -105.535156 51.234375 -103.578125 51.234375 -101.265625 C 51.234375 -98.847656 50.441406 -96.820312 48.859375 -95.1875 C 47.273438 -93.5625 45.160156 -92.75 42.515625 -92.75 C 40.015625 -92.75 37.957031 -93.5625 36.34375 -95.1875 C 34.738281 -96.820312 33.9375 -98.847656 33.9375 -101.265625 C 33.9375 -103.578125 34.738281 -105.535156 36.34375 -107.140625 C 37.957031 -108.742188 40.015625 -109.546875 42.515625 -109.546875 Z M 42.515625 -109.546875 "/></g></g></g><g fill="#0652e9" fill-opacity="1"><g transform="translate(1310.985037, 1769.42717)"><g><path d="M 73.484375 -3.75 C 70.929688 -2.050781 67.835938 -0.734375 64.203125 0.203125 C 60.566406 1.148438 57 1.625 53.5 1.625 C 45.46875 1.625 39.28125 -0.472656 34.9375 -4.671875 C 30.59375 -8.878906 28.421875 -14.289062 28.421875 -20.90625 L 28.421875 -65.40625 L 11.265625 -65.40625 L 11.265625 -74.609375 L 28.421875 -74.609375 L 28.421875 -91.546875 L 40.3125 -92.96875 L 40.3125 -74.609375 L 66.109375 -74.609375 L 64.6875 -65.40625 L 40.3125 -65.40625 L 40.3125 -21.046875 C 40.3125 -16.890625 41.410156 -13.722656 43.609375 -11.546875 C 45.804688 -9.378906 49.457031 -8.296875 54.5625 -8.296875 C 57.351562 -8.296875 59.925781 -8.625 62.28125 -9.28125 C 64.644531 -9.945312 66.84375 -10.796875 68.875 -11.828125 Z M 73.484375 -3.75 "/></g></g></g><g fill="#0652e9" fill-opacity="1"><g transform="translate(1401.680734, 1769.42717)"><g><path d="M 67.671875 -16.296875 C 67.671875 -13.316406 68.164062 -11.140625 69.15625 -9.765625 C 70.144531 -8.398438 71.679688 -7.390625 73.765625 -6.734375 L 70.859375 1.625 C 67.648438 1.195312 64.835938 0.171875 62.421875 -1.453125 C 60.015625 -3.078125 58.269531 -5.546875 57.1875 -8.859375 C 54.488281 -5.410156 51.128906 -2.800781 47.109375 -1.03125 C 43.097656 0.738281 38.660156 1.625 33.796875 1.625 C 26.335938 1.625 20.457031 -0.472656 16.15625 -4.671875 C 11.851562 -8.878906 9.703125 -14.457031 9.703125 -21.40625 C 9.703125 -29.101562 12.703125 -35.003906 18.703125 -39.109375 C 24.703125 -43.222656 33.375 -45.28125 44.71875 -45.28125 L 55.703125 -45.28125 L 55.703125 -51.515625 C 55.703125 -56.898438 54.128906 -60.710938 50.984375 -62.953125 C 47.835938 -65.203125 43.476562 -66.328125 37.90625 -66.328125 C 35.445312 -66.328125 32.566406 -66.03125 29.265625 -65.4375 C 25.960938 -64.84375 22.375 -63.863281 18.5 -62.5 L 15.375 -71.5 C 19.957031 -73.195312 24.253906 -74.398438 28.265625 -75.109375 C 32.285156 -75.816406 36.113281 -76.171875 39.75 -76.171875 C 49.0625 -76.171875 56.039062 -74.007812 60.6875 -69.6875 C 65.34375 -65.363281 67.671875 -59.492188 67.671875 -52.078125 Z M 36.84375 -7.4375 C 40.53125 -7.4375 44.050781 -8.367188 47.40625 -10.234375 C 50.757812 -12.097656 53.523438 -14.6875 55.703125 -18 L 55.703125 -37.203125 L 44.921875 -37.203125 C 36.703125 -37.203125 30.90625 -35.785156 27.53125 -32.953125 C 24.15625 -30.117188 22.46875 -26.316406 22.46875 -21.546875 C 22.46875 -16.910156 23.660156 -13.398438 26.046875 -11.015625 C 28.429688 -8.628906 32.03125 -7.4375 36.84375 -7.4375 Z M 36.84375 -7.4375 "/></g></g></g><g fill="#0652e9" fill-opacity="1"><g transform="translate(1492.37643, 1769.42717)"><g><path d="M 43.296875 -104.65625 L 43.296875 -18.421875 C 43.296875 -14.734375 44.441406 -12.125 46.734375 -10.59375 C 49.023438 -9.0625 51.988281 -8.296875 55.625 -8.296875 C 57.894531 -8.296875 60.046875 -8.53125 62.078125 -9 C 64.109375 -9.46875 66.140625 -10.101562 68.171875 -10.90625 L 71.359375 -2.203125 C 69.328125 -1.203125 66.8125 -0.316406 63.8125 0.453125 C 60.8125 1.234375 57.421875 1.625 53.640625 1.625 C 47.023438 1.625 41.660156 -0.203125 37.546875 -3.859375 C 33.441406 -7.523438 31.390625 -12.59375 31.390625 -19.0625 L 31.390625 -95.234375 L 8.5 -95.234375 L 8.5 -104.65625 Z M 43.296875 -104.65625 "/></g></g></g><g fill="#0652e9" fill-opacity="1"><g transform="translate(1583.072127, 1769.42717)"><g/></g></g><g fill="#0652e9" fill-opacity="1"><g transform="translate(1673.767824, 1769.42717)"><g><path d="M 44.421875 1.625 C 36.722656 1.625 30.023438 -0.238281 24.328125 -3.96875 C 18.640625 -7.695312 14.238281 -13.289062 11.125 -20.75 C 8.007812 -28.21875 6.453125 -37.578125 6.453125 -48.828125 C 6.453125 -57.234375 7.570312 -64.578125 9.8125 -70.859375 C 12.0625 -77.140625 15.109375 -82.378906 18.953125 -86.578125 C 22.804688 -90.785156 27.175781 -93.925781 32.0625 -96 C 36.945312 -98.082031 42.015625 -99.125 47.265625 -99.125 C 53.640625 -99.125 58.925781 -98.210938 63.125 -96.390625 C 67.332031 -94.578125 71.351562 -91.925781 75.1875 -88.4375 L 67.734375 -80.703125 C 64.765625 -83.492188 61.632812 -85.550781 58.34375 -86.875 C 55.0625 -88.195312 51.390625 -88.859375 47.328125 -88.859375 C 43.785156 -88.859375 40.359375 -88.171875 37.046875 -86.796875 C 33.742188 -85.429688 30.78125 -83.203125 28.15625 -80.109375 C 25.539062 -77.015625 23.460938 -72.914062 21.921875 -67.8125 C 20.390625 -62.707031 19.625 -56.378906 19.625 -48.828125 C 19.625 -39.421875 20.601562 -31.765625 22.5625 -25.859375 C 24.53125 -19.953125 27.4375 -15.617188 31.28125 -12.859375 C 35.132812 -10.097656 39.894531 -8.71875 45.5625 -8.71875 C 48.96875 -8.71875 52.191406 -9.117188 55.234375 -9.921875 C 58.285156 -10.722656 61.25 -11.878906 64.125 -13.390625 L 64.125 -43.15625 L 44.921875 -43.15625 L 43.4375 -53.359375 L 76.3125 -53.359375 L 76.3125 -6.875 C 71.914062 -4.507812 67.238281 -2.5 62.28125 -0.84375 C 57.320312 0.800781 51.367188 1.625 44.421875 1.625 Z M 44.421875 1.625 "/></g></g></g><g fill="#0652e9" fill-opacity="1"><g transform="translate(1764.463521, 1769.42717)"><g><path d="M 14.953125 0 L 14.953125 -9.140625 L 26.578125 -9.140625 L 26.578125 -65.46875 L 14.953125 -65.46875 L 14.953125 -74.609375 L 35.640625 -74.609375 L 37.84375 -56.96875 C 40.71875 -63.113281 44.207031 -67.863281 48.3125 -71.21875 C 52.425781 -74.570312 57.863281 -76.25 64.625 -76.25 C 66.695312 -76.25 68.546875 -76.09375 70.171875 -75.78125 C 71.804688 -75.476562 73.476562 -75.085938 75.1875 -74.609375 L 71.703125 -63.984375 C 70.148438 -64.410156 68.734375 -64.726562 67.453125 -64.9375 C 66.179688 -65.15625 64.71875 -65.265625 63.0625 -65.265625 C 57.34375 -65.265625 52.425781 -63.234375 48.3125 -59.171875 C 44.207031 -55.109375 40.929688 -48.96875 38.484375 -40.75 L 38.484375 -9.140625 L 53.640625 -9.140625 L 53.640625 0 Z M 63.703125 -49.390625 L 63.703125 -65.609375 L 64.90625 -74.609375 L 75.1875 -74.609375 L 73.484375 -49.390625 Z M 63.703125 -49.390625 "/></g></g></g><g fill="#0652e9" fill-opacity="1"><g transform="translate(1855.159217, 1769.42717)"><g><path d="M 42.65625 -76.171875 C 49.695312 -76.171875 55.585938 -74.578125 60.328125 -71.390625 C 65.078125 -68.203125 68.644531 -63.703125 71.03125 -57.890625 C 73.414062 -52.078125 74.609375 -45.226562 74.609375 -37.34375 C 74.609375 -29.738281 73.378906 -23.003906 70.921875 -17.140625 C 68.472656 -11.285156 64.875 -6.691406 60.125 -3.359375 C 55.375 -0.0351562 49.503906 1.625 42.515625 1.625 C 35.523438 1.625 29.644531 0.0195312 24.875 -3.1875 C 20.101562 -6.394531 16.5 -10.914062 14.0625 -16.75 C 11.632812 -22.59375 10.421875 -29.410156 10.421875 -37.203125 C 10.421875 -44.898438 11.644531 -51.675781 14.09375 -57.53125 C 16.550781 -63.394531 20.175781 -67.96875 24.96875 -71.25 C 29.769531 -74.53125 35.664062 -76.171875 42.65625 -76.171875 Z M 42.65625 -66.46875 C 36.226562 -66.46875 31.375 -64.09375 28.09375 -59.34375 C 24.8125 -54.59375 23.171875 -47.210938 23.171875 -37.203125 C 23.171875 -27.378906 24.785156 -20.082031 28.015625 -15.3125 C 31.253906 -10.539062 36.085938 -8.15625 42.515625 -8.15625 C 48.941406 -8.15625 53.769531 -10.539062 57 -15.3125 C 60.238281 -20.082031 61.859375 -27.425781 61.859375 -37.34375 C 61.859375 -47.257812 60.25 -54.59375 57.03125 -59.34375 C 53.820312 -64.09375 49.03125 -66.46875 42.65625 -66.46875 Z M 42.65625 -66.46875 "/></g></g></g><g fill="#0652e9" fill-opacity="1"><g transform="translate(1945.855022, 1769.42717)"><g><path d="M 69.515625 0 L 52.65625 0 L 43.015625 -54.78125 L 32.53125 0 L 16.078125 0 L 2.484375 -74.609375 L 14.671875 -74.609375 L 24.15625 -7.375 L 36.0625 -65.125 L 50.171875 -65.125 L 61.4375 -7.375 L 70.9375 -74.609375 L 82.546875 -74.609375 Z M 69.515625 0 "/></g></g></g><g fill="#0652e9" fill-opacity="1"><g transform="translate(2036.550719, 1769.42717)"><g><path d="M 73.484375 -3.75 C 70.929688 -2.050781 67.835938 -0.734375 64.203125 0.203125 C 60.566406 1.148438 57 1.625 53.5 1.625 C 45.46875 1.625 39.28125 -0.472656 34.9375 -4.671875 C 30.59375 -8.878906 28.421875 -14.289062 28.421875 -20.90625 L 28.421875 -65.40625 L 11.265625 -65.40625 L 11.265625 -74.609375 L 28.421875 -74.609375 L 28.421875 -91.546875 L 40.3125 -92.96875 L 40.3125 -74.609375 L 66.109375 -74.609375 L 64.6875 -65.40625 L 40.3125 -65.40625 L 40.3125 -21.046875 C 40.3125 -16.890625 41.410156 -13.722656 43.609375 -11.546875 C 45.804688 -9.378906 49.457031 -8.296875 54.5625 -8.296875 C 57.351562 -8.296875 59.925781 -8.625 62.28125 -9.28125 C 64.644531 -9.945312 66.84375 -10.796875 68.875 -11.828125 Z M 73.484375 -3.75 "/></g></g></g><g fill="#0652e9" fill-opacity="1"><g transform="translate(2127.246415, 1769.42717)"><g><path d="M 26.140625 -105.796875 L 26.140625 -64.40625 C 29.078125 -68.332031 32.679688 -71.273438 36.953125 -73.234375 C 41.222656 -75.191406 45.554688 -76.171875 49.953125 -76.171875 C 57.234375 -76.171875 62.550781 -74.234375 65.90625 -70.359375 C 69.257812 -66.484375 70.9375 -61.097656 70.9375 -54.203125 L 70.9375 0 L 59.03125 0 L 59.03125 -53.921875 C 59.03125 -58.410156 57.988281 -61.679688 55.90625 -63.734375 C 53.832031 -65.796875 50.570312 -66.828125 46.125 -66.828125 C 43.289062 -66.828125 40.597656 -66.1875 38.046875 -64.90625 C 35.492188 -63.632812 33.203125 -62.050781 31.171875 -60.15625 C 29.140625 -58.269531 27.460938 -56.332031 26.140625 -54.34375 L 26.140625 0 L 14.25 0 L 14.25 -104.515625 Z M 26.140625 -105.796875 "/></g></g></g></svg>