<svg width="2321" height="286" viewBox="0 0 2321 286" fill="none" xmlns="http://www.w3.org/2000/svg">
<g clip-path="url(#clip0_1_2)">
<path d="M226.583 233.125C227.542 232.339 228.474 231.521 229.417 230.724L230.12 230.115L230.865 229.453L232.349 228.13C233.443 227.156 234.063 226.547 234.828 225.828L236.188 224.531L237.438 223.286C239.115 221.635 240.714 219.964 242.313 218.292C245.458 214.927 248.505 211.557 251.354 208.141C254.198 204.714 256.938 201.292 259.521 197.859C262.125 194.443 264.609 191.016 266.958 187.599C271.693 180.776 276.016 174.042 280.047 167.432C284.109 160.838 287.839 154.365 291.448 148.099C298.625 135.552 305.167 123.745 311.563 112.859C317.969 101.99 324.193 91.9791 330.552 83.0312C343.151 65.052 356.266 51.1093 368.693 40.9583C371.787 38.4166 374.797 36.0677 377.74 33.9843C379.193 32.9062 380.641 31.9218 382.037 30.9322C383.432 29.9635 384.823 29.0781 386.151 28.1927C388.839 26.4895 391.37 24.9375 393.724 23.5468C394.896 22.8229 396.047 22.2187 397.13 21.5989C398.214 20.9791 399.255 20.4166 400.245 19.8958C402.219 18.8125 403.979 17.8802 405.516 17.125C407.047 16.3489 408.349 15.6666 409.422 15.1666C411.547 14.1302 412.641 13.5937 412.641 13.5937C412.641 13.5937 411.422 13.6458 409.057 13.75C407.88 13.802 406.412 13.8854 404.667 14.0625C402.906 14.2083 400.88 14.4375 398.589 14.7239C389.464 15.9635 375.87 18.4739 359.432 25.3854C351.229 28.8229 342.396 33.4114 333.26 39.2552C324.125 45.1041 314.844 52.3593 305.62 60.7239C296.427 69.125 287.313 78.651 278.458 88.9791C273.99 94.125 269.62 99.5 265.198 104.943C260.833 110.411 256.432 115.984 252.037 121.615C234.432 144.083 216.443 167.552 194.682 184.854L193.813 185.521L193.385 185.859L192.885 186.229C192.224 186.719 191.573 187.229 190.896 187.703C189.557 188.667 188.198 189.604 186.828 190.521C184.073 192.323 181.255 194.01 178.38 195.578C172.63 198.714 166.604 201.219 160.438 203.151C157.349 204.109 154.219 204.896 151.057 205.505C147.901 206.135 144.719 206.594 141.521 206.854C135.13 207.375 128.693 207.182 122.359 206.24C116.031 205.245 109.797 203.562 103.859 201.073C100.891 199.818 98.0052 198.365 95.1771 196.776C92.375 195.167 89.6563 193.365 87.0521 191.391C84.4688 189.38 81.9532 187.255 79.5782 184.937C78.4063 183.766 77.2344 182.583 76.1302 181.323L75.7136 180.859C75.7396 180.901 75.3438 180.427 75.724 180.901L75.4479 180.557L74.3386 179.219C73.8802 178.609 73.6042 178.297 73.0677 177.562C69.2136 172.422 66.0261 166.672 63.6511 160.422C58.8907 147.948 57.5104 133.484 59.6771 119.5C61.8021 105.51 67.6511 92.1406 76.1771 81.9635C84.7448 71.7552 95.8698 64.9531 108.771 62.1093C117.781 60.0937 127.734 60.125 137.995 61.8437C138.276 63.8437 138.661 65.8489 139.182 67.8489C146.615 96.6458 175.99 113.958 204.787 106.526C233.583 99.0885 250.896 69.7187 243.464 40.9218C236.026 12.125 206.656 -5.19276 177.854 2.24474C170.531 4.13537 163.953 7.44787 158.333 11.8125C156.104 11.1875 153.854 10.5937 151.568 10.0677C146.031 8.76037 140.328 7.74995 134.484 7.11974C122.818 5.82287 110.557 5.98953 98.3125 8.20828C86.073 10.3854 73.9115 14.677 62.8594 20.9479C51.7761 27.177 41.8594 35.3281 33.5313 44.6093C25.2084 53.9114 18.4375 64.3281 13.2865 75.3333C8.11982 86.3281 4.48441 97.8854 2.3542 109.667C-1.94268 133.198 -0.213508 157.818 7.9167 180.729C11.9896 192.161 17.6927 203.13 24.9011 213C25.724 214.161 26.9011 215.677 27.8594 216.911L28.9532 218.276L30.5209 220.182C32.4063 222.49 34.4011 224.703 36.4375 226.875C40.5365 231.203 44.9167 235.271 49.5625 238.995C68.1198 253.958 90.6615 263.474 113.458 266.698C119.161 267.51 124.875 267.974 130.557 268.089C136.24 268.182 141.885 267.891 147.448 267.312C158.589 266.167 169.37 263.604 179.542 260.021C189.734 256.469 199.276 251.786 208.078 246.401C212.484 243.719 216.698 240.839 220.703 237.786C222.703 236.255 224.667 234.708 226.583 233.125Z" fill="#0652E9"/>
<path d="M621.109 105.5C617.042 94.0677 611.339 83.1042 604.13 73.224C603.307 72.0677 602.13 70.5521 601.172 69.3177L600.078 67.9531L598.51 66.0469C596.625 63.7448 594.625 61.526 592.589 59.349C588.49 55.026 584.115 50.9531 579.469 47.2344C560.906 32.2656 538.365 22.7552 515.568 19.5313C509.87 18.7188 504.151 18.2552 498.474 18.1406C492.786 18.0469 487.146 18.3281 481.583 18.9219C470.443 20.0625 459.656 22.625 449.484 26.2031C439.302 29.7604 429.75 34.4427 420.958 39.8281C416.547 42.5104 412.339 45.3906 408.323 48.4427C406.323 49.974 404.365 51.5208 402.453 53.1042C401.484 53.8906 400.552 54.7083 399.615 55.5104L398.911 56.1146L398.167 56.7708L396.682 58.099C395.594 59.0677 394.969 59.6823 394.203 60.401L392.839 61.7031L391.589 62.9427C389.917 64.5885 388.318 66.2656 386.719 67.9375C383.573 71.2969 380.526 74.6719 377.672 78.0885C374.833 81.5104 372.094 84.9427 369.51 88.3698C366.901 91.7917 364.422 95.2083 362.078 98.6302C357.339 105.453 353.016 112.182 348.979 118.797C344.922 125.391 341.187 131.865 337.583 138.13C330.406 150.677 323.865 162.484 317.469 173.37C311.057 184.245 304.839 194.25 298.474 203.203C285.88 221.182 272.76 235.12 260.339 245.271C257.245 247.818 254.229 250.167 251.286 252.25C249.833 253.318 248.385 254.307 246.995 255.297C245.599 256.266 244.208 257.151 242.88 258.042C240.193 259.734 237.656 261.286 235.302 262.688C234.135 263.406 232.984 264.005 231.901 264.625C230.818 265.245 229.776 265.807 228.781 266.333C226.812 267.411 225.052 268.349 223.51 269.104C221.984 269.88 220.677 270.563 219.609 271.063C217.484 272.099 216.385 272.635 216.385 272.635C216.385 272.635 217.609 272.583 219.974 272.479C221.151 272.432 222.615 272.339 224.365 272.167C226.125 272.021 228.151 271.792 230.443 271.51C239.562 270.26 253.156 267.755 269.599 260.849C277.797 257.411 286.635 252.818 295.771 246.974C304.901 241.125 314.187 233.87 323.411 225.505C332.599 217.104 341.714 207.578 350.578 197.245C355.036 192.109 359.406 186.729 363.828 181.286C368.198 175.813 372.599 170.245 376.995 164.609C394.594 142.141 412.589 118.677 434.349 101.375L435.214 100.708L435.646 100.37L436.141 100C436.802 99.5104 437.464 99.0052 438.13 98.526C439.469 97.5573 440.833 96.625 442.203 95.7083C444.958 93.9063 447.776 92.2188 450.646 90.6458C456.401 87.5156 462.427 85.0104 468.589 83.0729C471.677 82.125 474.818 81.3333 477.974 80.7188C481.125 80.0938 484.312 79.6354 487.51 79.3698C493.901 78.8542 500.339 79.0469 506.677 79.9844C512.995 80.9792 519.234 82.6667 525.172 85.151C528.141 86.4115 531.026 87.8594 533.849 89.4479C536.656 91.0625 539.37 92.8646 541.984 94.8385C544.562 96.8438 547.078 98.974 549.453 101.286C550.625 102.464 551.797 103.651 552.901 104.906L553.318 105.375C553.286 105.328 553.693 105.807 553.302 105.328L553.578 105.672L554.687 107.016C555.151 107.62 555.422 107.932 555.964 108.667C559.818 113.807 563.01 119.557 565.375 125.807C570.146 138.286 571.526 152.745 569.349 166.729C567.229 180.719 561.38 194.089 552.849 204.266C544.286 214.474 533.161 221.276 520.26 224.115C511.245 226.135 501.292 226.099 491.031 224.385C490.75 222.385 490.37 220.385 489.849 218.38C482.411 189.583 453.042 172.266 424.245 179.708C395.448 187.135 378.13 216.516 385.568 245.313C393.005 274.104 422.375 291.422 451.172 283.984C458.495 282.094 465.078 278.781 470.698 274.417C472.927 275.042 475.177 275.63 477.464 276.161C483 277.464 488.698 278.479 494.542 279.115C506.208 280.406 518.474 280.234 530.719 278.021C542.958 275.844 555.12 271.547 566.172 265.281C577.255 259.057 587.172 250.901 595.5 241.615C603.823 232.318 610.594 221.896 615.745 210.896C620.911 199.906 624.547 188.349 626.677 176.568C630.974 153.031 629.24 128.411 621.109 105.5Z" fill="#00ADEF"/>
<path d="M727.623 32.3865V139.532H696.644V32.3865H659.936V8.69897H765.852L762.644 32.3865H727.623Z" fill="#001140"/>
<path d="M826.912 30.7823V62.2198H872.224V83.9282H826.912V117.345H881.557V139.532H795.953V8.69897H881.474L878.349 30.7823H826.912Z" fill="#001140"/>
<path d="M968.679 5.38647C978.054 5.38647 986.023 6.63127 992.596 9.11564C999.179 11.6052 1005.21 15.1156 1010.68 19.6573L995.492 37.9698C991.908 35.0115 987.94 32.6677 983.596 30.9281C979.247 29.1938 974.523 28.324 969.429 28.324C963.955 28.324 958.955 29.8865 954.429 33.0115C949.898 36.1261 946.283 41.0323 943.575 47.7406C940.867 54.4386 939.512 63.1313 939.512 73.824C939.512 84.3396 940.815 92.9177 943.429 99.5531C946.038 106.194 949.643 111.074 954.242 114.199C958.835 117.314 964.096 118.866 970.012 118.866C976.554 118.866 981.992 117.636 986.325 115.178C990.669 112.72 994.669 110.048 998.325 107.157L1012.39 125.095C1007.48 129.944 1001.44 134.095 994.262 137.553C987.096 141.011 978.44 142.741 968.304 142.741C956.471 142.741 945.976 140.116 936.825 134.866C927.669 129.605 920.497 121.86 915.304 111.636C910.106 101.418 907.512 88.8136 907.512 73.824C907.512 59.2302 910.2 46.8344 915.575 36.6365C920.96 26.4438 928.283 18.6886 937.533 13.3656C946.783 8.04793 957.163 5.38647 968.679 5.38647Z" fill="#001140"/>
<path d="M1096.3 139.532V84.4073H1064.57V139.532H1033.61V8.69897H1064.57V58.9281H1096.3V8.69897H1127.26V139.532H1096.3Z" fill="#001140"/>
<path d="M1253.74 101.303C1253.74 109.418 1251.61 116.59 1247.36 122.824C1243.12 129.064 1237.04 133.944 1229.11 137.47C1221.18 140.98 1211.64 142.741 1200.51 142.741C1188.17 142.741 1177.83 140.933 1169.49 137.324C1161.15 133.699 1154.25 129.215 1148.78 123.866L1164.44 106.491C1169.29 110.715 1174.64 113.97 1180.49 116.261C1186.34 118.553 1192.76 119.699 1199.74 119.699C1204.08 119.699 1207.89 119.074 1211.15 117.824C1214.43 116.564 1216.97 114.735 1218.8 112.345C1220.63 109.959 1221.55 107.064 1221.55 103.657C1221.55 100.449 1220.82 97.7511 1219.38 95.5531C1217.93 93.3448 1215.5 91.3604 1212.07 89.5948C1208.64 87.8344 1203.87 86.0427 1197.76 84.2198C1187.56 81.0688 1179.37 77.6104 1173.17 73.8448C1166.97 70.0688 1162.47 65.6938 1159.67 60.7198C1156.87 55.7511 1155.46 49.9594 1155.46 43.3448C1155.46 35.3448 1157.68 28.5219 1162.11 22.8656C1166.55 17.199 1172.52 12.8761 1180.01 9.88647C1187.51 6.88647 1195.76 5.38647 1204.76 5.38647C1214.88 5.38647 1223.81 6.85523 1231.55 9.78231C1239.3 12.7146 1246.01 16.8813 1251.67 22.2823L1237.03 39.0948C1232.62 35.3865 1227.87 32.6365 1222.78 30.8448C1217.68 29.0427 1212.49 28.1365 1207.19 28.1365C1203.3 28.1365 1199.88 28.6313 1196.92 29.6156C1193.96 30.5896 1191.66 32.0219 1190.03 33.9073C1188.39 35.7979 1187.57 38.1573 1187.57 40.9906C1187.57 43.7563 1188.35 46.0844 1189.92 47.9698C1191.51 49.8604 1194.24 51.6365 1198.13 53.3031C1202.03 54.9698 1207.45 56.9073 1214.38 59.1156C1222.62 61.6313 1229.68 64.6365 1235.57 68.1365C1241.45 71.6261 1245.95 76.0115 1249.07 81.3031C1252.18 86.5844 1253.74 93.2511 1253.74 101.303Z" fill="#001140"/>
<path d="M1317.73 30.7823V62.2198H1363.04V83.9282H1317.73V117.345H1372.38V139.532H1286.77V8.69897H1372.29L1369.17 30.7823H1317.73Z" fill="#001140"/>
<path d="M1440.44 30.7823V62.2198H1485.75V83.9282H1440.44V117.345H1495.08V139.532H1409.48V8.69897H1495L1491.87 30.7823H1440.44Z" fill="#001140"/>
<path d="M1591 73.449C1591 64.6469 1590.25 57.4698 1588.77 51.9281C1587.29 46.3865 1585.25 42.1104 1582.64 39.0948C1580.03 36.0844 1576.96 34.0063 1573.43 32.8656C1569.9 31.7302 1566.1 31.1573 1562.02 31.1573H1555.39V117.157H1562.02C1566.29 117.157 1570.21 116.485 1573.77 115.136C1577.32 113.777 1580.38 111.48 1582.95 108.241C1585.54 105.006 1587.52 100.553 1588.91 94.8865C1590.3 89.2198 1591 82.074 1591 73.449ZM1623.08 73.449C1623.08 86.7302 1621.33 97.6782 1617.83 106.303C1614.34 114.928 1609.61 121.652 1603.62 126.47C1597.65 131.277 1590.87 134.657 1583.29 136.616C1575.7 138.564 1567.86 139.532 1559.75 139.532H1524.43V8.69897H1557.48C1565.85 8.69897 1573.95 9.56877 1581.79 11.3031C1589.62 13.0271 1596.63 16.199 1602.83 20.824C1609.04 25.449 1613.96 32.0011 1617.6 40.4698C1621.25 48.9281 1623.08 59.9229 1623.08 73.449Z" fill="#001140"/>
<path d="M1731.27 139.532V8.69897H1762.23V115.074H1818.96L1815.75 139.532H1731.27Z" fill="#001140"/>
<path d="M1911.94 111.303H1873.6L1866.71 139.532H1834.33L1874.35 8.69897H1911.94L1951.96 139.532H1918.83L1911.94 111.303ZM1878.52 88.8448H1906.83L1892.67 30.9698L1878.52 88.8448Z" fill="#001140"/>
<path d="M2025.02 139.532L1990.56 34.2823C1991 37.1156 1991.49 40.5323 1992.02 44.5323C1992.56 48.5219 1993.08 52.9594 1993.58 57.8448C1994.08 62.7198 1994.48 67.8969 1994.79 73.3656C1995.11 78.8396 1995.27 84.4386 1995.27 90.1573V139.532H1968.93V8.69897H2007.54L2040.96 113.386C2040.27 109.418 2039.57 104.678 2038.83 99.1782C2038.11 93.6782 2037.5 87.5323 2037 80.7406C2036.5 73.9386 2036.25 66.6313 2036.25 58.824V8.69897H2062.58V139.532H2025.02Z" fill="#001140"/>
<path d="M2123.93 139.532H2092.97V8.69897H2123.93V139.532ZM2124.87 69.6781L2160.64 8.69897H2193.12L2156.12 67.4073L2196.7 139.532H2160.83L2124.87 69.6781Z" fill="#001140"/>
<path d="M2280.05 111.303H2241.72L2234.82 139.532H2202.45L2242.47 8.69897H2280.05L2320.07 139.532H2286.95L2280.05 111.303ZM2246.64 88.8448H2274.95L2260.78 30.9698L2246.64 88.8448Z" fill="#001140"/>
<path d="M737.168 262.936L711.147 197.957C711.173 198.78 711.251 200.145 711.376 202.061C711.501 203.978 711.637 206.249 711.793 208.874C711.96 211.499 712.095 214.285 712.21 217.228C712.319 220.16 712.376 223.056 712.376 225.916V262.936H703.73V189.061H716.335L742.793 254.291C742.751 253.265 742.626 251.363 742.418 248.582C742.21 245.806 742.012 242.452 741.835 238.52C741.652 234.593 741.564 230.426 741.564 226.02V189.061H750.189V262.936H737.168Z" fill="#5CE1E6"/>
<path d="M781.848 206.436V246.457C781.848 250.181 782.619 252.869 784.161 254.52C785.702 256.16 788.098 256.978 791.348 256.978C794.457 256.978 797.395 256.098 800.161 254.332C802.937 252.556 805.098 250.452 806.64 248.02V206.436H815.661V262.936H807.994L807.244 255.311C805.02 258.176 802.275 260.369 799.015 261.895C795.765 263.405 792.478 264.166 789.161 264.166C783.687 264.166 779.598 262.707 776.89 259.791C774.192 256.874 772.848 252.791 772.848 247.541V206.436H781.848Z" fill="#5CE1E6"/>
<path d="M840.653 262.936V256.02H849.466V213.353H840.653V206.436H856.32L857.987 219.791C860.164 215.14 862.809 211.551 865.924 209.02C869.049 206.478 873.164 205.207 878.278 205.207C879.846 205.207 881.247 205.327 882.487 205.561C883.721 205.785 884.987 206.077 886.278 206.436L883.632 214.478C882.45 214.16 881.372 213.926 880.403 213.77C879.445 213.603 878.341 213.52 877.091 213.52C872.768 213.52 869.049 215.061 865.924 218.145C862.809 221.218 860.325 225.864 858.466 232.082V256.02H869.966V262.936H840.653ZM877.57 225.541V213.249L878.487 206.436H886.278L884.987 225.541H877.57Z" fill="#5CE1E6"/>
<path d="M952.271 260.082C950.339 261.374 947.99 262.374 945.229 263.082C942.479 263.801 939.781 264.166 937.146 264.166C931.063 264.166 926.375 262.577 923.083 259.395C919.792 256.218 918.146 252.119 918.146 247.103V213.416H905.167V206.436H918.146V193.603L927.146 192.541V206.436H946.688L945.604 213.416H927.146V246.999C927.146 250.155 927.979 252.556 929.646 254.207C931.313 255.848 934.073 256.666 937.938 256.666C940.047 256.666 942 256.416 943.792 255.916C945.583 255.416 947.24 254.77 948.771 253.978L952.271 260.082Z" fill="#5CE1E6"/>
<path d="M983.701 206.436V246.457C983.701 250.181 984.472 252.869 986.014 254.52C987.555 256.16 989.951 256.978 993.201 256.978C996.31 256.978 999.248 256.098 1002.01 254.332C1004.79 252.556 1006.95 250.452 1008.49 248.02V206.436H1017.51V262.936H1009.85L1009.1 255.311C1006.87 258.176 1004.13 260.369 1000.87 261.895C997.618 263.405 994.331 264.166 991.014 264.166C985.54 264.166 981.451 262.707 978.743 259.791C976.045 256.874 974.701 252.791 974.701 247.541V206.436H983.701Z" fill="#5CE1E6"/>
<path d="M1042.51 262.936V256.02H1051.32V213.353H1042.51V206.436H1058.17L1059.84 219.791C1062.02 215.14 1064.66 211.551 1067.78 209.02C1070.9 206.478 1075.02 205.207 1080.13 205.207C1081.7 205.207 1083.1 205.327 1084.34 205.561C1085.57 205.785 1086.84 206.077 1088.13 206.436L1085.49 214.478C1084.3 214.16 1083.22 213.926 1082.26 213.77C1081.3 213.603 1080.19 213.52 1078.94 213.52C1074.62 213.52 1070.9 215.061 1067.78 218.145C1064.66 221.218 1062.18 225.864 1060.32 232.082V256.02H1071.82V262.936H1042.51ZM1079.42 225.541V213.249L1080.34 206.436H1088.13L1086.84 225.541H1079.42Z" fill="#5CE1E6"/>
<path d="M1137.85 206.436V255.791H1153.79V262.936H1111.42V255.791H1128.85V213.582H1111.94V206.436H1137.85ZM1130.67 179.978C1132.68 179.978 1134.28 180.593 1135.48 181.811C1136.67 183.02 1137.27 184.509 1137.27 186.27C1137.27 188.093 1136.67 189.619 1135.48 190.853C1134.28 192.093 1132.68 192.707 1130.67 192.707C1128.77 192.707 1127.22 192.093 1126 190.853C1124.79 189.619 1124.19 188.093 1124.19 186.27C1124.19 184.509 1124.79 183.02 1126 181.811C1127.22 180.593 1128.77 179.978 1130.67 179.978Z" fill="#5CE1E6"/>
<path d="M1176.55 262.936V206.436H1184.22L1184.91 214.27C1187.2 211.369 1190.06 209.14 1193.51 207.582C1196.97 206.03 1200.33 205.249 1203.6 205.249C1209.14 205.249 1213.16 206.723 1215.68 209.666C1218.21 212.598 1219.47 216.676 1219.47 221.895V262.936H1210.45V228.541C1210.45 224.681 1210.23 221.561 1209.8 219.186C1209.39 216.801 1208.5 215.061 1207.14 213.978C1205.77 212.884 1203.66 212.332 1200.8 212.332C1198.58 212.332 1196.49 212.822 1194.53 213.791C1192.59 214.749 1190.85 215.957 1189.32 217.416C1187.81 218.863 1186.55 220.322 1185.55 221.791V262.936H1176.55Z" fill="#5CE1E6"/>
<path d="M1289.76 200.436L1292.55 208.895C1290.16 209.66 1287.6 210.134 1284.88 210.311C1282.16 210.478 1279.2 210.561 1276.03 210.561C1279.28 212.061 1281.72 214.009 1283.36 216.395C1285.01 218.77 1285.84 221.572 1285.84 224.791C1285.84 228.515 1284.99 231.827 1283.32 234.728C1281.64 237.619 1279.21 239.89 1276.05 241.541C1272.88 243.181 1269.06 243.999 1264.59 243.999C1262.7 243.999 1261.11 243.91 1259.84 243.728C1258.57 243.551 1257.35 243.28 1256.17 242.916C1255.31 243.499 1254.6 244.291 1254.05 245.291C1253.49 246.291 1253.21 247.327 1253.21 248.395C1253.21 249.759 1253.74 250.89 1254.82 251.791C1255.9 252.681 1257.89 253.124 1260.8 253.124H1270.98C1274.78 253.124 1278.18 253.806 1281.19 255.166C1284.22 256.515 1286.6 258.332 1288.34 260.624C1290.07 262.916 1290.94 265.525 1290.94 268.457C1290.94 273.999 1288.59 278.254 1283.88 281.228C1279.18 284.197 1272.54 285.686 1263.94 285.686C1257.94 285.686 1253.2 285.067 1249.73 283.832C1246.26 282.593 1243.78 280.712 1242.3 278.186C1240.81 275.671 1240.07 272.504 1240.07 268.686H1248.23C1248.23 270.863 1248.66 272.671 1249.51 274.103C1250.36 275.53 1251.92 276.593 1254.17 277.291C1256.43 277.983 1259.68 278.332 1263.9 278.332C1268.05 278.332 1271.44 277.983 1274.07 277.291C1276.69 276.593 1278.64 275.551 1279.9 274.166C1281.18 272.791 1281.82 271.087 1281.82 269.061C1281.82 266.363 1280.6 264.337 1278.17 262.978C1275.74 261.634 1272.7 260.957 1269.05 260.957H1258.96C1254.1 260.957 1250.51 259.89 1248.19 257.749C1245.89 255.598 1244.73 253.124 1244.73 250.332C1244.73 248.499 1245.26 246.728 1246.32 245.02C1247.37 243.301 1248.92 241.78 1250.96 240.457C1247.71 238.738 1245.32 236.613 1243.78 234.082C1242.23 231.541 1241.46 228.457 1241.46 224.832C1241.46 221.015 1242.41 217.634 1244.3 214.686C1246.2 211.728 1248.85 209.41 1252.26 207.728C1255.66 206.051 1259.57 205.207 1264.01 205.207C1268.77 205.166 1272.63 204.957 1275.59 204.582C1278.56 204.207 1281.11 203.666 1283.23 202.957C1285.37 202.238 1287.55 201.395 1289.76 200.436ZM1264.01 211.811C1259.46 211.811 1256.11 213.035 1253.94 215.478C1251.78 217.926 1250.69 221.041 1250.69 224.832C1250.69 228.666 1251.8 231.822 1254.03 234.291C1256.24 236.749 1259.64 237.978 1264.21 237.978C1268.22 237.978 1271.28 236.822 1273.36 234.499C1275.45 232.181 1276.51 228.947 1276.51 224.791C1276.51 220.53 1275.45 217.301 1273.36 215.103C1271.28 212.91 1268.16 211.811 1264.01 211.811Z" fill="#5CE1E6"/>
<path d="M1416.97 225.645C1416.97 219.202 1416.29 214.051 1414.93 210.186C1413.58 206.327 1411.79 203.431 1409.57 201.499C1407.35 199.572 1404.93 198.285 1402.3 197.645C1399.68 196.994 1397.09 196.666 1394.55 196.666H1385.87V255.478H1394.66C1397.31 255.478 1399.95 255.061 1402.57 254.228C1405.2 253.384 1407.6 251.874 1409.78 249.707C1411.96 247.541 1413.7 244.52 1415.01 240.645C1416.31 236.759 1416.97 231.759 1416.97 225.645ZM1426.91 225.645C1426.91 233.369 1425.9 239.676 1423.89 244.561C1421.89 249.436 1419.24 253.207 1415.95 255.874C1412.67 258.541 1409.07 260.39 1405.16 261.416C1401.24 262.431 1397.37 262.936 1393.53 262.936H1376.57V189.061H1392.34C1396.68 189.061 1400.89 189.551 1404.99 190.52C1409.08 191.478 1412.79 193.259 1416.09 195.853C1419.4 198.436 1422.02 202.124 1423.97 206.916C1425.93 211.707 1426.91 217.952 1426.91 225.645Z" fill="#5CE1E6"/>
<path d="M1474.27 206.436V255.791H1490.21V262.936H1447.84V255.791H1465.27V213.582H1448.36V206.436H1474.27ZM1467.09 179.978C1469.1 179.978 1470.7 180.593 1471.9 181.811C1473.09 183.02 1473.69 184.509 1473.69 186.27C1473.69 188.093 1473.09 189.619 1471.9 190.853C1470.7 192.093 1469.1 192.707 1467.09 192.707C1465.2 192.707 1463.64 192.093 1462.42 190.853C1461.21 189.619 1460.61 188.093 1460.61 186.27C1460.61 184.509 1461.21 183.02 1462.42 181.811C1463.64 180.593 1465.2 179.978 1467.09 179.978Z" fill="#5CE1E6"/>
<path d="M1558.89 200.436L1561.68 208.895C1559.29 209.66 1556.74 210.134 1554.02 210.311C1551.29 210.478 1548.34 210.561 1545.16 210.561C1548.41 212.061 1550.86 214.009 1552.5 216.395C1554.15 218.77 1554.98 221.572 1554.98 224.791C1554.98 228.515 1554.13 231.827 1552.45 234.728C1550.77 237.619 1548.35 239.89 1545.18 241.541C1542.02 243.181 1538.19 243.999 1533.73 243.999C1531.84 243.999 1530.25 243.91 1528.98 243.728C1527.71 243.551 1526.49 243.28 1525.31 242.916C1524.44 243.499 1523.74 244.291 1523.18 245.291C1522.63 246.291 1522.35 247.327 1522.35 248.395C1522.35 249.759 1522.88 250.89 1523.95 251.791C1525.04 252.681 1527.03 253.124 1529.93 253.124H1540.12C1543.91 253.124 1547.31 253.806 1550.33 255.166C1553.36 256.515 1555.74 258.332 1557.48 260.624C1559.21 262.916 1560.08 265.525 1560.08 268.457C1560.08 273.999 1557.73 278.254 1553.02 281.228C1548.32 284.197 1541.67 285.686 1533.08 285.686C1527.08 285.686 1522.34 285.067 1518.87 283.832C1515.4 282.593 1512.92 280.712 1511.43 278.186C1509.94 275.671 1509.2 272.504 1509.2 268.686H1517.37C1517.37 270.863 1517.79 272.671 1518.64 274.103C1519.5 275.53 1521.06 276.593 1523.31 277.291C1525.57 277.983 1528.81 278.332 1533.04 278.332C1537.19 278.332 1540.58 277.983 1543.2 277.291C1545.83 276.593 1547.77 275.551 1549.04 274.166C1550.31 272.791 1550.95 271.087 1550.95 269.061C1550.95 266.363 1549.74 264.337 1547.31 262.978C1544.88 261.634 1541.84 260.957 1538.18 260.957H1528.1C1523.24 260.957 1519.65 259.89 1517.33 257.749C1515.02 255.598 1513.87 253.124 1513.87 250.332C1513.87 248.499 1514.4 246.728 1515.45 245.02C1516.51 243.301 1518.06 241.78 1520.1 240.457C1516.85 238.738 1514.45 236.613 1512.91 234.082C1511.37 231.541 1510.6 228.457 1510.6 224.832C1510.6 221.015 1511.54 217.634 1513.43 214.686C1515.34 211.728 1517.99 209.41 1521.39 207.728C1524.79 206.051 1528.71 205.207 1533.14 205.207C1537.9 205.166 1541.77 204.957 1544.73 204.582C1547.69 204.207 1550.25 203.666 1552.37 202.957C1554.51 202.238 1556.68 201.395 1558.89 200.436ZM1533.14 211.811C1528.6 211.811 1525.25 213.035 1523.08 215.478C1520.91 217.926 1519.83 221.041 1519.83 224.832C1519.83 228.666 1520.94 231.822 1523.16 234.291C1525.38 236.749 1528.78 237.978 1533.35 237.978C1537.36 237.978 1540.41 236.822 1542.5 234.499C1544.59 232.181 1545.64 228.947 1545.64 224.791C1545.64 220.53 1544.59 217.301 1542.5 215.103C1540.41 212.91 1537.29 211.811 1533.14 211.811Z" fill="#5CE1E6"/>
<path d="M1608.84 206.436V255.791H1624.78V262.936H1582.41V255.791H1599.84V213.582H1582.93V206.436H1608.84ZM1601.66 179.978C1603.67 179.978 1605.27 180.593 1606.47 181.811C1607.66 183.02 1608.26 184.509 1608.26 186.27C1608.26 188.093 1607.66 189.619 1606.47 190.853C1605.27 192.093 1603.67 192.707 1601.66 192.707C1599.77 192.707 1598.21 192.093 1596.99 190.853C1595.78 189.619 1595.18 188.093 1595.18 186.27C1595.18 184.509 1595.78 183.02 1596.99 181.811C1598.21 180.593 1599.77 179.978 1601.66 179.978Z" fill="#5CE1E6"/>
<path d="M1692.4 260.082C1690.47 261.374 1688.12 262.374 1685.36 263.082C1682.61 263.801 1679.91 264.166 1677.27 264.166C1671.19 264.166 1666.5 262.577 1663.21 259.395C1659.92 256.218 1658.27 252.119 1658.27 247.103V213.416H1645.29V206.436H1658.27V193.603L1667.27 192.541V206.436H1686.82L1685.73 213.416H1667.27V246.999C1667.27 250.155 1668.11 252.556 1669.77 254.207C1671.44 255.848 1674.2 256.666 1678.07 256.666C1680.17 256.666 1682.13 256.416 1683.92 255.916C1685.71 255.416 1687.37 254.77 1688.9 253.978L1692.4 260.082Z" fill="#5CE1E6"/>
<path d="M1755.29 250.603C1755.29 252.853 1755.66 254.499 1756.41 255.541C1757.16 256.572 1758.32 257.332 1759.89 257.832L1757.7 264.166C1755.26 263.843 1753.13 263.067 1751.31 261.832C1749.49 260.598 1748.16 258.728 1747.33 256.228C1745.3 258.843 1742.77 260.822 1739.72 262.166C1736.68 263.499 1733.32 264.166 1729.64 264.166C1723.99 264.166 1719.53 262.577 1716.27 259.395C1713.02 256.218 1711.39 251.994 1711.39 246.728C1711.39 240.895 1713.66 236.426 1718.2 233.311C1722.75 230.202 1729.31 228.645 1737.89 228.645H1746.2V223.936C1746.2 219.853 1745.02 216.968 1742.64 215.27C1740.27 213.561 1736.96 212.707 1732.75 212.707C1730.88 212.707 1728.69 212.936 1726.18 213.395C1723.68 213.843 1720.96 214.577 1718.04 215.603L1715.68 208.791C1719.15 207.515 1722.41 206.603 1725.45 206.061C1728.5 205.52 1731.39 205.249 1734.14 205.249C1741.18 205.249 1746.46 206.89 1750 210.166C1753.52 213.447 1755.29 217.89 1755.29 223.499V250.603ZM1731.93 257.311C1734.72 257.311 1737.39 256.603 1739.93 255.186C1742.47 253.77 1744.56 251.811 1746.2 249.311V234.77H1738.06C1731.83 234.77 1727.44 235.848 1724.87 237.999C1722.31 240.14 1721.04 243.015 1721.04 246.624C1721.04 250.124 1721.94 252.785 1723.75 254.603C1725.56 256.41 1728.29 257.311 1731.93 257.311Z" fill="#5CE1E6"/>
<path d="M1804.11 183.686V248.978C1804.11 251.77 1804.97 253.749 1806.7 254.916C1808.43 256.082 1810.68 256.666 1813.45 256.666C1815.15 256.666 1816.78 256.488 1818.32 256.124C1819.86 255.765 1821.4 255.28 1822.95 254.666L1825.36 261.27C1823.82 262.02 1821.91 262.686 1819.63 263.27C1817.37 263.863 1814.81 264.166 1811.95 264.166C1806.93 264.166 1802.87 262.785 1799.76 260.02C1796.64 257.244 1795.09 253.405 1795.09 248.499V190.832H1777.76V183.686H1804.11Z" fill="#5CE1E6"/>
<path d="M1939.54 264.166C1933.7 264.166 1928.62 262.759 1924.31 259.936C1920 257.103 1916.67 252.863 1914.31 247.207C1911.94 241.556 1910.77 234.473 1910.77 225.957C1910.77 219.598 1911.61 214.041 1913.31 209.291C1915.02 204.53 1917.33 200.556 1920.24 197.374C1923.16 194.197 1926.46 191.822 1930.16 190.249C1933.87 188.666 1937.71 187.874 1941.68 187.874C1946.52 187.874 1950.52 188.561 1953.7 189.936C1956.88 191.311 1959.92 193.327 1962.83 195.978L1957.18 201.832C1954.93 199.723 1952.56 198.166 1950.08 197.166C1947.59 196.155 1944.81 195.645 1941.72 195.645C1939.04 195.645 1936.45 196.166 1933.95 197.207C1931.45 198.249 1929.21 199.947 1927.22 202.291C1925.23 204.624 1923.66 207.723 1922.49 211.582C1921.33 215.447 1920.74 220.238 1920.74 225.957C1920.74 233.082 1921.48 238.884 1922.97 243.353C1924.46 247.827 1926.66 251.113 1929.58 253.207C1932.49 255.291 1936.1 256.332 1940.39 256.332C1942.96 256.332 1945.4 256.035 1947.7 255.436C1950.02 254.827 1952.27 253.947 1954.45 252.791V230.27H1939.91L1938.79 222.541H1963.68V257.728C1960.35 259.52 1956.8 261.041 1953.04 262.291C1949.29 263.541 1944.79 264.166 1939.54 264.166Z" fill="#5CE1E6"/>
<path d="M1984.49 262.936V256.02H1993.3V213.353H1984.49V206.436H2000.15L2001.82 219.791C2004 215.14 2006.64 211.551 2009.76 209.02C2012.88 206.478 2017 205.207 2022.11 205.207C2023.68 205.207 2025.08 205.327 2026.32 205.561C2027.55 205.785 2028.82 206.077 2030.11 206.436L2027.47 214.478C2026.28 214.16 2025.21 213.926 2024.24 213.77C2023.28 213.603 2022.17 213.52 2020.92 213.52C2016.6 213.52 2012.88 215.061 2009.76 218.145C2006.64 221.218 2004.16 225.864 2002.3 232.082V256.02H2013.8V262.936H1984.49ZM2021.4 225.541V213.249L2022.32 206.436H2030.11L2028.82 225.541H2021.4Z" fill="#5CE1E6"/>
<path d="M2072.75 205.249C2078.08 205.249 2082.55 206.457 2086.15 208.874C2089.74 211.291 2092.44 214.702 2094.25 219.103C2096.05 223.509 2096.96 228.697 2096.96 234.666C2096.96 240.416 2096.03 245.515 2094.17 249.957C2092.3 254.39 2089.57 257.869 2085.98 260.395C2082.38 262.91 2077.94 264.166 2072.65 264.166C2067.35 264.166 2062.9 262.947 2059.29 260.52C2055.68 258.093 2052.95 254.666 2051.1 250.249C2049.27 245.832 2048.35 240.676 2048.35 234.77C2048.35 228.936 2049.28 223.806 2051.13 219.374C2052.98 214.931 2055.73 211.468 2059.35 208.978C2062.99 206.494 2067.46 205.249 2072.75 205.249ZM2072.75 212.603C2067.89 212.603 2064.21 214.405 2061.73 217.999C2059.24 221.598 2058 227.186 2058 234.77C2058 242.218 2059.22 247.744 2061.67 251.353C2064.13 254.968 2067.78 256.77 2072.65 256.77C2077.52 256.77 2081.18 254.968 2083.63 251.353C2086.07 247.744 2087.29 242.181 2087.29 234.666C2087.29 227.155 2086.07 221.598 2083.65 217.999C2081.21 214.405 2077.58 212.603 2072.75 212.603Z" fill="#5CE1E6"/>
<path d="M2160.39 262.936H2147.62L2140.31 221.457L2132.37 262.936H2119.93L2109.62 206.436H2118.85L2126.03 257.353L2135.06 213.624H2145.72L2154.26 257.353L2161.45 206.436H2170.24L2160.39 262.936Z" fill="#5CE1E6"/>
<path d="M2230.67 260.082C2228.74 261.374 2226.39 262.374 2223.63 263.082C2220.88 263.801 2218.18 264.166 2215.55 264.166C2209.46 264.166 2204.78 262.577 2201.49 259.395C2198.19 256.218 2196.55 252.119 2196.55 247.103V213.416H2183.57V206.436H2196.55V193.603L2205.55 192.541V206.436H2225.09L2224.01 213.416H2205.55V246.999C2205.55 250.155 2206.38 252.556 2208.05 254.207C2209.71 255.848 2212.48 256.666 2216.34 256.666C2218.45 256.666 2220.4 256.416 2222.19 255.916C2223.99 255.416 2225.64 254.77 2227.17 253.978L2230.67 260.082Z" fill="#5CE1E6"/>
<path d="M2262.1 182.832V214.166C2264.32 211.197 2267.05 208.968 2270.29 207.478C2273.53 205.994 2276.81 205.249 2280.15 205.249C2285.65 205.249 2289.67 206.723 2292.21 209.666C2294.75 212.598 2296.02 216.676 2296.02 221.895V262.936H2287V222.103C2287 218.702 2286.21 216.223 2284.65 214.666C2283.07 213.114 2280.61 212.332 2277.25 212.332C2275.09 212.332 2273.05 212.822 2271.12 213.791C2269.19 214.749 2267.46 215.947 2265.92 217.374C2264.37 218.806 2263.1 220.28 2262.1 221.791V262.936H2253.1V183.791L2262.1 182.832Z" fill="#5CE1E6"/>
</g>
<defs>
<clipPath id="clip0_1_2">
<rect width="2321" height="286" fill="white"/>
</clipPath>
</defs>
</svg>
