<svg width="128" height="128" viewBox="0 0 128 128" fill="none" xmlns="http://www.w3.org/2000/svg">
<path d="M64 72H24C21.8783 72 19.8434 71.1571 18.3431 69.6569C16.8429 68.1566 16 66.1217 16 64V24C16 21.8783 16.8429 19.8434 18.3431 18.3431C19.8434 16.8429 21.8783 16 24 16H64C66.1217 16 68.1566 16.8429 69.6569 18.3431C71.1571 19.8434 72 21.8783 72 24V64C72 66.1217 71.1571 68.1566 69.6569 69.6569C68.1566 71.1571 66.1217 72 64 72ZM24 24V64H64V24H24ZM104 48V64H88V48H104ZM104 40H88C85.8783 40 83.8434 40.8429 82.3431 42.3431C80.8429 43.8434 80 45.8783 80 48V64C80 66.1217 80.8429 68.1566 82.3431 69.6569C83.8434 71.1571 85.8783 72 88 72H104C106.122 72 108.157 71.1571 109.657 69.6569C111.157 68.1566 112 66.1217 112 64V48C112 45.8783 111.157 43.8434 109.657 42.3431C108.157 40.8429 106.122 40 104 40ZM104 88V104H88V88H104ZM104 80H88C85.8783 80 83.8434 80.8429 82.3431 82.3431C80.8429 83.8434 80 85.8783 80 88V104C80 106.122 80.8429 108.157 82.3431 109.657C83.8434 111.157 85.8783 112 88 112H104C106.122 112 108.157 111.157 109.657 109.657C111.157 108.157 112 106.122 112 104V88C112 85.8783 111.157 83.8434 109.657 82.3431C108.157 80.8429 106.122 80 104 80ZM64 88V104H48V88H64ZM64 80H48C45.8783 80 43.8434 80.8429 42.3431 82.3431C40.8429 83.8434 40 85.8783 40 88V104C40 106.122 40.8429 108.157 42.3431 109.657C43.8434 111.157 45.8783 112 48 112H64C66.1217 112 68.1566 111.157 69.6569 109.657C71.1571 108.157 72 106.122 72 104V88C72 85.8783 71.1571 83.8434 69.6569 82.3431C68.1566 80.8429 66.1217 80 64 80Z" fill="#0652E9"/>
</svg>
