<svg width="128" height="128" viewBox="0 0 128 128" fill="none" xmlns="http://www.w3.org/2000/svg">
<path d="M37.333 26.6666H90.6663V37.3333H101.333V16C101.333 10.1333 96.533 5.38665 90.6663 5.38665L37.333 5.33331C31.4663 5.33331 26.6663 10.1333 26.6663 16V37.3333H37.333V26.6666ZM82.1863 88.48L106.666 64L82.1863 39.52L74.6663 47.0933L91.573 64L74.6663 80.9066L82.1863 88.48ZM53.333 80.9066L36.4263 64L53.333 47.0933L45.813 39.52L21.333 64L45.813 88.48L53.333 80.9066ZM90.6663 101.333H37.333V90.6666H26.6663V112C26.6663 117.867 31.4663 122.667 37.333 122.667H90.6663C96.533 122.667 101.333 117.867 101.333 112V90.6666H90.6663V101.333Z" fill="#0652E9"/>
</svg>
