<svg width="128" height="128" viewBox="0 0 128 128" fill="none" xmlns="http://www.w3.org/2000/svg">
<path d="M77.252 27.876C75.032 27.892 72.828 28 70.5 28.624C67.9639 29.3124 65.5575 30.4109 63.376 31.876C60.312 30.076 57.344 28.596 54.5 28.248C50.968 27.812 47.688 28.048 43.876 28.128C39.356 28.22 36.408 30.528 31.624 32.376C26.844 34.216 20.688 36 12 36H8V74.5L10.252 75.624L17.624 79.252L43.876 108.5L44 108.624C47 111.592 51.048 112.328 54.624 112.124C58.204 111.924 61.564 110.876 64.248 109.252C70.156 105.688 86.248 94.5 86.248 94.5L86.624 94.248L86.876 94C88.78 92.108 89.736 89.8 90.376 87.376L105.748 79.624L117.248 75.752L120 74.872V36H116C109.276 36.046 102.609 34.7712 96.376 32.248C91.592 30.38 88.688 28.096 84.12 28C81.68 27.952 79.468 27.86 77.252 27.876ZM77.372 35.876C79.172 35.86 81.252 35.956 83.876 36C84.296 36.016 88.14 37.656 93.5 39.752C98.032 41.532 104.328 43.112 112 43.624V69.124L102.748 72.252H102.5L102.248 72.372L90.128 78.5C89.4846 76.6437 88.4631 74.9412 87.128 73.5L86.876 73.124L69.876 52.252L67.376 49.124L64.248 51.624L53.5 60.376C49.892 62.876 46.968 62.156 44 60.752C43.14 60.344 43.188 60.22 42.5 59.752L60.752 44.624L61 44.376C66.42 39 69.752 37.14 72.624 36.376C74.064 35.984 75.576 35.892 77.372 35.876ZM49.504 36C50.8386 35.9497 52.1751 35.9911 53.504 36.124C54.552 36.248 55.74 37.14 56.756 37.5C56.348 37.876 56.052 38.092 55.628 38.5L55.38 38.752L33.504 56.872L30.128 59.624L33.128 62.748C33.128 62.748 36.02 65.876 40.504 68C44.988 70.124 51.912 71.328 58.128 67L58.38 66.748L66.128 60.376L80.88 78.5L81.004 78.752L81.128 78.872C83.768 81.484 83.708 85.592 81.128 88.252C81.096 88.28 81.16 88.344 81.128 88.372C81.096 88.392 80.568 88.704 80.504 88.752L75.252 81.624L68.752 86.376L73.88 93.248C71.8 94.656 70.864 95.392 68.628 96.876L63.256 89.624L56.752 94.376L61.88 101.248C61.424 101.528 60.488 102.156 60.128 102.376C58.864 103.14 56.424 104 54.252 104.124C52.208 104.236 50.644 103.764 49.88 103.124L49.756 103L23.004 73.376L22.504 72.748L16 69.5V43.624C23.64 43.124 29.984 41.608 34.5 39.876C39.844 37.828 43.66 36.14 44.124 36.124L49.504 36Z" fill="#0652E9"/>
</svg>
