<svg width="128" height="128" viewBox="0 0 128 128" fill="none" xmlns="http://www.w3.org/2000/svg">
<path d="M52.0002 24H28.0002C26.9393 24 25.922 24.4215 25.1718 25.1716C24.4217 25.9218 24.0002 26.9392 24.0002 28.0001V52.0001C24.0002 53.061 24.4217 54.0783 25.1718 54.8285C25.922 55.5786 26.9393 56.0001 28.0002 56.0001H52.0002C53.0611 56.0001 54.0785 55.5786 54.8287 54.8285C55.5788 54.0783 56.0003 53.061 56.0003 52.0001V28.0001C56.0003 26.9392 55.5788 25.9218 54.8287 25.1716C54.0785 24.4215 53.0611 24 52.0002 24ZM52.0002 72H28.0002C26.9393 72 25.922 72.4215 25.1718 73.1716C24.4217 73.9218 24.0002 74.9392 24.0002 76.0001V100C24.0002 101.061 24.4217 102.078 25.1718 102.828C25.922 103.579 26.9393 104 28.0002 104H52.0002C53.0611 104 54.0785 103.579 54.8287 102.828C55.5788 102.078 56.0003 101.061 56.0003 100V76.0001C56.0003 74.9392 55.5788 73.9218 54.8287 73.1716C54.0785 72.4215 53.0611 72 52.0002 72ZM100 24H76.0002C74.9393 24 73.922 24.4215 73.1718 25.1716C72.4217 25.9218 72.0002 26.9392 72.0002 28.0001V52.0001C72.0002 53.061 72.4217 54.0783 73.1718 54.8285C73.922 55.5786 74.9393 56.0001 76.0002 56.0001H100C101.061 56.0001 102.078 55.5786 102.829 54.8285C103.579 54.0783 104 53.061 104 52.0001V28.0001C104 26.9392 103.579 25.9218 102.829 25.1716C102.078 24.4215 101.061 24 100 24Z" stroke="#0652E9" stroke-width="8" stroke-linejoin="round"/>
<path d="M72.0002 72H104M88.0002 88.0001H104M72.0002 104H104" stroke="#0652E9" stroke-width="8" stroke-linecap="round" stroke-linejoin="round"/>
</svg>
