<svg width="128" height="128" viewBox="0 0 128 128" fill="none" xmlns="http://www.w3.org/2000/svg">
<path d="M106.667 21.3333H21.3337C15.467 21.3333 10.7203 26.1333 10.7203 32L10.667 96C10.667 101.867 15.467 106.667 21.3337 106.667H106.667C112.534 106.667 117.334 101.867 117.334 96V32C117.334 26.1333 112.534 21.3333 106.667 21.3333ZM21.3337 48H77.3337V66.6666H21.3337V48ZM21.3337 77.3333H77.3337V96H26.667C23.7337 96 21.3337 93.6 21.3337 90.6666V77.3333ZM101.334 96H88.0003V48H106.667V90.6666C106.667 93.6 104.267 96 101.334 96Z" fill="#0652E9"/>
</svg>
