<svg width="128" height="128" viewBox="0 0 128 128" fill="none" xmlns="http://www.w3.org/2000/svg">
<g clip-path="url(#clip0_534_44)">
<path d="M101.333 21.3333C104.162 21.3333 106.875 22.4571 108.876 24.4575C110.876 26.4579 112 29.171 112 32V96C112 98.829 110.876 101.542 108.876 103.542C106.875 105.543 104.162 106.667 101.333 106.667H26.6667C23.8377 106.667 21.1246 105.543 19.1242 103.542C17.1238 101.542 16 98.829 16 96V32C16 29.171 17.1238 26.4579 19.1242 24.4575C21.1246 22.4571 23.8377 21.3333 26.6667 21.3333H101.333ZM101.333 53.3333H26.6667V90.6666C26.6668 91.973 27.1464 93.2338 28.0145 94.21C28.8825 95.1861 30.0787 95.8098 31.376 95.9626L32 96H96C97.3063 95.9998 98.5671 95.5202 99.5433 94.6522C100.52 93.7841 101.143 92.588 101.296 91.2907L101.333 90.6666V53.3333ZM32 32C30.5855 32 29.229 32.5619 28.2288 33.5621C27.2286 34.5623 26.6667 35.9188 26.6667 37.3333C26.6667 38.7478 27.2286 40.1044 28.2288 41.1045C29.229 42.1047 30.5855 42.6666 32 42.6666C33.4145 42.6666 34.771 42.1047 35.7712 41.1045C36.7714 40.1044 37.3333 38.7478 37.3333 37.3333C37.3333 35.9188 36.7714 34.5623 35.7712 33.5621C34.771 32.5619 33.4145 32 32 32ZM48 32C46.5855 32 45.229 32.5619 44.2288 33.5621C43.2286 34.5623 42.6667 35.9188 42.6667 37.3333C42.6667 38.7478 43.2286 40.1044 44.2288 41.1045C45.229 42.1047 46.5855 42.6666 48 42.6666C49.4145 42.6666 50.771 42.1047 51.7712 41.1045C52.7714 40.1044 53.3333 38.7478 53.3333 37.3333C53.3333 35.9188 52.7714 34.5623 51.7712 33.5621C50.771 32.5619 49.4145 32 48 32ZM64 32C62.5855 32 61.229 32.5619 60.2288 33.5621C59.2286 34.5623 58.6667 35.9188 58.6667 37.3333C58.6667 38.7478 59.2286 40.1044 60.2288 41.1045C61.229 42.1047 62.5855 42.6666 64 42.6666C65.4145 42.6666 66.771 42.1047 67.7712 41.1045C68.7714 40.1044 69.3333 38.7478 69.3333 37.3333C69.3333 35.9188 68.7714 34.5623 67.7712 33.5621C66.771 32.5619 65.4145 32 64 32Z" fill="#0652E9"/>
</g>
<defs>
<clipPath id="clip0_534_44">
<rect width="128" height="128" fill="white"/>
</clipPath>
</defs>
</svg>
