<svg width="128" height="128" viewBox="0 0 128 128" fill="none" xmlns="http://www.w3.org/2000/svg">
<path d="M67.3333 53.3333C66.4493 53.3333 65.6014 53.6845 64.9763 54.3096C64.3512 54.9348 64 55.7826 64 56.6667C64 57.5507 64.3512 58.3986 64.9763 59.0237C65.6014 59.6488 66.4493 60 67.3333 60H92.6667C93.5507 60 94.3986 59.6488 95.0237 59.0237C95.6488 58.3986 96 57.5507 96 56.6667C96 55.7826 95.6488 54.9348 95.0237 54.3096C94.3986 53.6845 93.5507 53.3333 92.6667 53.3333H67.3333ZM64 70C64 68.16 65.4933 66.6667 67.3333 66.6667H84.6667C85.5507 66.6667 86.3986 67.0179 87.0237 67.643C87.6488 68.2681 88 69.1159 88 70C88 70.8841 87.6488 71.7319 87.0237 72.357C86.3986 72.9821 85.5507 73.3333 84.6667 73.3333H67.3333C65.4933 73.3333 64 71.84 64 70ZM32 61.3333C32 59.2116 32.8429 57.1768 34.3431 55.6765C35.8434 54.1762 37.8783 53.3333 40 53.3333H48C50.1217 53.3333 52.1566 54.1762 53.6569 55.6765C55.1571 57.1768 56 59.2116 56 61.3333V88C56 90.1217 55.1571 92.1566 53.6569 93.6569C52.1566 95.1571 50.1217 96 48 96H40C37.8783 96 35.8434 95.1571 34.3431 93.6569C32.8429 92.1566 32 90.1217 32 88V61.3333ZM38.6667 60V89.3333H49.3333V60H38.6667ZM32.6667 16C28.2464 16 24.0072 17.7559 20.8816 20.8816C17.7559 24.0072 16 28.2464 16 32.6667V95.3333C16 99.7536 17.7559 103.993 20.8816 107.118C24.0072 110.244 28.2464 112 32.6667 112H95.3333C99.7536 112 103.993 110.244 107.118 107.118C110.244 103.993 112 99.7536 112 95.3333V32.6667C112 28.2464 110.244 24.0072 107.118 20.8816C103.993 17.7559 99.7536 16 95.3333 16H32.6667ZM22.6667 32.6667C22.6667 30.0145 23.7202 27.471 25.5956 25.5956C27.471 23.7202 30.0145 22.6667 32.6667 22.6667H95.3333C97.9855 22.6667 100.529 23.7202 102.404 25.5956C104.28 27.471 105.333 30.0145 105.333 32.6667V37.3333H22.6667V32.6667ZM32.6667 105.333C30.0145 105.333 27.471 104.28 25.5956 102.404C23.7202 100.529 22.6667 97.9855 22.6667 95.3333V44H105.333V95.3333C105.333 97.9855 104.28 100.529 102.404 102.404C100.529 104.28 97.9855 105.333 95.3333 105.333H32.6667Z" fill="#0652E9"/>
</svg>
